<?xml version="1.0" encoding="UTF-8"?><svg id="_이어_1" xmlns="http://www.w3.org/2000/svg" viewBox="0 0 195.14 20.45"><defs><style>.cls-1{fill:#fff;}</style></defs><path class="cls-1" d="M9.35,.07L0,20.39H5.57l1.54-3.57h8.97l1.57,3.57h5.52L14.05,.07h-4.7Zm.19,11.12l2.01-4.67,2.05,4.67h-4.07Z"/><path class="cls-1" d="M36.29,15.75h-5.58l.06-5.63h-5.58v6.74s.06,3.6,2.79,3.6h11.27s2.84-.12,2.84-3.66V.07h-5.8V15.75Z"/><rect class="cls-1" x="46.34" y=".07" width="5.63" height="20.32"/><polygon class="cls-1" points="76.3 .01 71.6 .01 71.6 11.84 61.32 .03 61.32 .01 56.62 .01 56.62 20.39 61.32 20.39 61.32 8.61 71.59 20.41 71.62 20.39 76.3 20.39 76.3 .01"/><polygon class="cls-1" points="86.52 15.73 86.52 12.1 93.89 12.1 93.89 7.44 86.52 7.44 86.52 4.68 99.49 4.68 99.49 .02 81.86 .02 81.86 .05 81.86 4.68 81.86 20.38 81.88 20.38 81.88 20.39 99.5 20.39 99.5 15.73 86.52 15.73"/><polygon class="cls-1" points="124.72 20.36 116.46 9.86 123.49 .06 117.07 .06 113.07 5.55 108.76 .06 102.35 .06 109.94 9.86 102.28 20.36 108.92 20.36 113.32 14.23 118.08 20.36 124.72 20.36"/><polygon class="cls-1" points="126.4 4.58 133.81 4.58 133.81 20.39 138.47 20.39 138.47 4.58 145.87 4.58 145.87 .08 126.4 .08 126.4 4.58"/><polygon class="cls-1" points="156.09 12.1 163.46 12.1 163.46 7.44 156.09 7.44 156.09 4.68 169.03 4.68 169.03 .02 151.4 .02 151.4 4.68 151.43 4.68 151.43 20.38 151.44 20.38 151.44 20.39 169.07 20.39 169.07 15.73 156.09 15.73 156.09 12.1"/><polygon class="cls-1" points="195.14 20.41 182.93 9.95 193.35 0 186.93 0 179.32 7.11 179.32 0 173.68 0 173.68 20.33 179.32 20.33 179.32 13.05 188.07 20.41 195.14 20.41"/></svg>