<?xml version="1.0" encoding="UTF-8"?><svg id="_이어_1" xmlns="http://www.w3.org/2000/svg" viewBox="0 0 148.77 41.3"><defs><style>.cls-1{fill:#fff;}</style></defs><path class="cls-1" d="M100.32,39.98l5.21-24.4,1.98,24.4h11.23L113.54,1.23h-12.03l-5.6,23.23L90.31,1.23h-12.03l-5.21,38.76h11.23l2.01-24.4,5.21,24.4h8.8ZM123.98,1.25V39.98h24.8v-8.13h-14.33V1.25h-10.46ZM12.08,1.25L0,39.98H12.08l1.61-6.97h10.46l1.61,6.97h12.08L25.76,1.23H12.08v.02Zm6.84,8.53l3.62,15.89h-7.24s3.62-15.89,3.62-15.89Zm46.91,2.41c-10.02-8.53-25.66-5.06-25.81,2.75C37.74,.44,55.74-2.61,65.83,1.97c.17,2.33,.35,4.84,0,10.22Zm-8.31,4.64c4.14,1.56,11.53,3.57,11.53,11.88,0,5.11-5.06,9.92-10.91,11.68-7.24,2.18-14.48,.02-18.92-1.83v-9.42c3.74,2.6,7.04,3.99,11.13,4.07,2.45,.05,6.2-1.14,6.2-4.46,0-2.85-2.7-3.72-4.26-4.56-8.93-4.76-6.22-14.31,1.83-15.1-2.33,.77-2.83,2.01-2.83,3.15,.02,2.78,3.69,3.64,6.22,4.61Z"/></svg>