<?xml version="1.0" encoding="UTF-8"?><svg id="_이어_1" xmlns="http://www.w3.org/2000/svg" viewBox="0 0 182.52 45.02"><defs><style>.cls-1{fill:#fff;}</style></defs><path class="cls-1" d="M10.32,18.82c-.58,.13-1.54,.26-2.86,.39-1.32,.13-2.5,.2-3.54,.2H.15V1.69H9.08v3.04H3.58v11.55h2.06c.88,0,1.79-.07,2.73-.21,.94-.14,1.59-.25,1.94-.32v3.07Zm6.73,6.53V11.72h-2.34v12.45h-3.32V.56h3.32v7.58h2.34V.14h3.3V25.35h-3.3Z"/><path class="cls-1" d="M24.51,6.76V4h14.87v2.76h-14.87Zm2.62,2.15c1.31-.84,2.92-1.25,4.82-1.25,1.99,0,3.61,.42,4.86,1.25,1.25,.84,1.87,1.89,1.87,3.17,0,1.2-.63,2.22-1.89,3.06-1.26,.84-2.88,1.25-4.87,1.25-1.88,0-3.48-.42-4.79-1.25-1.31-.84-1.97-1.86-1.97-3.08s.66-2.31,1.97-3.14Zm.68,15.99v-6.99h3.63v3.92h14.03v3.07H27.81Zm.14-22.25V0h7.92V2.65h-7.92Zm1.77,10.69c.66,.25,1.41,.38,2.25,.38s1.55-.13,2.17-.38c.62-.25,.93-.68,.93-1.28s-.31-1.04-.93-1.32c-.62-.28-1.34-.42-2.17-.42s-1.57,.14-2.24,.41c-.67,.27-1,.71-1,1.31s.33,1.06,.99,1.31Zm15.01-2.63v7.75h-3.46V.14h3.46V7.46h3.24v3.24h-3.24Z"/><path class="cls-1" d="M50.68,13.8V1.1h12.11V13.8h-12.11Zm2.59,11.1v-8.65h3.49v5.58h14.42v3.07h-17.91Zm6.11-20.76h-5.27v6.59h5.27V4.14Zm7.8,13.94V.14h3.52V18.08h-3.52Z"/><path class="cls-1" d="M87.67,12.56v3.63h7.35v9.3h-3.52v-6.2h-14.7v-3.1h7.15v-3.63h-9.58v-3.07h16.45c.22-.75,.46-1.68,.7-2.79,.24-1.11,.37-2.07,.37-2.87h-15.07V.76h18.79c0,1.45-.14,2.99-.42,4.62-.28,1.63-.59,3-.93,4.11h3.63v3.07h-10.23Z"/><path class="cls-1" d="M121.47,12.56v3.63h7.35v9.3h-3.52v-6.2h-14.7v-3.1h7.15v-3.63h-9.58v-3.07h16.45c.22-.75,.46-1.68,.7-2.79,.24-1.11,.37-2.07,.37-2.87h-15.07V.76h18.79c0,1.45-.14,2.99-.42,4.62-.28,1.63-.59,3-.93,4.11h3.63v3.07h-10.23Z"/><path class="cls-1" d="M134.7,13.46V.84h3.52v3.32h5.35V.84h3.44V13.46h-12.31Zm4.13,3.62c1.55-.97,3.85-1.45,6.89-1.45s5.37,.48,6.93,1.45c1.56,.97,2.34,2.16,2.34,3.59s-.78,2.62-2.32,3.59c-1.55,.97-3.86,1.45-6.94,1.45s-5.34-.48-6.89-1.45c-1.55-.97-2.32-2.16-2.32-3.59s.78-2.62,2.32-3.59Zm4.75-9.85h-5.35v3.13h5.35v-3.13Zm6.07,15.08c.97-.42,1.45-.96,1.45-1.62s-.48-1.22-1.45-1.63c-.97-.41-2.27-.62-3.9-.62s-2.97,.21-3.96,.62c-.99,.41-1.48,.96-1.48,1.63s.49,1.2,1.48,1.62c.99,.42,2.3,.63,3.96,.63s2.93-.21,3.9-.63Zm4.66-13.68v6.93h-3.49V.14h3.49V5.61h3.13v3.04h-3.13Z"/><path class="cls-1" d="M172.39,17.58v7.77h-3.58v-7.77h-9.97v-3.07h23.55v3.07h-10Zm-10.7-5.75V.48h3.52V3.1h10.76V.48h3.52V11.83h-17.8Zm14.28-5.72h-10.76v2.68h10.76v-2.68Z"/><path class="cls-1" d="M4.82,40.19l2.91-9.88h1.85v11.29h-1.19v-10l-2.97,10h-1.27L1.19,31.65v9.94H0v-11.29H1.87l2.95,9.88Z"/><path class="cls-1" d="M11.72,30.31h1.21v1.36h-1.21v-1.36Zm0,3.19h1.21v8.09h-1.21v-8.09Z"/><path class="cls-1" d="M16.24,34.45c.19-.36,.51-.65,.95-.86,.44-.21,.92-.32,1.45-.32,1.63,0,2.44,1.02,2.44,3.06v5.26h-1.21v-5.14c0-1.45-.49-2.17-1.46-2.17-.68,0-1.21,.27-1.58,.82-.37,.55-.56,1.3-.56,2.25v4.24h-1.22v-8.14h1.19v.99Z"/><path class="cls-1" d="M23.11,30.31h1.21v1.36h-1.21v-1.36Zm0,3.19h1.21v8.09h-1.21v-8.09Z"/><path class="cls-1" d="M26.08,39.25h1.16c.02,.53,.2,.96,.55,1.27,.35,.32,.82,.47,1.42,.47,.53,0,.96-.13,1.3-.4,.33-.27,.5-.65,.5-1.15,0-.38-.12-.67-.35-.86-.19-.16-.59-.33-1.19-.51l-.98-.3c-1.47-.45-2.2-1.16-2.2-2.14,0-.76,.25-1.36,.74-1.79,.49-.43,1.17-.64,2.05-.64,.93,0,1.66,.25,2.18,.75,.46,.44,.69,.96,.68,1.57h-1.14c-.09-.92-.68-1.39-1.78-1.39-.42,0-.78,.12-1.07,.35-.29,.24-.44,.53-.44,.88,0,.42,.11,.74,.33,.95,.19,.18,.52,.33,.98,.45l.84,.23c.81,.22,1.41,.48,1.79,.78,.48,.38,.72,.91,.72,1.6,0,.78-.27,1.4-.8,1.85-.53,.45-1.28,.67-2.23,.67s-1.71-.24-2.25-.72c-.53-.48-.81-1.12-.83-1.93Z"/><path class="cls-1" d="M34.2,31.08h1.19v2.37h1.19v1.01h-1.19v5.42c0,.38,.08,.63,.24,.74,.12,.09,.37,.13,.75,.11h.01s.07,0,.18,0v.9l-.45,.04c-.15,0-.31,0-.47,0-.97,0-1.46-.54-1.46-1.61v-5.6h-1.02v-1.01h1.02v-2.37Z"/><path class="cls-1" d="M39.28,34.6c.2-.4,.48-.72,.84-.95,.36-.23,.74-.35,1.15-.35,.13,0,.26,0,.38,.03v1.14c-.15-.06-.31-.09-.47-.09-.49,0-.92,.22-1.28,.66-.41,.47-.62,1.09-.62,1.84v4.7h-1.19v-8.14h1.19v1.14Z"/><path class="cls-1" d="M45.71,40.24l2.03-6.86h1.28l-2.23,7.08c-.63,2.01-1.15,3.32-1.55,3.92-.12,.17-.32,.32-.6,.45-.28,.12-.58,.19-.89,.19l-.33-.06c-.11,0-.24-.02-.39-.03v-1.13c.11,.04,.25,.08,.41,.11,.16,.03,.29,.05,.39,.05,.39,0,.69-.3,.9-.9l.38-1.1-2.68-8.57h1.3l1.99,6.86Z"/><path class="cls-1" d="M58.04,33.16c1.1,0,1.96,.4,2.56,1.19,.6,.79,.9,1.86,.9,3.21s-.3,2.41-.9,3.19c-.6,.78-1.46,1.17-2.56,1.17s-1.95-.4-2.55-1.19c-.57-.76-.86-1.82-.86-3.18s.29-2.43,.88-3.22c.59-.79,1.43-1.18,2.52-1.18Zm0,.93c-.72,0-1.27,.31-1.64,.93-.37,.62-.56,1.46-.56,2.54s.18,1.9,.54,2.5c.38,.63,.93,.95,1.66,.95s1.28-.32,1.66-.95c.37-.6,.56-1.44,.56-2.5s-.19-1.91-.56-2.53c-.38-.62-.93-.93-1.65-.93Z"/><path class="cls-1" d="M63.54,33.5v-1.52c0-.65,.15-1.11,.44-1.37,.29-.26,.79-.39,1.51-.39h.48v1.02h-.47c-.5,0-.75,.26-.75,.77v1.49h1.22v.99h-1.23v7.1h-1.19v-7.1h-1.01v-.99h1.01Z"/><path class="cls-1" d="M78.69,39.86v-9.55h1.19v11.29h-1.48l-5.27-9.63v9.63h-1.2v-11.29h1.57l5.2,9.55Z"/><path class="cls-1" d="M84.03,37.05l2.02-.3c.26-.04,.44-.14,.54-.31,.1-.17,.15-.43,.15-.79,0-1-.6-1.51-1.79-1.51-1.05,0-1.61,.52-1.67,1.55h-1.19c.02-.76,.29-1.37,.82-1.81,.53-.44,1.21-.66,2.06-.66s1.56,.18,2.08,.53c.56,.39,.84,.95,.84,1.66v4.81c0,.46,.16,.69,.48,.69,.09,0,.2-.02,.33-.06v.8c-.24,.09-.48,.14-.71,.14-.73,0-1.14-.39-1.24-1.16-.57,.83-1.48,1.25-2.71,1.25-.7,0-1.27-.23-1.69-.68-.42-.45-.63-1.01-.63-1.67s.2-1.21,.61-1.65c.41-.44,.97-.71,1.69-.82Zm.57,.78c-1.08,.14-1.61,.69-1.61,1.66,0,.88,.45,1.33,1.34,1.33,.65,0,1.21-.21,1.67-.63,.46-.42,.69-.96,.69-1.61v-1.17c-.19,.13-.62,.24-1.3,.33l-.8,.11Z"/><path class="cls-1" d="M90.57,31.08h1.19v2.37h1.19v1.01h-1.19v5.42c0,.38,.08,.63,.24,.74,.12,.09,.37,.13,.75,.11h.01s.07,0,.18,0v.9l-.45,.04c-.15,0-.31,0-.47,0-.97,0-1.46-.54-1.46-1.61v-5.6h-1.02v-1.01h1.02v-2.37Z"/><path class="cls-1" d="M94.44,30.31h1.2v1.36h-1.2v-1.36Zm0,3.19h1.2v8.09h-1.2v-8.09Z"/><path class="cls-1" d="M100.83,33.16c1.1,0,1.96,.4,2.56,1.19,.6,.79,.9,1.86,.9,3.21s-.3,2.41-.9,3.19c-.6,.78-1.46,1.17-2.56,1.17s-1.95-.4-2.55-1.19c-.57-.76-.86-1.82-.86-3.18s.29-2.43,.88-3.22c.59-.79,1.43-1.18,2.52-1.18Zm0,.93c-.72,0-1.27,.31-1.64,.93-.37,.62-.56,1.46-.56,2.54s.18,1.9,.54,2.5c.38,.63,.93,.95,1.66,.95s1.28-.32,1.66-.95c.37-.6,.56-1.44,.56-2.5s-.19-1.91-.56-2.53c-.38-.62-.93-.93-1.65-.93Z"/><path class="cls-1" d="M107.16,34.45c.19-.36,.51-.65,.95-.86,.44-.21,.92-.32,1.45-.32,1.63,0,2.44,1.02,2.44,3.06v5.26h-1.2v-5.14c0-1.45-.49-2.17-1.46-2.17-.68,0-1.21,.27-1.58,.82-.37,.55-.56,1.3-.56,2.25v4.24h-1.22v-8.14h1.19v.99Z"/><path class="cls-1" d="M116.02,37.05l2.02-.3c.26-.04,.44-.14,.54-.31,.1-.17,.15-.43,.15-.79,0-1-.6-1.51-1.79-1.51-1.05,0-1.61,.52-1.67,1.55h-1.19c.02-.76,.29-1.37,.82-1.81,.53-.44,1.21-.66,2.06-.66s1.56,.18,2.08,.53c.56,.39,.84,.95,.84,1.66v4.81c0,.46,.16,.69,.48,.69,.09,0,.2-.02,.33-.06v.8c-.24,.09-.48,.14-.71,.14-.73,0-1.14-.39-1.24-1.16-.57,.83-1.48,1.25-2.71,1.25-.7,0-1.27-.23-1.69-.68-.42-.45-.63-1.01-.63-1.67s.2-1.21,.61-1.65c.41-.44,.97-.71,1.69-.82Zm.57,.78c-1.08,.14-1.61,.69-1.61,1.66,0,.88,.45,1.33,1.34,1.33,.65,0,1.21-.21,1.67-.63,.46-.42,.69-.96,.69-1.61v-1.17c-.19,.13-.62,.24-1.3,.33l-.8,.11Z"/><path class="cls-1" d="M122.22,30.31h1.22v11.29h-1.22v-11.29Z"/><path class="cls-1" d="M130.1,30.31h4.07c1.33,0,2.37,.53,3.13,1.58,.72,.99,1.08,2.29,1.08,3.89,0,1.74-.34,3.11-1.01,4.13-.73,1.12-1.81,1.69-3.22,1.69h-4.05v-11.29Zm1.2,10.29h2.59c2.19,0,3.29-1.6,3.29-4.81,0-2.98-1.1-4.48-3.3-4.48h-2.58v9.28Z"/><path class="cls-1" d="M139.67,37.65c0-1.39,.34-2.49,1.02-3.31,.65-.77,1.49-1.16,2.52-1.16,.87,0,1.62,.33,2.25,.98,.62,.65,.95,1.51,.99,2.56,.03,.75,.04,1.14,.04,1.16h-5.53c.05,2.03,.76,3.04,2.14,3.04,.53,0,.98-.15,1.33-.45,.36-.3,.59-.71,.7-1.22h1.2c-.13,.75-.47,1.38-1.02,1.87-.61,.53-1.39,.8-2.32,.8s-1.74-.36-2.35-1.09c-.65-.78-.98-1.84-.98-3.18Zm1.34-.8h4.23c0-.77-.19-1.41-.54-1.9-.38-.53-.91-.8-1.58-.8-.6,0-1.1,.26-1.5,.77-.4,.51-.6,1.15-.61,1.93Z"/><path class="cls-1" d="M148.56,33.5v-1.52c0-.65,.15-1.11,.44-1.37,.29-.26,.79-.39,1.51-.39h.48v1.02h-.47c-.5,0-.75,.26-.75,.77v1.49h1.22v.99h-1.23v7.1h-1.19v-7.1h-1.01v-.99h1.01Z"/><path class="cls-1" d="M152.07,37.65c0-1.39,.34-2.49,1.02-3.31,.65-.77,1.49-1.16,2.52-1.16,.87,0,1.62,.33,2.25,.98,.62,.65,.95,1.51,.99,2.56,.03,.75,.05,1.14,.05,1.16h-5.53c.05,2.03,.76,3.04,2.14,3.04,.53,0,.98-.15,1.33-.45,.36-.3,.59-.71,.7-1.22h1.2c-.13,.75-.47,1.38-1.02,1.87-.61,.53-1.39,.8-2.32,.8s-1.74-.36-2.35-1.09c-.65-.78-.98-1.84-.98-3.18Zm1.34-.8h4.23c-.01-.77-.19-1.41-.54-1.9-.38-.53-.91-.8-1.58-.8-.6,0-1.1,.26-1.5,.77-.4,.51-.6,1.15-.61,1.93Z"/><path class="cls-1" d="M161.79,34.45c.19-.36,.51-.65,.95-.86,.44-.21,.92-.32,1.45-.32,1.62,0,2.44,1.02,2.44,3.06v5.26h-1.2v-5.14c0-1.45-.49-2.17-1.46-2.17-.68,0-1.21,.27-1.58,.82-.37,.55-.56,1.3-.56,2.25v4.24h-1.22v-8.14h1.19v.99Z"/><path class="cls-1" d="M168.27,39.25h1.16c.02,.53,.2,.96,.55,1.27,.35,.32,.82,.47,1.42,.47,.53,0,.97-.13,1.3-.4,.33-.27,.5-.65,.5-1.15,0-.38-.11-.67-.35-.86-.19-.16-.59-.33-1.19-.51l-.98-.3c-1.47-.45-2.2-1.16-2.2-2.14,0-.76,.25-1.36,.74-1.79,.49-.43,1.17-.64,2.05-.64,.93,0,1.66,.25,2.18,.75,.46,.44,.69,.96,.68,1.57h-1.15c-.09-.92-.68-1.39-1.78-1.39-.42,0-.78,.12-1.07,.35-.29,.24-.44,.53-.44,.88,0,.42,.11,.74,.33,.95,.19,.18,.52,.33,.98,.45l.85,.23c.81,.22,1.41,.48,1.79,.78,.48,.38,.72,.91,.72,1.6,0,.78-.27,1.4-.8,1.85-.53,.45-1.28,.67-2.23,.67s-1.71-.24-2.24-.72c-.53-.48-.81-1.12-.83-1.93Z"/><path class="cls-1" d="M175.69,37.65c0-1.39,.34-2.49,1.03-3.31,.65-.77,1.49-1.16,2.52-1.16,.87,0,1.62,.33,2.25,.98,.62,.65,.95,1.51,.99,2.56,.03,.75,.04,1.14,.04,1.16h-5.53c.05,2.03,.76,3.04,2.14,3.04,.53,0,.98-.15,1.34-.45,.36-.3,.59-.71,.7-1.22h1.21c-.13,.75-.47,1.38-1.03,1.87-.61,.53-1.38,.8-2.32,.8s-1.74-.36-2.35-1.09c-.65-.78-.98-1.84-.98-3.18Zm1.34-.8h4.24c-.01-.77-.19-1.41-.54-1.9-.38-.53-.91-.8-1.58-.8-.6,0-1.1,.26-1.5,.77-.4,.51-.6,1.15-.61,1.93Z"/></svg>