<?xml version="1.0" encoding="UTF-8"?><svg id="Layer_1" xmlns="http://www.w3.org/2000/svg" viewBox="0 0 210 40"><defs><style>.cls-1{fill:#fff;stroke-width:0px;}</style></defs><path class="cls-1" d="m5.55,11.48L8.89.1h2.13v12.98h-1.37V1.58l-3.42,11.51h-1.46L1.37,1.65v11.44H0V.1h2.15l3.4,11.37Z"/><path class="cls-1" d="m13.49.1h1.39v1.56h-1.39V.1Zm0,3.67h1.39v9.31h-1.39V3.78Z"/><path class="cls-1" d="m18.69,4.87c.22-.42.58-.75,1.09-.99.51-.24,1.06-.36,1.66-.36,1.87,0,2.81,1.17,2.81,3.52v6.05h-1.39v-5.91c0-1.66-.56-2.5-1.68-2.5-.79,0-1.39.31-1.82.94-.43.63-.64,1.49-.64,2.59v4.87h-1.4V3.73h1.37v1.14Z"/><path class="cls-1" d="m26.59.1h1.39v1.56h-1.39V.1Zm0,3.67h1.39v9.31h-1.39V3.78Z"/><path class="cls-1" d="m30.01,10.38h1.33c.02.61.23,1.1.63,1.47.4.36.94.55,1.64.55.61,0,1.11-.15,1.49-.46.38-.31.57-.75.57-1.33,0-.44-.13-.77-.4-.99-.22-.18-.68-.38-1.37-.59l-1.13-.35c-1.69-.52-2.53-1.34-2.53-2.46,0-.88.28-1.56.85-2.05.57-.49,1.35-.74,2.36-.74,1.07,0,1.91.29,2.51.87.53.51.79,1.11.78,1.8h-1.32c-.1-1.06-.79-1.59-2.05-1.59-.49,0-.9.14-1.23.41-.34.27-.5.61-.5,1.01,0,.49.13.85.38,1.09.22.21.6.38,1.13.52l.97.26c.94.25,1.62.56,2.06.9.55.44.83,1.05.83,1.84,0,.9-.31,1.61-.92,2.12-.61.51-1.47.77-2.57.77s-1.97-.28-2.58-.83c-.61-.55-.93-1.29-.95-2.22Z"/><path class="cls-1" d="m39.35.99h1.37v2.72h1.37v1.16h-1.37v6.24c0,.44.09.72.28.85.14.1.43.15.87.12h.02s.08.01.21,0v1.04l-.52.05c-.17.01-.35.01-.54,0-1.12,0-1.68-.62-1.68-1.85v-6.45h-1.18v-1.16h1.18V.99Z"/><path class="cls-1" d="m45.19,5.04c.23-.46.55-.83.97-1.09.42-.27.86-.4,1.32-.4.15,0,.3.01.43.03v1.32c-.17-.07-.35-.1-.54-.1-.57,0-1.06.25-1.47.76-.47.54-.71,1.25-.71,2.11v5.41h-1.37V3.73h1.37v1.32Z"/><path class="cls-1" d="m52.6,11.53l2.34-7.89h1.47l-2.57,8.15c-.73,2.31-1.32,3.81-1.79,4.51-.14.2-.37.37-.69.51-.32.14-.66.22-1.02.22l-.38-.07c-.13-.01-.28-.02-.45-.03v-1.3c.13.05.28.09.47.13.18.04.33.06.45.06.45,0,.8-.35,1.04-1.04l.43-1.27-3.09-9.86h1.49l2.29,7.89Z"/><path class="cls-1" d="m66.78,3.38c1.27,0,2.25.46,2.95,1.37.69.91,1.04,2.14,1.04,3.69s-.35,2.77-1.04,3.68c-.69.9-1.67,1.35-2.95,1.35s-2.25-.46-2.93-1.37c-.66-.88-.99-2.1-.99-3.66s.34-2.79,1.01-3.7c.68-.91,1.64-1.36,2.9-1.36Zm0,1.07c-.83,0-1.46.36-1.89,1.07-.43.71-.64,1.68-.64,2.92s.21,2.18.62,2.88c.44.73,1.07,1.09,1.91,1.09s1.47-.36,1.91-1.09c.43-.69.64-1.65.64-2.88s-.22-2.2-.65-2.91c-.43-.72-1.07-1.07-1.9-1.07Z"/><path class="cls-1" d="m73.1,3.78v-1.75c0-.75.17-1.28.5-1.58.33-.3.91-.45,1.73-.45h.55v1.18h-.54c-.58,0-.87.3-.87.88v1.72h1.4v1.14h-1.42v8.17h-1.37V4.92h-1.16v-1.14h1.16Z"/><path class="cls-1" d="m90.54,11.09V.1h1.37v12.98h-1.7l-6.07-11.08v11.08h-1.39V.1h1.8l5.98,10.99Z"/><path class="cls-1" d="m96.68,7.85l2.32-.35c.3-.05.51-.16.62-.35.12-.19.17-.49.17-.91,0-1.16-.69-1.73-2.06-1.73-1.21,0-1.85.6-1.92,1.79h-1.37c.02-.88.34-1.57.94-2.08.61-.51,1.4-.76,2.37-.76s1.79.2,2.39.61c.65.45.97,1.09.97,1.91v5.53c0,.53.18.8.56.8.1,0,.23-.02.38-.07v.92c-.28.1-.55.16-.81.16-.84,0-1.32-.45-1.42-1.34-.66.96-1.7,1.44-3.12,1.44-.81,0-1.46-.26-1.94-.78-.49-.52-.73-1.16-.73-1.93s.23-1.39.7-1.9c.47-.5,1.12-.82,1.95-.94Zm.66.9c-1.24.16-1.86.8-1.86,1.91,0,1.02.51,1.53,1.54,1.53.75,0,1.39-.24,1.93-.73.53-.48.8-1.1.8-1.85v-1.35c-.22.15-.72.28-1.49.38l-.92.12Z"/><path class="cls-1" d="m104.2.99h1.37v2.72h1.37v1.16h-1.37v6.24c0,.44.09.72.28.85.14.1.43.15.87.12h.02s.08.01.21,0v1.04l-.52.05c-.17.01-.35.01-.54,0-1.12,0-1.68-.62-1.68-1.85v-6.45h-1.18v-1.16h1.18V.99Z"/><path class="cls-1" d="m108.66.1h1.39v1.56h-1.39V.1Zm0,3.67h1.39v9.31h-1.39V3.78Z"/><path class="cls-1" d="m116.01,3.38c1.27,0,2.25.46,2.95,1.37.69.91,1.04,2.14,1.04,3.69s-.35,2.77-1.04,3.68c-.69.9-1.67,1.35-2.95,1.35s-2.25-.46-2.93-1.37c-.66-.88-.99-2.1-.99-3.66s.34-2.79,1.01-3.7c.68-.91,1.64-1.36,2.9-1.36Zm0,1.07c-.83,0-1.46.36-1.89,1.07-.43.71-.64,1.68-.64,2.92s.21,2.18.62,2.88c.44.73,1.07,1.09,1.91,1.09s1.47-.36,1.91-1.09c.43-.69.64-1.65.64-2.88s-.22-2.2-.65-2.91c-.43-.72-1.07-1.07-1.9-1.07Z"/><path class="cls-1" d="m123.29,4.87c.22-.42.58-.75,1.09-.99.51-.24,1.06-.36,1.66-.36,1.87,0,2.81,1.17,2.81,3.52v6.05h-1.39v-5.91c0-1.66-.56-2.5-1.68-2.5-.79,0-1.39.31-1.82.94-.43.63-.64,1.49-.64,2.59v4.87h-1.4V3.73h1.37v1.14Z"/><path class="cls-1" d="m133.48,7.85l2.32-.35c.3-.05.51-.16.62-.35.12-.19.17-.49.17-.91,0-1.16-.69-1.73-2.06-1.73-1.21,0-1.85.6-1.92,1.79h-1.37c.02-.88.34-1.57.94-2.08.61-.51,1.4-.76,2.37-.76s1.79.2,2.39.61c.65.45.97,1.09.97,1.91v5.53c0,.53.18.8.56.8.1,0,.23-.02.38-.07v.92c-.28.1-.55.16-.81.16-.84,0-1.32-.45-1.42-1.34-.66.96-1.7,1.44-3.12,1.44-.81,0-1.46-.26-1.94-.78-.49-.52-.73-1.16-.73-1.93s.23-1.39.7-1.9c.47-.5,1.12-.82,1.95-.94Zm.66.9c-1.24.16-1.86.8-1.86,1.91,0,1.02.51,1.53,1.54,1.53.75,0,1.39-.24,1.93-.73.53-.48.8-1.1.8-1.85v-1.35c-.22.15-.72.28-1.49.38l-.92.12Z"/><path class="cls-1" d="m140.63.1h1.4v12.98h-1.4V.1Z"/><path class="cls-1" d="m149.69.1h4.68c1.53,0,2.73.61,3.61,1.82.83,1.14,1.25,2.63,1.25,4.47,0,2-.39,3.58-1.16,4.75-.84,1.29-2.08,1.94-3.71,1.94h-4.66V.1Zm1.39,11.84h2.98c2.52,0,3.78-1.84,3.78-5.53,0-3.43-1.27-5.15-3.8-5.15h-2.96v10.68Z"/><path class="cls-1" d="m160.7,8.55c0-1.59.39-2.86,1.18-3.81.75-.89,1.72-1.34,2.9-1.34,1.01,0,1.87.38,2.58,1.13.72.75,1.1,1.73,1.14,2.95.03.87.05,1.31.05,1.34h-6.36c.06,2.33.88,3.5,2.46,3.5.61,0,1.12-.17,1.53-.52.41-.35.68-.81.81-1.4h1.39c-.15.87-.54,1.58-1.18,2.15-.71.61-1.59.92-2.67.92s-2-.42-2.7-1.25c-.75-.9-1.13-2.12-1.13-3.66Zm1.54-.92h4.87c-.01-.89-.22-1.62-.62-2.18-.44-.61-1.05-.92-1.82-.92-.69,0-1.27.3-1.73.89-.46.59-.69,1.33-.7,2.22Z"/><path class="cls-1" d="m170.93,3.78v-1.75c0-.75.17-1.28.5-1.58.33-.3.91-.45,1.73-.45h.55v1.18h-.54c-.58,0-.87.3-.87.88v1.72h1.4v1.14h-1.42v8.17h-1.37V4.92h-1.16v-1.14h1.16Z"/><path class="cls-1" d="m174.97,8.55c0-1.59.39-2.86,1.18-3.81.75-.89,1.72-1.34,2.9-1.34,1.01,0,1.87.38,2.58,1.13.72.75,1.1,1.73,1.14,2.95.04.87.05,1.31.05,1.34h-6.36c.06,2.33.88,3.5,2.46,3.5.61,0,1.12-.17,1.53-.52.41-.35.68-.81.81-1.4h1.39c-.15.87-.54,1.58-1.18,2.15-.71.61-1.59.92-2.67.92s-2-.42-2.7-1.25c-.75-.9-1.13-2.12-1.13-3.66Zm1.54-.92h4.87c-.01-.89-.22-1.62-.62-2.18-.44-.61-1.05-.92-1.82-.92-.69,0-1.27.3-1.73.89-.46.59-.69,1.33-.7,2.22Z"/><path class="cls-1" d="m186.15,4.87c.22-.42.58-.75,1.09-.99.51-.24,1.06-.36,1.66-.36,1.87,0,2.81,1.17,2.81,3.52v6.05h-1.38v-5.91c0-1.66-.56-2.5-1.68-2.5-.79,0-1.39.31-1.82.94-.43.63-.64,1.49-.64,2.59v4.87h-1.4V3.73h1.37v1.14Z"/><path class="cls-1" d="m193.6,10.38h1.34c.02.61.23,1.1.63,1.47.4.36.95.55,1.64.55.61,0,1.11-.15,1.49-.46.38-.31.57-.75.57-1.33,0-.44-.13-.77-.4-.99-.22-.18-.68-.38-1.37-.59l-1.13-.35c-1.69-.52-2.53-1.34-2.53-2.46,0-.88.28-1.56.85-2.05.56-.49,1.35-.74,2.36-.74,1.07,0,1.91.29,2.51.87.53.51.79,1.11.78,1.8h-1.32c-.1-1.06-.78-1.59-2.04-1.59-.48,0-.9.14-1.23.41-.33.27-.5.61-.5,1.01,0,.49.13.85.38,1.09.22.21.59.38,1.12.52l.97.26c.94.25,1.62.56,2.06.9.55.44.83,1.05.83,1.84,0,.9-.31,1.61-.92,2.12-.61.51-1.47.77-2.57.77s-1.97-.28-2.58-.83c-.61-.55-.93-1.29-.96-2.22Z"/><path class="cls-1" d="m202.15,8.55c0-1.59.4-2.86,1.18-3.81.75-.89,1.72-1.34,2.89-1.34,1.01,0,1.87.38,2.58,1.13.72.75,1.1,1.73,1.14,2.95.03.87.05,1.31.05,1.34h-6.36c.06,2.33.88,3.5,2.46,3.5.61,0,1.12-.17,1.54-.52.41-.35.68-.81.8-1.4h1.39c-.15.87-.54,1.58-1.18,2.15-.71.61-1.59.92-2.67.92s-2-.42-2.7-1.25c-.75-.9-1.13-2.12-1.13-3.66Zm1.54-.92h4.87c-.01-.89-.22-1.62-.62-2.18-.44-.61-1.05-.92-1.82-.92-.7,0-1.27.3-1.73.89-.45.59-.69,1.33-.7,2.22Z"/><path class="cls-1" d="m0,23.48h5.25c1.15,0,2.04.27,2.68.82.68.58,1.02,1.42,1.02,2.52,0,1.69-.64,2.76-1.93,3.19.58.23,1,.53,1.25.9.26.38.4.89.43,1.55l.09,1.52c.05.72.08,1.15.1,1.31.08.35.24.6.5.73v.22h-1.65c-.14-.16-.22-.6-.24-1.31l-.08-2.18c-.04-.75-.24-1.29-.61-1.63-.37-.33-.97-.5-1.8-.5H1.36v5.63H0v-12.77Zm1.36,6h3.7c1.68,0,2.52-.82,2.52-2.47s-.77-2.35-2.3-2.35H1.36v4.82Z"/><path class="cls-1" d="m10.76,31.78c0-1.57.39-2.82,1.16-3.75.74-.87,1.69-1.31,2.85-1.31.99,0,1.83.37,2.54,1.11.71.74,1.08,1.7,1.12,2.9.03.85.05,1.29.05,1.31h-6.25c.06,2.3.86,3.44,2.42,3.44.6,0,1.11-.17,1.51-.51.4-.34.67-.8.79-1.38h1.36c-.15.85-.53,1.56-1.16,2.11-.69.6-1.57.9-2.62.9s-1.97-.41-2.66-1.23c-.74-.89-1.11-2.09-1.11-3.6Zm1.52-.9h4.79c-.01-.88-.22-1.59-.61-2.15-.43-.6-1.03-.9-1.79-.9-.68,0-1.25.29-1.7.87-.45.58-.68,1.31-.69,2.18Z"/><path class="cls-1" d="m21.72,28.1c.2-.39.55-.7,1.04-.95.49-.24.98-.37,1.47-.37,1.02,0,1.85.39,2.47,1.16.68.84,1.02,2.02,1.02,3.53s-.29,2.73-.87,3.63c-.64.98-1.55,1.47-2.75,1.47-.5,0-.97-.12-1.41-.37-.44-.24-.76-.56-.95-.95v4.74h-1.36v-12.99h1.35v1.09Zm2.32-.22c-.74,0-1.31.35-1.71,1.05-.4.7-.61,1.63-.61,2.79s.2,2.03.6,2.73c.42.73,1,1.09,1.72,1.09s1.29-.35,1.7-1.04.6-1.62.6-2.78-.2-2.09-.6-2.79c-.4-.7-.97-1.05-1.7-1.05Z"/><path class="cls-1" d="m35.15,35.23c-.56.85-1.46,1.28-2.69,1.28-1.86,0-2.8-1.05-2.8-3.14v-6.32h1.36v6.19c0,1.49.57,2.23,1.71,2.23.79,0,1.4-.38,1.81-1.14.37-.68.56-1.6.56-2.76v-4.52h1.31v9.2h-1.26v-1.02Z"/><path class="cls-1" d="m40.07,28.07c.19-.38.54-.69,1.04-.94.47-.23.94-.34,1.43-.34,1.02,0,1.84.39,2.47,1.16.68.84,1.02,2.02,1.02,3.53s-.29,2.7-.87,3.61c-.64.99-1.55,1.48-2.74,1.48-.5,0-.97-.12-1.42-.37-.44-.24-.76-.57-.95-.96v1.01h-1.36v-12.78h1.38v4.6Zm2.29-.19c-.74,0-1.31.35-1.71,1.05-.4.7-.6,1.63-.6,2.79s.2,2.09.6,2.78c.41.69.98,1.04,1.71,1.04s1.29-.35,1.7-1.04c.4-.69.61-1.62.61-2.78s-.2-2.09-.61-2.79c-.4-.7-.97-1.05-1.7-1.05Z"/><path class="cls-1" d="m48.04,23.48h1.38v12.77h-1.38v-12.77Z"/><path class="cls-1" d="m51.84,23.48h1.36v1.53h-1.36v-1.53Zm0,3.61h1.36v9.15h-1.36v-9.15Z"/><path class="cls-1" d="m55.18,31.87c0-1.52.32-2.74.95-3.66.68-.99,1.63-1.48,2.85-1.48,1.01,0,1.8.28,2.38.84.57.56.89,1.32.96,2.3h-1.36c-.22-1.34-.88-2.01-1.98-2.01-.81,0-1.41.4-1.81,1.21-.36.71-.54,1.65-.54,2.83s.2,2.01.6,2.62c.4.61.95.91,1.65.91.61,0,1.11-.23,1.48-.7.31-.39.51-.89.6-1.5h1.35c-.09.95-.4,1.72-.94,2.28-.62.67-1.49,1.01-2.59,1.01s-1.95-.42-2.61-1.25c-.66-.84-.99-1.96-.99-3.38Z"/><path class="cls-1" d="m72.61,26.7c1.25,0,2.22.45,2.9,1.35.68.9,1.02,2.11,1.02,3.63s-.34,2.73-1.02,3.61c-.68.89-1.65,1.33-2.9,1.33s-2.21-.45-2.88-1.35c-.65-.86-.97-2.06-.97-3.6s.33-2.75,1-3.64c.66-.89,1.62-1.34,2.85-1.34Zm0,1.06c-.82,0-1.44.35-1.86,1.05-.42.7-.63,1.66-.63,2.87s.2,2.15.61,2.83c.43.72,1.06,1.07,1.87,1.07s1.44-.36,1.88-1.07c.42-.68.63-1.62.63-2.83s-.21-2.16-.64-2.86c-.43-.7-1.05-1.06-1.87-1.06Z"/><path class="cls-1" d="m78.83,27.1v-1.72c0-.74.17-1.26.49-1.55.33-.29.9-.44,1.71-.44h.54v1.16h-.53c-.57,0-.85.29-.85.87v1.69h1.38v1.12h-1.4v8.03h-1.35v-8.03h-1.14v-1.12h1.14Z"/><path class="cls-1" d="m88.33,23.48h1.36v6.48l5.81-6.48h1.76l-4.6,5.11,4.86,7.65h-1.74l-4.11-6.65-1.98,2.15v4.5h-1.36v-12.77Z"/><path class="cls-1" d="m102.34,26.7c1.25,0,2.22.45,2.9,1.35.68.9,1.02,2.11,1.02,3.63s-.34,2.73-1.02,3.61c-.68.89-1.65,1.33-2.9,1.33s-2.21-.45-2.88-1.35c-.65-.86-.97-2.06-.97-3.6s.33-2.75,1-3.64c.66-.89,1.62-1.34,2.85-1.34Zm0,1.06c-.82,0-1.44.35-1.86,1.05-.42.7-.63,1.66-.63,2.87s.2,2.15.61,2.83c.43.72,1.06,1.07,1.87,1.07s1.44-.36,1.88-1.07c.42-.68.63-1.62.63-2.83s-.21-2.16-.64-2.86c-.43-.7-1.05-1.06-1.87-1.06Z"/><path class="cls-1" d="m109.55,28.34c.23-.45.55-.81.95-1.07.41-.26.84-.39,1.3-.39.15,0,.29.01.43.03v1.3c-.17-.07-.35-.1-.53-.1-.56,0-1.04.25-1.45.75-.47.53-.7,1.23-.7,2.08v5.32h-1.35v-9.2h1.35v1.3Z"/><path class="cls-1" d="m113.45,31.78c0-1.57.39-2.82,1.16-3.75.74-.87,1.69-1.31,2.85-1.31.99,0,1.83.37,2.54,1.11.7.74,1.08,1.7,1.12,2.9.03.85.05,1.29.05,1.31h-6.25c.06,2.3.86,3.44,2.42,3.44.6,0,1.11-.17,1.51-.51s.67-.8.79-1.38h1.36c-.15.85-.53,1.56-1.16,2.11-.69.6-1.57.9-2.63.9s-1.97-.41-2.66-1.23c-.74-.89-1.11-2.09-1.11-3.6Zm1.52-.9h4.79c-.01-.88-.22-1.59-.61-2.15-.43-.6-1.03-.9-1.79-.9-.68,0-1.25.29-1.7.87-.45.58-.68,1.31-.69,2.18Z"/><path class="cls-1" d="m125.38,31.1l2.28-.34c.29-.05.5-.16.61-.35.11-.19.17-.49.17-.9,0-1.14-.68-1.7-2.03-1.7-1.19,0-1.82.59-1.89,1.76h-1.35c.02-.86.33-1.54.93-2.05.6-.5,1.37-.75,2.33-.75s1.76.2,2.35.6c.64.44.95,1.07.95,1.88v5.44c0,.52.18.78.55.78.1,0,.23-.02.37-.07v.9c-.27.1-.54.15-.8.15-.83,0-1.3-.44-1.4-1.31-.65.94-1.67,1.42-3.07,1.42-.79,0-1.43-.26-1.91-.77-.48-.51-.72-1.14-.72-1.89s.23-1.37.69-1.87c.46-.49,1.1-.8,1.92-.93Zm.65.89c-1.22.16-1.82.78-1.82,1.88,0,1,.51,1.5,1.52,1.5.74,0,1.37-.24,1.89-.72.52-.48.78-1.09.78-1.82v-1.33c-.22.15-.71.27-1.47.38l-.9.12Z"/></svg>