<?xml version="1.0" encoding="UTF-8"?><svg id="_이어_1" xmlns="http://www.w3.org/2000/svg" viewBox="0 0 215.88 28.9"><defs><style>.cls-1{fill:#fff;}</style></defs><path class="cls-1" d="M27.37,.55H9.85L0,28.35H17.52c13.95,0,17.01-6.62,19.59-13.9C39.69,7.16,41.32,.55,27.37,.55Zm-2.72,13.9c-2.66,7.51-3.66,8.68-8.33,8.68h-2.4L20.07,5.76h2.4c4.67,0,4.84,1.17,2.18,8.69ZM60.52,0c-12.33,0-17.98,4.05-21.67,14.45-3.69,10.4-.9,14.45,11.43,14.45s17.98-4.05,21.67-14.45c3.69-10.4,.9-14.45-11.43-14.45Zm-1.03,14.45c-2.66,7.51-3.76,9.54-7.47,9.54s-3.37-2.02-.71-9.54c2.66-7.51,3.76-9.54,7.47-9.54s3.37,2.02,.71,9.54ZM95.42,0c-12.33,0-17.98,4.05-21.67,14.45-3.69,10.4-.9,14.45,11.43,14.45s17.98-4.05,21.67-14.45c3.69-10.4,.9-14.45-11.43-14.45Zm-1.03,14.45c-2.66,7.51-3.76,9.54-7.47,9.54s-3.37-2.02-.71-9.54c2.66-7.51,3.77-9.54,7.47-9.54s3.37,2.02,.71,9.54Zm43.26,5.88c3.6-10.16-17.08-7.48-15.13-12.97,.44-1.25,2.02-2.45,4.62-2.45,2.34,0,2.96,1.36,2.38,3l-.23,.66h11.29c2.11-5.97-1.44-8.57-11.96-8.57s-16.28,3.07-18.26,8.68c-3.49,9.85,16.43,7.13,14.49,12.62-.54,1.53-2.38,2.68-4.85,2.68-2.34,0-3.66-.87-2.81-3.23l.23-.66h-11.68l-.34,.97c-2.04,5.76,2.81,7.83,12.79,7.83,10.65,0,17.37-2.65,19.46-8.57h0ZM155.2,.55l-21.14,27.8h12.85l2.96-4.87h9.61l-.49,4.87h12.85l-1.44-27.8h-15.19Zm4.78,17.48h-6.75l7.49-11.8h.13l-.87,11.8ZM204.58,.55l-6.07,17.13h-.13l-1.71-17.13h-13.5l-9.85,27.8h11.29l6.08-17.17h.13l1.96,17.17h13.23L215.88,.55h-11.3Z"/></svg>