<?xml version="1.0" encoding="UTF-8"?><svg id="Layer_1" xmlns="http://www.w3.org/2000/svg" viewBox="0 0 210 30.54"><defs><style>.cls-1{fill:#fff;stroke-width:0px;}</style></defs><path class="cls-1" d="m90.28,21.41h-2.33c-3.28,0-5.92-.45-8.15-2.65l-4.96-4.89,4.91-4.84c2.23-2.2,4.88-2.65,8.15-2.65h2.33c1.96,0,3.54-1.43,3.54-3.19s-1.59-3.19-3.54-3.19h-2.33c-4,0-9.13.54-13.38,4.72,0,0-1.99,1.96-4.49,4.42l-5.06-4.97c-2.02-1.99-4.55-3.52-7.34-4.08-1.9-.38-3.84.52-4.36,2.22-.52,1.7.58,3.45,2.47,3.93,1.59.4,2.87,1.11,4.01,2.23l5.49,5.39c-2.74,2.7-5.03,4.95-5.03,4.95-2.23,2.2-4.87,2.65-8.15,2.65h-28.1c-2.24,0-4.22-1.81-5.15-4.35h23.46c4.85,0,8.79-3.84,8.79-8.56S47.13,0,42.28,0h-18.31c-6.05,0-11.12,4.59-12.45,10.73H3.54c-1.96,0-3.54,1.43-3.54,3.19s1.59,3.19,3.54,3.19h7.97c1.33,6.14,6.41,10.73,12.45,10.73h28.1c4,0,9.13-.54,13.38-4.72l4.6-4.53,4.53,4.47c4.25,4.19,9.39,4.72,13.38,4.72h2.33c1.96,0,3.54-1.43,3.54-3.19s-1.59-3.19-3.54-3.19ZM23.96,6.38h18.31c.81,0,1.71.89,1.71,2.17s-.9,2.18-1.71,2.18h-23.46c.93-2.55,2.91-4.35,5.15-4.35Z"/><path class="cls-1" d="m112.1,28.05c-2.65,0-4.35-2.07-4.35-5.13s1.73-5.16,4.38-5.16c1.12,0,1.95.3,2.67.82l-.19,1.38c-.68-.55-1.49-.96-2.5-.96-1.91,0-3.04,1.52-3.04,3.91s1.15,3.89,3.04,3.89c1.01,0,1.9-.42,2.65-.99l.19,1.28c-.73.56-1.77.96-2.86.96Z"/><path class="cls-1" d="m120.94,24.45c0,1.44-.6,2.5-1.8,2.5s-1.76-1.09-1.76-2.5.59-2.5,1.76-2.5,1.8,1.09,1.8,2.5Zm1.23,0c0-2.25-1.28-3.58-3.03-3.58s-2.99,1.32-2.99,3.58,1.25,3.56,2.99,3.56,3.03-1.31,3.03-3.56Z"/><path class="cls-1" d="m124.93,23.82v4.05h-1.21v-6.85h.96l.21,1.39c.47-.77,1.22-1.48,2.28-1.54l.19,1.22c-1.08.06-1.99.82-2.43,1.72Z"/><path class="cls-1" d="m133.17,24.31c0,1.7-.75,2.57-1.77,2.57-.7,0-1.09-.12-1.58-.38v-3.29c.52-.73,1.09-1.21,1.83-1.21.89,0,1.53.81,1.53,2.3Zm1.23-.06c0-2.28-1.16-3.37-2.57-3.37-.96,0-1.62.53-2.12,1.13l-.15-.99h-.97v9.52l1.22-.19v-2.7c.41.17,1,.3,1.64.3,1.58,0,2.95-1.21,2.95-3.71Z"/><path class="cls-1" d="m140.36,24.45c0,1.44-.6,2.5-1.8,2.5s-1.76-1.09-1.76-2.5.58-2.5,1.76-2.5,1.8,1.09,1.8,2.5Zm1.23,0c0-2.25-1.28-3.58-3.03-3.58s-2.99,1.32-2.99,3.58,1.26,3.56,2.99,3.56,3.03-1.31,3.03-3.56Z"/><path class="cls-1" d="m144.35,23.82v4.05h-1.21v-6.85h.97l.21,1.39c.46-.77,1.21-1.48,2.28-1.54l.19,1.22c-1.08.06-1.99.82-2.43,1.72Z"/><path class="cls-1" d="m151.49,25.99c-.54.59-1.23.96-1.94.96-.61,0-.97-.36-.97-.92,0-.7.5-1.39,2.91-1.64v1.6Zm1.21,1.88v-4.8c0-1.52-.76-2.2-2.35-2.2-1.01,0-1.75.24-2.53.57l.16,1.11c.71-.33,1.46-.59,2.25-.59.75,0,1.24.31,1.24,1.17v.29c-2.72.3-4.11.97-4.11,2.68,0,1.17.74,1.91,1.91,1.91,1.06,0,1.78-.5,2.29-1.06l.13.92h.98Z"/><path class="cls-1" d="m156.8,27.98c-1.15,0-1.9-.43-1.9-1.81v-4.08h-.98v-1.08h.98v-2.29l1.19-.18v2.47h1.41l.16,1.08h-1.57v3.85c0,.56.22.91.9.91.22,0,.41-.01.56-.04l.16,1.09c-.21.04-.49.08-.91.08Z"/><path class="cls-1" d="m159.89,19.64c-.42,0-.78-.36-.78-.81s.35-.82.78-.82.76.37.76.82-.34.81-.76.81Zm-.62,8.23v-6.85h1.22v6.85h-1.22Z"/><path class="cls-1" d="m166.92,24.45c0,1.44-.6,2.5-1.8,2.5s-1.76-1.09-1.76-2.5.59-2.5,1.76-2.5,1.8,1.09,1.8,2.5Zm1.23,0c0-2.25-1.28-3.58-3.03-3.58s-2.99,1.32-2.99,3.58,1.26,3.56,2.99,3.56,3.03-1.31,3.03-3.56Z"/><path class="cls-1" d="m173.79,27.87v-4.67c0-.7-.29-1.18-1-1.18-.64,0-1.29.44-1.88,1.11v4.74h-1.21v-6.85h.97l.15.99c.61-.59,1.38-1.13,2.31-1.13,1.23,0,1.88.77,1.88,2.01v4.98h-1.21Z"/><path class="cls-1" d="m113.85,10.01l-4.43-5.13v5.03h-1.28V0h1.28v4.45L113.4,0h1.54l-4.14,4.6,4.38,5.1-1.34.32Z"/><path class="cls-1" d="m120.31,6.49c0,1.44-.6,2.5-1.8,2.5s-1.76-1.09-1.76-2.5.59-2.5,1.76-2.5,1.8,1.09,1.8,2.5Zm1.23,0c0-2.26-1.28-3.58-3.03-3.58s-2.99,1.32-2.99,3.58,1.25,3.56,2.99,3.56,3.03-1.31,3.03-3.56Z"/><path class="cls-1" d="m124.3,5.86v4.05h-1.21V3.06h.96l.21,1.39c.47-.77,1.21-1.48,2.28-1.54l.19,1.22c-1.08.06-1.99.82-2.43,1.72Z"/><path class="cls-1" d="m131.76,5.66h-3.14c.19-1.17.83-1.74,1.58-1.74.94,0,1.4.63,1.55,1.74Zm1.23.69c0-1.9-.87-3.44-2.77-3.44-1.64,0-2.87,1.35-2.87,3.55,0,2.51,1.33,3.59,3.02,3.59,1.08,0,1.91-.35,2.6-.92l-.17-1.15c-.71.59-1.39.98-2.33.98-1.13,0-1.86-.75-1.9-2.34h4.42v-.27Z"/><path class="cls-1" d="m138.24,8.03c-.55.59-1.23.96-1.94.96-.61,0-.97-.36-.97-.92,0-.7.5-1.39,2.9-1.64v1.59Zm1.22,1.88v-4.8c0-1.52-.77-2.2-2.35-2.2-1.01,0-1.75.25-2.52.58l.16,1.11c.71-.33,1.46-.59,2.25-.59s1.24.3,1.24,1.16v.29c-2.71.3-4.11.98-4.11,2.69,0,1.16.74,1.91,1.91,1.91,1.06,0,1.77-.5,2.29-1.06l.14.92h.98Z"/><path class="cls-1" d="m144.52,9.91V0h5.08v1.24h-3.79v2.87h2.95l.19,1.24h-3.14v3.33h3.93v1.24h-5.21Z"/><path class="cls-1" d="m155.08,10.01l-1.64-2.66-1.53,2.56h-1.28l2.2-3.51-2.06-3.25,1.2-.2,1.49,2.44,1.42-2.34h1.27l-2.06,3.3,2.2,3.46-1.2.19Z"/><path class="cls-1" d="m162.21,6.35c0,1.7-.75,2.57-1.77,2.57-.7,0-1.1-.12-1.59-.37v-3.29c.52-.73,1.09-1.21,1.83-1.21.88,0,1.53.81,1.53,2.3Zm1.23-.06c0-2.28-1.16-3.38-2.56-3.38-.96,0-1.63.54-2.12,1.14l-.15-.99h-.97v9.52l1.22-.19v-2.7c.41.17,1,.3,1.64.3,1.58,0,2.95-1.21,2.95-3.71Z"/><path class="cls-1" d="m166.19,5.86v4.05h-1.21V3.06h.97l.21,1.39c.47-.77,1.22-1.48,2.28-1.54l.19,1.22c-1.08.06-1.99.82-2.43,1.72Z"/><path class="cls-1" d="m173.66,5.66h-3.14c.19-1.17.83-1.74,1.58-1.74.94,0,1.4.63,1.55,1.74Zm1.23.69c0-1.9-.87-3.44-2.77-3.44-1.64,0-2.87,1.35-2.87,3.55,0,2.51,1.33,3.59,3.02,3.59,1.08,0,1.91-.35,2.6-.92l-.18-1.15c-.71.59-1.39.98-2.33.98-1.13,0-1.85-.75-1.89-2.34h4.42v-.27Z"/><path class="cls-1" d="m178.41,10.05c-.86,0-1.82-.32-2.38-.65l.18-1.2c.62.44,1.41.79,2.29.79.83,0,1.33-.33,1.33-.91,0-.63-.37-.86-1.54-1.16-1.53-.4-2.14-.89-2.14-2.11,0-1.09.87-1.9,2.29-1.9.8,0,1.53.17,2.14.46l-.19,1.2c-.57-.35-1.3-.59-1.98-.59-.74,0-1.12.3-1.12.79s.33.72,1.35.99c1.61.43,2.33.92,2.33,2.22s-.89,2.05-2.56,2.05Z"/><path class="cls-1" d="m184.39,10.05c-.86,0-1.82-.32-2.38-.65l.18-1.2c.62.44,1.4.79,2.29.79.83,0,1.32-.33,1.32-.91,0-.63-.37-.86-1.54-1.16-1.53-.4-2.14-.89-2.14-2.11,0-1.09.87-1.9,2.29-1.9.81,0,1.53.17,2.14.46l-.19,1.2c-.58-.35-1.3-.59-1.98-.59-.74,0-1.12.3-1.12.79s.33.72,1.35.99c1.61.43,2.33.92,2.33,2.22s-.89,2.05-2.57,2.05Z"/><path class="cls-1" d="m194.73,9.91h-.96l-1.5-5.19-1.49,5.19h-.94l-2.1-6.75,1.16-.2,1.43,5.07,1.45-4.97h1.02l1.45,4.97,1.39-4.97h1.19l-2.1,6.85Z"/><path class="cls-1" d="m201.71,8.03c-.54.59-1.23.96-1.94.96-.61,0-.97-.36-.97-.92,0-.7.5-1.39,2.91-1.64v1.59Zm1.21,1.88v-4.8c0-1.52-.77-2.2-2.35-2.2-1.01,0-1.75.25-2.52.58l.16,1.11c.71-.33,1.46-.59,2.25-.59s1.24.3,1.24,1.16v.29c-2.72.3-4.11.98-4.11,2.69,0,1.16.74,1.91,1.91,1.91,1.06,0,1.77-.5,2.29-1.06l.13.92h.98Z"/><path class="cls-1" d="m207.38,10.51c-.56,1.6-1.25,2.01-2.34,2.01-.16,0-.3-.03-.42-.06l-.16-1.12c.21.06.45.1.68.1.51,0,.85-.26,1.04-.8l.25-.7-2.37-6.78,1.2-.2,1.78,5.46,1.73-5.36h1.24l-2.62,7.45Z"/></svg>