<?xml version="1.0" encoding="UTF-8"?><svg id="_이어_1" xmlns="http://www.w3.org/2000/svg" viewBox="0 0 213.35 23.64"><defs><style>.cls-1{fill:#fff;}</style></defs><g><path class="cls-1" d="M50.98,16c-1.89,1.86-4.13,2.24-6.9,2.24H20.29c-1.89,0-3.57-1.53-4.36-3.68h-6.18c1.13,5.2,5.42,9.08,10.54,9.08h23.79c3.38,0,7.73-.45,11.33-4l3.89-3.83-4.07-4c-2.32,2.29-4.26,4.19-4.26,4.19Z"/><path class="cls-1" d="M20.29,5.47h15.51c.68,0,1.45,.76,1.45,1.84s-.76,1.84-1.45,1.84H15.93c-.3,.83-.47,1.74-.47,2.7s.17,1.87,.47,2.7h19.86c4.11,0,7.45-3.25,7.45-7.24S39.9,.07,35.8,.07h-15.51C15.17,.07,10.88,3.95,9.75,9.15h6.18c.79-2.15,2.47-3.68,4.36-3.68Z"/><path class="cls-1" d="M15.46,11.85c0-.96,.17-1.87,.47-2.7h-6.18c-.19,.87-.29,1.77-.29,2.7s.1,1.83,.29,2.7h6.18c-.3-.83-.47-1.74-.47-2.7Z"/><path class="cls-1" d="M9.75,9.15H3c-1.66,0-3,1.21-3,2.7s1.34,2.7,3,2.7h6.75c-.19-.87-.29-1.77-.29-2.7s.1-1.83,.29-2.7Z"/><path class="cls-1" d="M67.53,7.71c1.89-1.86,4.13-2.24,6.9-2.24h1.97c1.66,0,3-1.21,3-2.7s-1.34-2.7-3-2.7h-1.97c-3.38,0-7.73,.45-11.33,4,0,0-1.69,1.66-3.8,3.74l4.06,4,4.16-4.09Z"/><path class="cls-1" d="M55.02,3.6c-1.71-1.69-3.85-2.98-6.22-3.45-1.61-.32-3.25,.44-3.69,1.88-.44,1.44,.49,2.92,2.09,3.33,1.35,.34,2.43,.94,3.4,1.89l4.65,4.56c1.32-1.3,2.77-2.73,4.07-4l-4.28-4.2Z"/><path class="cls-1" d="M76.44,18.19h-1.98c-2.78,0-5.01-.38-6.9-2.24l-4.2-4.14-4.06,4,3.83,3.79c3.6,3.54,7.95,4,11.33,4h1.98c1.66,0,3-1.21,3-2.7s-1.34-2.7-3-2.7Z"/><path class="cls-1" d="M59.3,7.8c-1.29,1.27-2.74,2.7-4.07,4l4.07,4,4.06-4-4.06-4Z"/></g><g><g><polygon class="cls-1" points="210.79 .76 207.71 .76 207.71 22.67 210.79 22.67 210.79 9.59 213.35 9.59 213.35 7.46 210.79 7.46 210.79 .76"/><path class="cls-1" d="M201.22,5.47V.94h-3.08V5.47c0,3.7-1.48,6.77-4.93,8.92l1.35,1.74c2.28-1.2,3.99-3.01,5.11-4.98,1.12,1.97,2.83,3.78,5.11,4.98l1.36-1.74c-3.45-2.15-4.93-5.22-4.93-8.92Z"/></g><g><polygon class="cls-1" points="108.7 6.51 108.7 .76 105.62 .76 105.62 16.72 108.7 16.72 108.7 8.63 111.26 8.63 111.26 6.51 108.7 6.51"/><path class="cls-1" d="M102.89,8.06c0-1.67-.79-3.08-2.02-3.99h2.15V1.94h-4.31V0h-3.08V1.94h-4.31v2.13h2.23c-1.23,.92-2.02,2.32-2.02,3.99,0,3.01,2.54,5.45,5.68,5.45s5.68-2.44,5.68-5.45Zm-8.27,0c0-1.87,1.16-3.39,2.6-3.39s2.6,1.52,2.6,3.39-1.16,3.39-2.6,3.39-2.6-1.52-2.6-3.39Z"/><path class="cls-1" d="M108.86,22.6v-2.13h-11.54v-4.76h-3.08v5.07c0,.94,.74,1.81,1.94,1.81h12.69Z"/></g><path class="cls-1" d="M135.59,1.06V10.7c0,.94,.74,1.82,1.94,1.82h3.96v6.41h-7.03v2.13h17.14v-2.13h-7.03v-6.41h5.55v-2.13h-11.44V3.19h11.44V1.06h-14.52Z"/><path class="cls-1" d="M123.66,14.43v-3.68h7.35v-2.13h-1.55V2.88c0-.94-.74-1.82-1.94-1.82h-13.22V3.19h12.07v5.44h-13.15v2.13h7.35v3.68h-6.27v2.13h12.07v6.11h3.08V14.43h-5.8Z"/><path class="cls-1" d="M155.41,12c0,.94,.74,1.82,1.94,1.82h4.12v5.11h-7.19v2.13h17.46v-2.13h-7.19v-5.11h5.71v-2.13h-11.77v-3.04h11.77V2.88c0-.94-.74-1.82-1.94-1.82h-12.91V3.19h11.77v3.34h-11.77v5.48Z"/><g><path class="cls-1" d="M175.43,1.06V3.19h11.91v6.99h-4.3V6.04h-3.08v4.14h-6.1v2.13h18.43v-2.13h-1.87V2.88c0-.94-.74-1.82-1.94-1.82h-13.06Z"/><path class="cls-1" d="M182.98,13.46c-3.64,0-6.6,2.26-6.6,5.06s2.95,5.06,6.6,5.06,6.59-2.26,6.59-5.06-2.95-5.06-6.59-5.06Zm0,8.04c-1.94,0-3.52-1.34-3.52-2.98s1.57-2.98,3.52-2.98,3.52,1.34,3.52,2.98-1.57,2.98-3.52,2.98Z"/></g></g></svg>