<?xml version="1.0" encoding="UTF-8"?>
<svg id="_레이어_1" data-name="레이어 1" xmlns="http://www.w3.org/2000/svg" viewBox="0 0 154.86 50.57">
  <defs>
    <style>
      .cls-1 {
        fill: #fff;
      }
    </style>
  </defs>
  <g>
    <path class="cls-1" d="m6.1,38.48v4.79h2.43v-4.79h2.32v11.94h-2.32v-5h-2.43v5h-2.32v-11.94h2.32Z"/>
    <path class="cls-1" d="m15.9,47.7l-.53,2.73h-2.25l2.59-11.94h2.79l2.32,11.94h-2.25l-.51-2.73h-2.14Zm1.93-1.81l-.39-2.5c-.13-.73-.28-1.92-.39-2.71h-.06c-.12.8-.3,2.04-.42,2.73l-.44,2.48h1.7Z"/>
    <path class="cls-1" d="m23.23,50.43v-11.94h2.12l1.84,4.68c.35.92.94,2.44,1.27,3.49h.04c-.07-1.26-.23-3.34-.23-5.53v-2.64h2.04v11.94h-2.13l-1.83-4.54c-.39-1.01-.94-2.51-1.21-3.6h-.03c.05,1.2.14,3.05.14,5.46v2.67h-2.03Z"/>
    <path class="cls-1" d="m34.79,50.43v-4.57l-2.62-7.37h2.48l.81,2.85c.21.76.44,1.65.63,2.54h.04c.14-.87.33-1.74.55-2.59l.71-2.8h2.41l-2.68,7.28v4.66h-2.32Z"/>
    <path class="cls-1" d="m43.03,47.7l-.53,2.73h-2.25l2.59-11.94h2.78l2.33,11.94h-2.25l-.51-2.73h-2.15Zm1.93-1.81l-.39-2.5c-.12-.73-.28-1.92-.39-2.71h-.05c-.12.8-.3,2.04-.43,2.73l-.44,2.48h1.7Z"/>
    <path class="cls-1" d="m50.35,50.43v-11.94h2.13l1.84,4.68c.36.92.94,2.44,1.28,3.49h.04c-.07-1.26-.23-3.34-.23-5.53v-2.64h2.04v11.94h-2.12l-1.82-4.54c-.39-1.01-.94-2.51-1.21-3.6h-.04c.05,1.2.14,3.05.14,5.46v2.67h-2.04Z"/>
    <path class="cls-1" d="m67.23,50.11c-.51.22-1.61.42-2.48.42-1.36,0-2.39-.39-3.19-1.19-1.03-.99-1.58-2.76-1.55-4.82.06-4.34,2.53-6.15,5.07-6.15.91,0,1.58.18,1.95.35l-.41,2c-.33-.16-.78-.27-1.36-.27-1.58,0-2.84,1.08-2.84,4.2,0,2.87,1.12,3.9,2.2,3.9.21,0,.37-.01.46-.05v-2.89h-1.06v-1.9h3.21v6.38Z"/>
    <path class="cls-1" d="m76.23,38.48v7.76c0,1.75.53,2.29,1.14,2.29.67,0,1.15-.48,1.15-2.29v-7.76h2.32v7.36c0,3.06-1.15,4.73-3.45,4.73-2.5,0-3.47-1.72-3.47-4.71v-7.37h2.32Z"/>
    <path class="cls-1" d="m83.94,50.43v-11.94h2.13l1.84,4.68c.35.92.94,2.44,1.28,3.49h.03c-.07-1.26-.23-3.34-.23-5.53v-2.64h2.04v11.94h-2.12l-1.82-4.54c-.39-1.01-.94-2.51-1.21-3.6h-.04c.05,1.2.15,3.05.15,5.46v2.67h-2.04Z"/>
    <path class="cls-1" d="m96.51,38.48v11.94h-2.32v-11.94h2.32Z"/>
    <path class="cls-1" d="m101.34,50.43l-2.68-11.94h2.57l.85,5.16c.21,1.27.46,2.74.62,4.15h.04c.16-1.42.36-2.85.57-4.2l.81-5.1h2.56l-2.73,11.94h-2.6Z"/>
    <path class="cls-1" d="m113.83,45.18h-2.73v3.22h3.09v2.02h-5.41v-11.94h5.2v2.02h-2.88v2.74h2.73v1.93Z"/>
    <path class="cls-1" d="m116.86,38.66c.73-.14,1.65-.23,2.53-.23,1.28,0,2.42.17,3.19.88.73.65.94,1.45.94,2.48,0,1.28-.63,2.43-1.85,3v.03c.82.32,1.22,1.08,1.45,2.36.23,1.33.55,2.8.76,3.24h-2.42c-.14-.34-.41-1.54-.59-2.85-.21-1.49-.58-1.91-1.36-1.91h-.34v4.77h-2.32v-11.77Zm2.32,5.21h.41c1.01,0,1.59-.82,1.59-1.86s-.41-1.74-1.45-1.77c-.2,0-.43.02-.55.07v3.56Z"/>
    <path class="cls-1" d="m126.03,48.05c.48.26,1.29.46,1.96.46,1.1,0,1.63-.57,1.63-1.35,0-.87-.53-1.29-1.54-1.95-1.63-.99-2.25-2.25-2.25-3.33,0-1.92,1.27-3.51,3.77-3.51.78,0,1.52.21,1.88.42l-.37,2.01c-.33-.22-.85-.41-1.52-.41-.99,0-1.47.6-1.47,1.24,0,.7.35,1.08,1.65,1.86,1.58.96,2.16,2.17,2.16,3.42,0,2.18-1.61,3.62-3.95,3.62-.95,0-1.9-.24-2.29-.48l.34-2Z"/>
    <path class="cls-1" d="m136.69,38.48v11.94h-2.32v-11.94h2.32Z"/>
    <path class="cls-1" d="m141.16,40.62h-2.11v-2.14h6.56v2.14h-2.13v9.8h-2.33v-9.8Z"/>
    <path class="cls-1" d="m149.86,50.43v-4.57l-2.62-7.37h2.48l.82,2.85c.21.76.44,1.65.62,2.54h.04c.14-.87.34-1.74.55-2.59l.71-2.8h2.41l-2.68,7.28v4.66h-2.32Z"/>
  </g>
  <path class="cls-1" d="m25.12,1.05h-4.55v22.8h4.55v-12.34h4.48v-2.66h-4.48V1.05Zm-15.08,20.15h-4.55v11.64h20.16v-2.69h-15.61v-8.95Zm138.65,4.31h4.28V1.01h-22.05v2.7h17.76v21.8ZM41.49.36c-11.28,0-11.28,16.48,0,16.48S52.74.36,41.49.36Zm0,2.54c5.51,0,5.51,11.43,0,11.43s-5.54-11.43,0-11.43Zm-27.39,2.35h4.12v-2.69h-6.83V0h-4.55v2.56H0v2.69h4.11c-5.04,3.89-3.38,13.63,5,13.63s10-9.75,4.99-13.63Zm-4.99.8c5.17,0,5.17,10.45,0,10.45s-5.21-10.45,0-10.45Zm92.59,17.8h15.91v8.98h4.55v-11.64h-20.46v2.66ZM122.16,1.05h-4.55v18.68h4.55v-8.22h4.48v-2.66h-4.48V1.05Zm-11.02,4.2h4.12v-2.69h-6.83V0h-4.56v2.56h-6.82v2.69h4.11c-5.04,3.89-3.38,13.63,5,13.63s9.99-9.75,4.98-13.63Zm-4.99.8c5.17,0,5.17,10.45,0,10.45s-5.21-10.45,0-10.45Zm-57.26,12.13c-11.62,0-11.66,15.75,0,15.75s11.59-15.75,0-15.75Zm0,13.22c-5.69,0-5.69-10.78,0-10.78s5.65,10.78,0,10.78Zm96.98-3.38v-13.79h-4.2v13.79h-3.02v-13.79h-4.21v13.79h-4.6v2.7h24.93v-2.7h-8.9ZM57.18,1.08h-4.58v16.97h4.58v-4.46h4.49v-2.7h-4.49v-3.85h4.49v-2.66h-4.49V1.08Zm30,9.81h-2.11V1.05h-4.29v18.13h-8.51V3.75h6.28V1.05h-10.83v20.83h13.06v10.99h4.29V13.59h2.11v19.28h4.28V1.05h-4.28v9.84Z"/>
</svg>