<?xml version="1.0" encoding="utf-8"?>
<!-- Generator: Adobe Illustrator 27.9.0, SVG Export Plug-In . SVG Version: 6.00 Build 0)  -->
<svg version="1.1" id="Layer_1" xmlns="http://www.w3.org/2000/svg" xmlns:xlink="http://www.w3.org/1999/xlink" x="0px" y="0px"
	 viewBox="0 0 210 42.8" style="enable-background:new 0 0 210 42.8;" xml:space="preserve">
<style type="text/css">
	.st0{fill:#FFFFFF;}
</style>
<g>
	<g>
		<path class="st0" d="M116.7,28V6.8c0-3.4,0.9-4.9,3-4.9H210V0H0v1.9h8.1v39H0v1.9h210v-1.9H109.3C114.4,38.7,116.7,34.1,116.7,28
			 M72,1.9c2.6,0,3.4,0.8,3.4,2.3c0,1-0.5,2.3-1.1,4L67.5,24L58,1.9H72z M48.3,1.9l11.1,25.8v13.2H40.7v-39H48.3z M31.8,1.9
			 M31.8,19.8H17V1.9h14.9V19.8z M17,22.1h14.9v18.8H17V22.1z M68.3,40.9v-13l8.9-20.5c1.8-4.4,3.1-5.5,5-5.5h4v25.8
			c0,6.4,3.1,11,8.2,13.2H68.3z M104.4,39.8c-8.3,0-9.3-5.4-9.3-12.9v-25h15.5c2.9,0,3.8,1.5,3.8,4.9v21.5
			C114.4,36,110,39.8,104.4,39.8"/>
		<g>
			<g>
				<g>
					<polygon class="st0" points="123.8,10.2 123.8,13.6 125.1,13.6 125.1,10.2 126.4,10.2 126.4,18.7 125.1,18.7 125.1,15.1 
						123.8,15.1 123.8,18.7 122.5,18.7 122.5,10.2 					"/>
					<path class="st0" d="M129.1,16.8l-0.3,1.9h-1.2l1.4-8.5h1.5l1.3,8.5h-1.2l-0.3-1.9H129.1z M130.1,15.5l-0.2-1.8
						c-0.1-0.5-0.2-1.4-0.2-1.9h0c-0.1,0.6-0.2,1.4-0.2,1.9l-0.2,1.8H130.1z"/>
					<path class="st0" d="M133,18.7v-8.5h1.1l1,3.3c0.2,0.7,0.5,1.7,0.7,2.5h0c0-0.9-0.1-2.4-0.1-3.9v-1.9h1.1v8.5h-1.2l-1-3.2
						c-0.2-0.7-0.5-1.8-0.7-2.6h0c0,0.9,0.1,2.2,0.1,3.9v1.9H133z"/>
					<path class="st0" d="M139.3,18.7v-3.2l-1.4-5.2h1.3l0.4,2c0.1,0.5,0.2,1.2,0.3,1.8h0c0.1-0.6,0.2-1.2,0.3-1.8l0.4-2h1.3
						l-1.4,5.2v3.3H139.3z"/>
					<path class="st0" d="M143.8,16.8l-0.3,1.9h-1.2l1.4-8.5h1.5l1.3,8.5h-1.2l-0.3-1.9H143.8z M144.8,15.5l-0.2-1.8
						c-0.1-0.5-0.2-1.4-0.2-1.9h0c-0.1,0.6-0.2,1.4-0.2,1.9l-0.2,1.8H144.8z"/>
					<path class="st0" d="M147.7,18.7v-8.5h1.2l1,3.3c0.2,0.7,0.5,1.7,0.7,2.5h0c0-0.9-0.1-2.4-0.1-3.9v-1.9h1.1v8.5h-1.2l-1-3.2
						c-0.2-0.7-0.5-1.8-0.7-2.6h0c0,0.9,0.1,2.2,0.1,3.9v1.9H147.7z"/>
					<path class="st0" d="M156.9,18.5c-0.3,0.2-0.9,0.3-1.3,0.3c-0.7,0-1.3-0.3-1.7-0.8c-0.6-0.7-0.9-2-0.8-3.4
						c0-3.1,1.4-4.4,2.7-4.4c0.5,0,0.9,0.1,1.1,0.2l-0.2,1.4c-0.2-0.1-0.4-0.2-0.7-0.2c-0.9,0-1.5,0.8-1.5,3c0,2,0.6,2.8,1.2,2.8
						c0.1,0,0.2,0,0.2,0v-2.1h-0.6v-1.3h1.7V18.5z"/>
					<path class="st0" d="M161.7,10.2v5.5c0,1.2,0.3,1.6,0.6,1.6c0.4,0,0.6-0.3,0.6-1.6v-5.5h1.3v5.2c0,2.2-0.6,3.4-1.9,3.4
						c-1.4,0-1.9-1.2-1.9-3.3v-5.2H161.7z"/>
					<path class="st0" d="M165.9,18.7v-8.5h1.2l1,3.3c0.2,0.7,0.5,1.7,0.7,2.5h0c0-0.9-0.1-2.4-0.1-3.9v-1.9h1.1v8.5h-1.2l-1-3.2
						c-0.2-0.7-0.5-1.8-0.7-2.6h0c0,0.9,0.1,2.2,0.1,3.9v1.9H165.9z"/>
					<rect x="171.4" y="10.2" class="st0" width="1.3" height="8.5"/>
					<path class="st0" d="M175.3,18.7l-1.4-8.5h1.4l0.5,3.7c0.1,0.9,0.2,2,0.3,2.9h0c0.1-1,0.2-2,0.3-3l0.4-3.6h1.4l-1.5,8.5H175.3z
						"/>
					<polygon class="st0" points="182.1,15 180.6,15 180.6,17.3 182.3,17.3 182.3,18.7 179.3,18.7 179.3,10.2 182.1,10.2 
						182.1,11.6 180.6,11.6 180.6,13.6 182.1,13.6 					"/>
					<path class="st0" d="M183.7,10.3c0.4-0.1,0.9-0.2,1.4-0.2c0.7,0,1.3,0.1,1.7,0.6c0.4,0.5,0.5,1,0.5,1.8c0,0.9-0.3,1.7-1,2.1v0
						c0.4,0.2,0.7,0.8,0.8,1.7c0.1,0.9,0.3,2,0.4,2.3h-1.3c-0.1-0.2-0.2-1.1-0.3-2c-0.1-1.1-0.3-1.4-0.7-1.4H185v3.4h-1.3V10.3z
						 M185,14h0.2c0.5,0,0.9-0.6,0.9-1.3c0-0.7-0.2-1.2-0.8-1.3c-0.1,0-0.2,0-0.3,0.1V14z"/>
					<path class="st0" d="M188.7,17c0.3,0.2,0.7,0.3,1.1,0.3c0.6,0,0.9-0.4,0.9-1c0-0.6-0.3-0.9-0.8-1.4c-0.9-0.7-1.2-1.6-1.2-2.4
						c0-1.4,0.7-2.5,2-2.5c0.4,0,0.8,0.1,1,0.3l-0.2,1.4c-0.2-0.2-0.5-0.3-0.8-0.3c-0.5,0-0.8,0.4-0.8,0.9c0,0.5,0.2,0.8,0.9,1.3
						c0.9,0.7,1.2,1.5,1.2,2.4c0,1.5-0.9,2.6-2.1,2.6c-0.5,0-1-0.2-1.2-0.3L188.7,17z"/>
					<rect x="193.2" y="10.2" class="st0" width="1.3" height="8.5"/>
					<polygon class="st0" points="196.9,11.7 195.7,11.7 195.7,10.2 199.3,10.2 199.3,11.7 198.1,11.7 198.1,18.7 196.9,18.7 					
						"/>
					<path class="st0" d="M201.6,18.7v-3.2l-1.4-5.2h1.3l0.4,2c0.1,0.5,0.2,1.2,0.3,1.8h0c0.1-0.6,0.2-1.2,0.3-1.8l0.4-2h1.3
						l-1.4,5.2v3.3H201.6z"/>
				</g>
				<g>
					<path class="st0" d="M136.9,31.9c0.3,0.2,0.7,0.3,1.1,0.3c0.6,0,0.9-0.4,0.9-1c0-0.6-0.3-0.9-0.8-1.4c-0.9-0.7-1.2-1.6-1.2-2.4
						c0-1.4,0.7-2.5,2-2.5c0.4,0,0.8,0.2,1,0.3l-0.2,1.4c-0.2-0.2-0.5-0.3-0.8-0.3c-0.5,0-0.8,0.4-0.8,0.9c0,0.5,0.2,0.8,0.9,1.3
						c0.8,0.7,1.2,1.5,1.2,2.4c0,1.5-0.9,2.6-2.1,2.6c-0.5,0-1-0.2-1.2-0.3L136.9,31.9z"/>
					<polygon class="st0" points="144.1,29.9 142.6,29.9 142.6,32.2 144.3,32.2 144.3,33.6 141.3,33.6 141.3,25.1 144.1,25.1 
						144.1,26.6 142.6,26.6 142.6,28.5 144.1,28.5 					"/>
					<path class="st0" d="M149.5,29.2c0,3.2-0.9,4.5-2.1,4.5c-1.5,0-2-2-2-4.4c0-2.3,0.7-4.3,2.1-4.3C149,25,149.5,27.3,149.5,29.2
						 M146.7,29.4c0,1.9,0.3,2.9,0.8,2.9c0.5,0,0.7-1.3,0.7-3c0-1.5-0.2-2.8-0.7-2.8C146.9,26.5,146.7,27.5,146.7,29.4"/>
					<path class="st0" d="M152.1,25.1v5.5c0,1.2,0.3,1.6,0.6,1.6c0.4,0,0.6-0.3,0.6-1.6v-5.5h1.2v5.2c0,2.2-0.6,3.3-1.9,3.3
						c-1.3,0-1.9-1.2-1.9-3.3v-5.2H152.1z"/>
					<polygon class="st0" points="156.2,25.1 157.4,25.1 157.4,32.2 159.1,32.2 159.1,33.6 156.2,33.6 					"/>
					<path class="st0" d="M166.7,25.1h1.3v3.8h0c0.1-0.3,0.2-0.7,0.3-1.1l0.9-2.7h1.4l-1.4,3.7l1.5,4.8h-1.4l-0.9-3.5l-0.3,0.7v2.8
						h-1.3V25.1z"/>
					<path class="st0" d="M175.3,29.2c0,3.2-0.9,4.5-2.1,4.5c-1.5,0-2-2-2-4.4c0-2.3,0.7-4.3,2.1-4.3
						C174.9,25,175.3,27.3,175.3,29.2 M172.5,29.4c0,1.9,0.3,2.9,0.8,2.9c0.5,0,0.7-1.3,0.7-3c0-1.5-0.2-2.8-0.7-2.8
						C172.8,26.5,172.5,27.5,172.5,29.4"/>
					<path class="st0" d="M176.7,25.2c0.4-0.1,0.9-0.2,1.4-0.2c0.7,0,1.3,0.1,1.7,0.6c0.4,0.5,0.5,1,0.5,1.8c0,0.9-0.3,1.7-1,2.1v0
						c0.4,0.2,0.7,0.8,0.8,1.7c0.1,0.9,0.3,2,0.4,2.3h-1.3c-0.1-0.2-0.2-1.1-0.3-2c-0.1-1.1-0.3-1.4-0.7-1.4h-0.2v3.4h-1.2V25.2z
						 M177.9,28.9h0.2c0.5,0,0.9-0.6,0.9-1.3c0-0.7-0.2-1.2-0.8-1.3c-0.1,0-0.2,0-0.3,0.1V28.9z"/>
					<polygon class="st0" points="184.8,29.9 183.4,29.9 183.4,32.2 185,32.2 185,33.6 182.1,33.6 182.1,25.1 184.9,25.1 
						184.9,26.6 183.4,26.6 183.4,28.5 184.8,28.5 					"/>
					<path class="st0" d="M187.5,31.6l-0.3,1.9H186l1.4-8.5h1.5l1.3,8.5h-1.2l-0.3-1.9H187.5z M188.5,30.4l-0.2-1.8
						c-0.1-0.5-0.2-1.4-0.2-1.9h0c-0.1,0.6-0.2,1.4-0.2,1.9l-0.2,1.8H188.5z"/>
				</g>
			</g>
		</g>
	</g>
	<g>
		<path class="st0" d="M161.3,33.5L161.3,33.5c-0.3,0-0.5-0.2-0.5-0.5c0-0.2,0.1-0.3,0.2-0.4c0.1-0.1,0.2-0.2,0.4-0.2
			c0.2,0,0.4,0.1,0.5,0.2c0.1,0.2,0.2,0.4,0.2,0.6c0,0.4-0.1,0.7-0.3,0.9c-0.2,0.2-0.5,0.4-0.8,0.5v-0.2c0.3-0.2,0.4-0.5,0.4-0.8
			C161.3,33.6,161.3,33.6,161.3,33.5z"/>
	</g>
</g>
</svg>
