<?xml version="1.0" encoding="UTF-8"?>
<svg id="_레이어_1" data-name="레이어 1" xmlns="http://www.w3.org/2000/svg" viewBox="0 0 190.24 60">
  <defs>
    <style>
      .cls-1 {
        fill: #fff;
      }
    </style>
  </defs>
  <path class="cls-1" d="m76.9,40.13v-8.71h-8.2v8.71h-3.64v-20h3.64v7.82h8.2v-7.82h3.64v20h-3.64Z"/>
  <path class="cls-1" d="m84.33,40.13v-20h13.65v3.3h-10.01v4.66h8.75v3.27h-8.75v5.47h10.01v3.3h-13.65Z"/>
  <path class="cls-1" d="m112.67,40.13l-4.48-7.27-4.49,7.27h-3.92l6.29-10.18-6.23-9.82h3.97l4.48,7,4.35-7h3.95l-6.15,9.85,6.23,10.15h-4.01Z"/>
  <path class="cls-1" d="m131.11,40.13l-1.3-3.84h-7.95l-1.3,3.84h-3.67l7.02-20h3.98l7.02,20h-3.8Zm-5.27-15.54l-2.85,8.44h5.69l-2.85-8.44Z"/>
  <path class="cls-1" d="m151.31,40.13l-2.11-2.2c-.6,1.16-2.51,2.54-5.02,2.57-2.31.03-4.37-.56-5.95-2.23-2.08-2.17-2.59-4.85-2.59-8.12s.42-5.86,2.59-8.04c1.52-1.52,3.81-2.34,5.95-2.34,2.45,0,4.57.91,5.92,2.29.99,1.01,1.72,2.29,1.83,4.03h-3.73c-.06-.79-.45-1.32-.87-1.84-.7-.82-1.8-1.21-3.19-1.21-1.16,0-2.49.51-3.28,1.35-1.38,1.44-1.55,3.92-1.55,5.75s.2,4.4,1.58,5.84c.79.84,2.09,1.27,3.25,1.27,1.29,0,2.31-.45,2.99-1.16,1.07-1.13,1.29-2.37,1.29-3.89h-4.77v-3.02h8.29v10.94h-.65Z"/>
  <path class="cls-1" d="m168.93,38.24c-1.52,1.52-3.61,2.26-5.75,2.26s-4.23-.73-5.75-2.26c-2.17-2.17-2.54-4.82-2.54-8.09s.37-5.95,2.54-8.12c1.52-1.52,3.61-2.26,5.75-2.26s4.23.74,5.75,2.26c2.17,2.17,2.54,4.85,2.54,8.12s-.37,5.92-2.54,8.09Zm-2.59-13.85c-.79-.84-2.01-1.32-3.16-1.32s-2.37.48-3.16,1.32c-1.38,1.44-1.44,3.92-1.44,5.75s.06,4.29,1.44,5.73c.79.85,2.01,1.32,3.16,1.32s2.37-.48,3.16-1.32c1.38-1.44,1.44-3.89,1.44-5.73s-.06-4.31-1.44-5.75Z"/>
  <path class="cls-1" d="m186.49,40.13l-8.66-13.73v13.73h-3.58v-20h3.86l8.54,13.54v-13.54h3.58v20h-3.75Z"/>
  <path class="cls-1" d="m26.2,29.07V0L.42,14.88l-.33.2-.08.05v29.88s16.52,0,16.52,0l8.5,15,26.01-15.02V14.73l-24.83,14.34Zm-1.71,15.93v10.58l-5.99-10.58h5.99Zm-11.88-6.91l3.33,5.88H2.43s10.19-5.88,10.19-5.88Zm-2.88-8.56L24.49,3.99v26.07l-10.9,6.29-3.86-6.81Zm-.59-1.03L2.03,15.94,23.6,3.48l-14.45,25.03Zm-.41,2.75l3.37,5.95-10.2,5.89,6.83-11.83Zm-.59-1.03l-7.13,12.35v-24.94l7.13,12.59Zm16.33,13.75h-6.57l-3.82-6.74,10.39-6v12.74Zm9.91,1.02h13.18l-19.86,11.47,6.69-11.47Zm-8.2-1.02v-13.72l22.33-12.89-15.52,26.62h-6.81Zm0,1.02h6.21l-6.21,10.66v-10.66Zm23.12-1.02h-14.32l14.32-24.56v24.56Z"/>
</svg>