<?xml version="1.0" encoding="UTF-8"?><svg id="_이어_1" xmlns="http://www.w3.org/2000/svg" viewBox="0 0 203.83 36.12"><defs><style>.cls-1{fill:#fff;fill-rule:evenodd;}</style></defs><polygon class="cls-1" points="184.7 27.56 192.44 27.56 192.44 0 184.7 0 184.7 27.56 184.7 27.56 184.7 27.56"/><polygon class="cls-1" points="203.83 0 203.83 27.56 196.08 27.56 196.08 0 203.83 0 203.83 0 203.83 0"/><polygon class="cls-1" points="16.51 10.7 10.25 10.7 10.25 0 0 0 0 27.56 10.25 27.56 10.25 13.89 16.51 13.89 16.51 27.56 26.76 27.56 26.76 0 16.51 0 16.51 10.7 16.51 10.7 16.51 10.7"/><path class="cls-1" d="M64.63,10.25l-.62-1.81h-8.43V27.58h8.43v-11.52h0c0-2.51,1.59-3.87,2.96-3.87,1.14,0,2.62,.23,2.62,2.73h0v12.64h8.41V15.16h0c0-6.95-7.8-9.68-13.38-4.9l.02-.02Z"/><path class="cls-1" d="M151.16,19.53l-3.93-11.1h-5.75l-3.92,11.56-4.1-11.55h-11.28l-4.04,9.75-5.69-9.75h-9.62l11.33,19.37-1.48,3.64h0c-.51,1.14-1.74,1.2-1.98,.11,0-1.96-1.59-3.54-3.54-3.54-1.95,0-3.54,1.59-3.54,3.54,0,2.05,2.06,4.73,6.11,4.56,4.04-.17,5.75-3.53,6.32-4.95h0l9.37-22.64,6.74,19.04h6.14l3.76-10.99,3.87,10.99h5.81l6.55-19.14h-3.36l-3.74,11.11Z"/><path class="cls-1" d="M41.28,7.46c-6.45,0-11.67,4.79-11.67,10.71s5.22,10.72,11.67,10.72,11.68-4.79,11.68-10.71-5.23-10.71-11.68-10.71h0Zm2.89,15.71c0,1.6-1.3,2.9-2.9,2.9s-2.9-1.3-2.9-2.9h0V13.15h0c0-1.6,1.3-2.9,2.9-2.9s2.9,1.3,2.9,2.9h0v10.02Z"/><path class="cls-1" d="M103.76,19.7c.06-.51,.09-1.02,.09-1.54,0-5.91-5.23-10.71-11.68-10.71s-11.67,4.79-11.67,10.7,5.22,10.72,11.67,10.72c4.43,0,8.28-2.27,10.26-5.6h0l-2.58-.96h0c-1.73,2.53-4.62,4.02-7.68,3.97-1.6,0-2.91-1.52-2.91-3.12h0v-3.48h14.49Zm-14.49-6.55c0-1.6,1.3-2.9,2.9-2.9s2.9,1.3,2.9,2.9h0v3.82h-5.81v-3.82Z"/><path class="cls-1" d="M181.76,19.7c.06-.51,.09-1.02,.09-1.54,0-5.91-5.23-10.71-11.68-10.71s-11.68,4.79-11.68,10.7,5.23,10.72,11.68,10.72c4.43,0,8.29-2.27,10.26-5.6h0l-2.58-.96h0c-1.73,2.53-4.62,4.02-7.68,3.97-1.6,0-2.89-1.52-2.89-3.12h0v-3.48h14.47Zm-14.49-6.55c0-1.6,1.3-2.9,2.9-2.9s2.9,1.3,2.9,2.9h0v3.82h-5.81v-3.82Z"/></svg>