<?xml version="1.0" encoding="UTF-8"?><svg id="Layer_1" xmlns="http://www.w3.org/2000/svg" viewBox="0 0 210 26.75"><defs><style>.cls-1{fill:#fff;stroke-width:0px;}</style></defs><path class="cls-1" d="m11.61,10.79V.43h5.42v25.88h-5.42v-11.54h-6.2v11.54H0V.43h5.41v10.36h6.2Z"/><path class="cls-1" d="m29.74,22.87c-3.05,0-3.44-2.87-3.44-9.5s.39-9.5,3.44-9.5,3.44,2.87,3.44,9.5-.39,9.5-3.44,9.5Zm0,3.87c8.93,0,8.93-6.6,8.93-13.37S38.67,0,29.74,0s-8.92,6.53-8.92,13.37,0,13.37,8.92,13.37Z"/><path class="cls-1" d="m42.6,26.31V.43h7.32l6.88,17.92h.07V.43h5.05v25.88h-7.13l-7.07-18.93h-.07v18.93h-5.06Z"/><path class="cls-1" d="m78.34,8.39c.03-2.4-.36-4.52-3.23-4.52-3.37,0-3.37,4.55-3.37,9.57,0,8.1.79,9.53,3.88,9.53.89,0,1.86-.22,2.69-.5v-5.74h-2.94v-3.98h8.36v13.12c-1.47.29-5.16.86-7.32.86-9.1,0-10.15-3.76-10.15-13.59,0-6.53.33-13.16,9.18-13.16,5.31,0,8.6,2.97,8.28,8.39h-5.38Z"/><path class="cls-1" d="m88.22,26.31V.43h5.41v25.88h-5.41Z"/><path class="cls-1" d="m110.11.43h5.95l-7.25,11.62,7.25,14.26h-6.1l-6.2-13.26h-.07v13.26h-5.41V.43h5.41v11.08h.07L110.11.43Z"/><path class="cls-1" d="m147.71.43v18.35c0,3.87-2.18,7.96-8.78,7.96-5.96,0-8.82-3.08-8.82-7.96V.43h5.41v18c0,3.19,1.36,4.45,3.34,4.45,2.36,0,3.44-1.58,3.44-4.45V.43h5.41Z"/><path class="cls-1" d="m152.83,26.31V.43h7.31l6.89,17.92h.07V.43h5.06v25.88h-7.14l-7.06-18.93h-.07v18.93h-5.06Z"/><path class="cls-1" d="m177.38,26.31V.43h5.41v25.88h-5.41Z"/><path class="cls-1" d="m186.59.43h5.63l4.02,18.82h.07L200.83.43h5.34l-6.85,25.88h-6.34L186.59.43Z"/><path class="cls-1" d="m210,21.81v4.77h-4.34v-4.77h4.34Z"/></svg>