<?xml version="1.0" encoding="UTF-8"?><svg id="_이어_1" xmlns="http://www.w3.org/2000/svg" viewBox="0 0 173.98 50.57"><defs><style>.cls-1{fill:#fff;}</style></defs><rect class="cls-1" x="62.1" y="1.82" width="5.74" height="14.55"/><polygon class="cls-1" points="39.32 17.7 67.92 17.7 67.92 29.17 61.93 29.17 61.93 21.27 39.32 21.27 39.32 17.7"/><path class="cls-1" d="M38.49,8.8c0-4.29,4.32-7.76,9.64-7.76s9.64,3.47,9.64,7.76-4.32,7.76-9.64,7.76-9.64-3.47-9.64-7.76Zm9.64,0,0,3.88c2.27,0,4.12-1.74,4.12-3.88s-1.84-3.88-4.12-3.88-4.11,1.74-4.11,3.88,1.84,3.88,4.11,3.88Zm0-3.88"/><polygon class="cls-1" points="85.62 1.74 71.69 1.74 71.69 29.09 94.03 29.09 94.03 15.25 95.98 15.25 95.98 29.09 102.01 29.09 102.01 1.74 96.07 1.74 96.07 11.34 94.11 11.34 94.11 1.82 88.17 1.82 88.17 25.53 76.87 25.53 76.87 4.8 85.62 4.8 85.62 1.74"/><polygon class="cls-1" points="129.46 1.73 136.16 1.74 136.16 10.32 139.81 10.32 139.81 14.31 136.16 14.31 136.16 18.81 129.45 18.79 129.46 1.73"/><polygon class="cls-1" points="105.32 19.58 136.25 19.58 136.25 29.01 129.45 29.01 129.45 23.57 105.32 23.57 105.32 19.58"/><polygon class="cls-1" points="139.88 1.66 169.88 1.65 169.88 25.44 173.11 25.44 173.11 29.09 138.79 29.09 138.79 25.44 144.91 25.44 144.91 10.47 151.11 10.47 151.11 25.5 153.64 25.5 153.64 10.38 159.6 10.38 159.6 25.53 163.74 25.52 163.77 5.48 139.92 5.5 139.88 1.66"/><g><rect class="cls-1" x="106.68" y="1.66" width="17.75" height="3.39"/><path class="cls-1" d="M127.5,5.99h-24.03v3.57h4.13c-.84,.94-1.33,2.05-1.33,3.23,0,3.45,4.14,6.25,9.25,6.25s9.25-2.8,9.25-6.25c0-1.18-.49-2.29-1.33-3.23h4.06v-3.57Zm-8.37,6.8c0,2.06-1.61,3.72-3.6,3.72s-3.6-1.67-3.6-3.72c0-1.38,.73-2.58,1.81-3.23h3.58c1.08,.64,1.81,1.84,1.81,3.23Z"/></g><path class="cls-1" d="M36.16,2.4h-14.81V0h-6V2.4H.61l.05,3.57H4.94c-1.06,.81-1.68,1.72-1.68,2.66,0,2.78,5.32,5.31,11.3,6.06v.67H0v3.49H5.93c-2.2,1.25-3.51,2.84-3.51,4.57,0,4.03,7.11,7.29,15.87,7.29s15.87-3.26,15.87-7.29c0-1.73-1.32-3.32-3.51-4.57h5.43v-3.49h-14.55v-.65c6-.73,11.29-3.28,11.29-6.08,0-.95-.59-1.85-1.6-2.66h4.95V2.4ZM18.29,27.1c-5.45,0-9.88-1.79-9.88-4s4.42-4,9.88-4,9.88,1.79,9.88,4-4.42,4-9.88,4Zm-.05-15.7c-4.51,0-7.9-.95-7.9-2.77s3.26-2.64,7.77-2.64,7.5,.95,7.5,2.77-2.86,2.64-7.37,2.64Z"/><g><path class="cls-1" d="M7.42,41.93v-5.61h2.93v14.02h-2.93v-6.25h-3.36v6.26H1.13v-14.02h2.93v5.61h3.36Z"/><path class="cls-1" d="M17.24,48.47c-1.65,0-1.86-1.55-1.87-5.15,0-3.59,.21-5.15,1.86-5.15,1.65,0,1.87,1.55,1.87,5.15,0,3.59-.21,5.15-1.86,5.15Zm0,2.1c4.84,0,4.84-3.58,4.83-7.25,0-3.71,0-7.25-4.84-7.24-4.84,0-4.83,3.54-4.83,7.25,0,3.67,0,7.25,4.84,7.24Z"/><path class="cls-1" d="M24.21,50.33v-14.02h3.96l3.73,9.71h.04v-9.71h2.73v14.02h-3.86l-3.83-10.25h-.04v10.25h-2.74Z"/><path class="cls-1" d="M43.57,40.61c.02-1.3-.2-2.45-1.75-2.45-1.83,0-1.83,2.47-1.83,5.19,0,4.39,.43,5.16,2.1,5.16,.48,0,1.01-.12,1.46-.27v-3.11h-1.6v-2.15h4.53v7.11c-.79,.16-2.79,.47-3.96,.47-4.93,0-5.5-2.04-5.5-7.36,0-3.54,.18-7.13,4.97-7.13,2.88,0,4.66,1.61,4.49,4.54h-2.91Z"/><path class="cls-1" d="M48.93,50.32v-14.02h2.93v14.02h-2.93Z"/><path class="cls-1" d="M60.78,36.29h3.22l-3.92,6.3,3.93,7.73h-3.3l-3.36-7.18h-.04v7.19h-2.93v-14.02h2.93v6h.04l3.44-6Z"/><path class="cls-1" d="M82.18,36.29v9.94c0,2.1-1.18,4.31-4.75,4.31-3.23,0-4.78-1.67-4.78-4.31v-9.94h2.93v9.75c0,1.73,.74,2.41,1.81,2.41,1.28,0,1.86-.85,1.86-2.41v-9.75h2.93Z"/><path class="cls-1" d="M84.96,50.31v-14.02h3.96l3.73,9.71h.04v-9.71h2.74v14.02h-3.86l-3.83-10.25h-.04v10.25h-2.74Z"/><path class="cls-1" d="M98.26,50.3v-14.02h2.93v14.02h-2.93Z"/><path class="cls-1" d="M103.25,36.28h3.05l2.18,10.2h.04l2.45-10.2h2.89l-3.7,14.02h-3.44l-3.46-14.02Z"/><path class="cls-1" d="M115.72,50.3v-14.02h7.65v2.15h-4.72v3.46h4.35v2.15h-4.35v4.1h4.88v2.15h-7.81Z"/><path class="cls-1" d="M128.97,38.43h1.3c.93,0,1.5,.5,1.5,1.84,0,.89-.33,2.06-1.5,2.06h-1.3v-3.9Zm0,6.06h.76c2.25,0,2.1,1.42,2.1,3.09,0,.91-.08,1.87,.31,2.72h2.87c-.27-.58-.33-3.23-.33-4.12,0-2.52-1.9-2.68-2.55-2.76v-.04c1.9-.31,2.6-1.65,2.6-3.44,0-2.39-1.28-3.67-3.28-3.67h-5.42v14.03h2.94v-5.81Z"/><path class="cls-1" d="M140.89,50.52c-3.63,0-4.31-2.13-4.16-4.56h2.94c0,1.34,.06,2.46,1.67,2.46,.99,0,1.47-.64,1.47-1.59,0-2.52-5.91-2.67-5.91-6.85,0-2.19,1.05-3.94,4.62-3.94,2.85,0,4.27,1.28,4.08,4.21h-2.85c0-1.05-.18-2.12-1.36-2.12-.95,0-1.52,.53-1.52,1.5,0,2.66,5.91,2.43,5.91,6.84,0,3.63-2.66,4.06-4.89,4.06Z"/><path class="cls-1" d="M147.92,50.29v-14.02h2.93v14.02h-2.93Z"/><path class="cls-1" d="M162.24,36.26v2.33h-3.26v11.69h-2.93v-11.69h-3.27v-2.33h9.46Z"/><path class="cls-1" d="M167.12,45.42l-3.67-9.17h3.2l2.1,5.92,2.23-5.92h3l-3.92,9.17v4.85h-2.93v-4.85Z"/></g></svg>