<?xml version="1.0" encoding="UTF-8"?><svg id="_이어_1" xmlns="http://www.w3.org/2000/svg" viewBox="0 0 127.98 67.03"><defs><style>.cls-1{fill:#fff;}</style></defs><g><path class="cls-1" d="M11.35,44.31c-2.15-1-3.91-1.81-3.91-3.45,0-1.25,1-2.16,2.98-2.16,.73,0,1.32,.09,1.94,.2,.32,.06,.67,.1,.95,.1,1.73,0,2.71-1.03,3.36-2.99l.27-.8c-.28-.11-3.1-1.36-6.79-1.36-5.86,0-8.96,3.76-8.96,7.66,0,1.97,.62,3.39,1.58,4.52,1.24,1.44,3.02,2.39,4.67,3.2,2.42,1.19,4.6,2.06,4.6,3.82,0,1.56-1.61,2.45-3.76,2.45-2.95,0-5.53-1.69-5.86-1.89l-2.42,4.54c.43,.24,3.55,2.22,8.69,2.22,5.47,0,9.62-3.14,9.62-7.97s-3.84-6.58-6.95-8.09Z"/><path class="cls-1" d="M32.76,46.55l9.93-12.17h-7.07l-7.92,10.5h-.12v-10.5h-5.83v25.79h.35c2.52,0,5.52-1.17,5.52-5.38v-5.92h.12l8.07,10.98h7.42l-10.47-13.29Z"/></g><g><path class="cls-1" d="M43.02,6.75c-2.05,.39-5.1,2.25-5.09,5.55,0,2.99,2.45,4.81,2.46,8.73,.01,2.95-1.61,4.94-3.37,6.04,.71-.06,1.49-.1,2.35-.11,1.8,0,2.88,.17,2.95,.18l9.21-11.3c-2.56-3.83-5.54-6.8-8.51-9.08Z"/><path class="cls-1" d="M50.76,37.28c1.16-1.8,1.31-4.68,1.4-7.61,.11-2.73,.68-4.79,4.34-4.8,.81,0,1.58,.11,2.98,.1,5.36-.02,8.85-1.87,11.03-3.08-4.44-2.83-10.93-5.73-18.98-6.05-.53,1.48-4.6,12.82-4.91,13.74,.05,.05,.76,.85,1.65,2.42,1.32,2.14,2.02,3.96,2.49,5.29Z"/><path class="cls-1" d="M31.31,28.01c-.47,0-.7-.31-.76-.84-.06-.53-2.36-21.61-2.71-24.8-.05-.47-.17-1.32-.17-1.63C27.67,.26,27.99,0,28.37,0c1.09,0,7.04,1.39,13.35,5.81-1.82,.51-5.11,2.4-5.09,6.32,.01,3.47,2.49,5.37,2.51,8.85,.02,5.66-6.48,7.02-7.83,7.03Z"/><path class="cls-1" d="M51.29,38.78c.1,.26,.19,.48,.29,.64,.15,.24,.33,.36,.57,.36,.15,0,.33-.05,.53-.14,.49-.22,19.72-9.18,22.62-10.51,.42-.2,1.22-.56,1.48-.71,.27-.16,.4-.38,.4-.61,0-.13-.04-.26-.11-.38-.36-.59-2.22-2.56-5.33-4.72-2.47,1.36-6.33,3.46-12.06,3.49-1.41,0-1.72-.09-2.68-.09-2.8,0-3.5,1.21-3.6,3.66-.02,.46-.03,1.09-.05,1.77-.09,2.19-.35,5.22-2.03,7.25Z"/></g><g><path class="cls-1" d="M81.33,60.52c-2.13,5.77-4.88,6.52-7.24,6.52-1.67,0-2.89-.6-3.02-.66l.89-2.7c.07,.04,.97,.52,1.97,.52,1.88,0,3.05-1.04,4.09-4.3,0,0-6.37-13.87-6.44-14.04,.12-.04,.88-.27,1.75-.27,2.06,0,2.52,1.29,3.05,2.57,.45,1.08,3.38,8.16,3.38,8.16h.1l3.4-10.46h3.53l-5.45,14.66Z"/><path class="cls-1" d="M127.98,59.82l-4.93-7.16,4.83-7.01h-4.16l-3.36,5.14c-.91-1.42-1.76-2.76-2.02-3.18-.67-1.03-1.28-2.08-2.82-2.05-.2,0-.42,.02-.65,.07-.86,.16-1.56,.53-1.67,.58,.05,.09,2.36,3.36,4.58,6.54l-4.86,7.06h4.16l3.38-5.16,3.38,5.16h4.15Z"/><path class="cls-1" d="M89.64,50.46v9.39h3.52v-9.76c.19-.18,1.45-1.37,2.84-1.37,1.81,0,2.75,1.31,2.75,3.02v8.11h3.52v-8.99c0-4.27-3.28-5.21-5.12-5.21-2.2,0-3.77,1.39-4.24,1.85-.15-.57-.82-1.54-2.36-1.54-.54,0-1.25,.16-1.32,.18,.11,.53,.4,1.79,.4,4.32Z"/><g><path class="cls-1" d="M110.14,41.61c0,1.16-.97,2.11-2.17,2.11s-2.17-.94-2.17-2.11,.97-2.12,2.17-2.12,2.17,.95,2.17,2.12Z"/><rect class="cls-1" x="106.22" y="45.84" width="3.5" height="13.98"/></g><path class="cls-1" d="M60.32,47.46c.25-.21,2.04-1.88,4.54-1.88,2.74,0,4.76,1.43,4.76,4.9v9.36h-3.65v-8.36c0-1.54-.85-2.73-2.45-2.73s-2.82,1.21-3.19,1.51v9.58h-3.63v-21.35h.77c1.74,0,2.86,1.26,2.86,2.95v6.01Z"/></g></svg>