<?xml version="1.0" encoding="UTF-8"?><svg id="_이어_1" xmlns="http://www.w3.org/2000/svg" viewBox="0 0 206.2 28.36"><defs><style>.cls-1{fill:#fff;}</style></defs><g id="layer1"><g id="g63141"><path id="path52220-4" class="cls-1" d="M79.2,4v7.76h-8.79V4h-4.85V24.36h4.85v-8.2h8.79v8.2h4.85V4h-4.85Z"/><path id="path52222-4" class="cls-1" d="M101.81,4l-5.07,8.06-5.06-8.06h-5.72l8.37,13.3v7.06h4.84v-7.06l8.37-13.31h-5.72Z"/><path id="path52224-8" class="cls-1" d="M123.11,4v14.92c.01,.55-.43,1.01-.98,1.02-.02,0-.03,0-.05,0h-7.77V4h-4.84V24.36h14.32c1.27,0,2.3-.38,3.05-1.13s1.11-1.77,1.11-3.04V4h-4.85Z"/><path id="path52226-8" class="cls-1" d="M146.76,4h-14.31V24.36h4.82V8.41h7.77c.56,0,1.01,.43,1.02,.99,0,0,0,.02,0,.03v14.93h4.84V8.17c0-1.28-.38-2.3-1.12-3.04-.74-.74-1.77-1.13-3.05-1.13"/><path id="path52228-2" class="cls-1" d="M169.73,4h-14.3V24.36h14.32c1.28,0,2.29-.38,3.03-1.13,.74-.75,1.13-1.77,1.13-3.04V8.17c0-1.28-.37-2.3-1.13-3.04-.76-.74-1.76-1.13-3.03-1.13m-.7,5.47v9.43c.02,.56-.43,1.03-.99,1.05-.01,0-.03,0-.04,0h-7.76V8.41h7.73c.56-.03,1.03,.41,1.06,.97,0,.03,0,.06,0,.09"/><path id="path52230-5" class="cls-1" d="M182.33,4c-1.27,0-2.3,.37-3.04,1.13-.74,.76-1.12,1.77-1.12,3.04V24.36h4.82v-6.3h8.79v6.3h4.84V4h-14.3Zm9.47,4.41v5.25h-8.79v-4.21c0-.57,.46-1.03,1.03-1.04h7.76Z"/><path id="path52232-2" class="cls-1" d="M201.36,24.36h4.84V4h-4.84V24.36Z"/><path id="path52234-4" class="cls-1" d="M27.69,28.36c15.3,0,27.7-6.35,27.7-14.18S42.99,0,27.69,0,0,6.35,0,14.18s12.4,14.18,27.69,14.18m5.21-6.96c-.46,1.07-1.26,3.36-3.08,4.25-.58,.27-1.2,.42-1.84,.43h-.28c-4.69,.04-9.35-.61-13.85-1.92-.03,0-.12-.05-.15-.06-.37-.12-.57-.28-.57-.5,.01-.17,.09-.34,.23-.45l.25-.22c.92-.77,3.69-2.77,8.91-4.77,1.83-.69,4.12-1.57,6.52-2.08,1.42-.28,6.62-1.09,3.87,5.31m13.99-14.29c.09-.19,.27-.31,.48-.32,.2,0,.4,.06,.57,.19,3.25,2,5.18,4.5,5.18,7.21,0,4.89-6.29,9.09-15.28,10.93-.57,.12-.96,.11-1.09-.03-.09-.09-.12-.25,0-.44,.07-.12,.15-.23,.24-.33,4.89-5.77,8.62-14.28,9.68-16.73,.08-.17,.16-.34,.22-.45m-24.34-.18c.47-1.07,1.27-3.36,3.09-4.27,.58-.27,1.21-.41,1.85-.43h.28c5.11,0,9.87,.71,13.86,1.92,.03,0,.12,.05,.15,.06,.37,.12,.57,.28,.57,.5-.01,.17-.09,.33-.23,.45-.06,.06-.14,.13-.25,.22-.92,.77-3.69,2.77-8.91,4.77-1.84,.7-4.12,1.57-6.52,2.08-1.42,.3-6.63,1.09-3.87-5.31m-5.02-3.69c.57-.11,.96-.11,1.1,.03,.1,.13,.1,.31,0,.44-.07,.12-.15,.23-.24,.33-4.91,5.79-8.64,14.29-9.7,16.75-.08,.17-.16,.34-.22,.45-.08,.18-.26,.31-.46,.33-.2,0-.4-.07-.57-.19-3.26-2-5.19-4.5-5.19-7.21,0-4.89,6.28-9.1,15.27-10.93"/></g></g></svg>