<?xml version="1.0" encoding="UTF-8"?><svg id="Layer_1" xmlns="http://www.w3.org/2000/svg" viewBox="0 0 210 41.08"><defs><style>.cls-1{fill:#fff;stroke-width:0px;}</style></defs><path class="cls-1" d="m106.45,4.6c-4.85,0-9.1,2.55-11.49,6.38v-6.38h-11.14c-4.65,0-8.76,2.33-11.19,5.9v-5.9h-8.3v26.95h8.3v-5.89c2.43,3.57,6.54,5.91,11.19,5.91h.73s10.41,0,10.41,0v-6.38c2.39,3.83,6.63,6.38,11.49,6.38h.73s13.98,0,13.98,0v-7.3h-14.13.01c-2.05,0-3.87-1-4.99-2.54h19.11v-7.3h-19.09c1.13-1.53,2.93-2.52,4.97-2.52h.94s13.18-.01,13.18-.01v-7.3h-14.72Zm-22.05,19.67h.01c-3.41,0-6.18-2.76-6.18-6.17s2.77-6.19,6.18-6.19h.94s9.08-.01,9.08-.01c-.96,1.85-1.51,3.95-1.51,6.18s.55,4.34,1.51,6.19h-10.04Z"/><path class="cls-1" d="m200,5.06l-.5-.12c-2.03-.48-4.15-.74-6.33-.74s-4.37.26-6.43.76l-.36.09c-3.27.86-6.05,2.91-7.85,5.66v-6.12h-14.71c-6.32,0-11.62,4.32-13.1,10.18-1.48-5.86-6.77-10.18-13.1-10.18h-1.46s-13.26,0-13.26,0v7.3h14.12c3.41.01,6.18,2.78,6.18,6.2s-2.77,6.17-6.18,6.17h.01-14.13v.17h0v16.64h8.3v-9.51h6.41c6.33,0,11.62-4.32,13.1-10.18,1.48,5.86,6.77,10.18,13.1,10.18h.73s13.98,0,13.98,0v-6.1c1.8,2.75,4.58,4.8,7.85,5.66l.36.09c2.06.5,4.21.76,6.43.76s4.3-.26,6.33-.74l.5-.12c5.76-1.54,10-6.77,10-13.02v-.02c0-6.25-4.24-11.48-10-13.02Zm-22.17,19.2h-13.44.01c-3.41,0-6.18-2.76-6.18-6.17s2.77-6.19,6.18-6.19h.94s12.5,0,12.5,0c-.96,1.85-1.51,3.95-1.51,6.18v.02c0,2.23.55,4.32,1.5,6.17Zm24.23-6.15c0,2.84-1.92,5.23-4.53,5.96-.28.08-.57.12-.85.17-1.14.2-2.32.31-3.52.31s-2.36-.11-3.5-.31l-.9-.18c-2.6-.73-4.51-3.12-4.51-5.95v-.02c0-2.84,1.92-5.23,4.53-5.96.28-.08.57-.12.85-.17,1.14-.2,2.32-.31,3.52-.31s2.36.11,3.5.31l.9.18c2.6.73,4.51,3.12,4.51,5.95v.02Z"/><path class="cls-1" d="m54.56,11.76l-26.6,20.55c2.83,1.92,6.25,3.05,9.93,3.05,9.77,0,17.68-7.92,17.68-17.68,0-2.08-.36-4.07-1.02-5.92Z"/><path class="cls-1" d="m27.79,7.04l2.61-1.65L38.91.03c-.34-.02-.68-.03-1.02-.03-1.09,0-2.15.1-3.18.29l-4.96,4.48-1.97,1.78-6.14,4.15L1.33,24.42c.29.7.62,1.38.99,2.03l18.77-14.3,6.69-5.1Z"/><path class="cls-1" d="m17.68,0C7.92,0,0,7.92,0,17.68c0,2.08.36,4.07,1.02,5.92L27.61,3.05c-2.83-1.92-6.25-3.05-9.93-3.05Z"/><path class="cls-1" d="m27.79,14.3l5.99-3.95,12.5-8.24c-.73-.4-1.5-.74-2.29-1.03l-10.66,8.37-5.54,4.35-7.54,5.05-15.78,10.58c.5.56,1.03,1.09,1.6,1.59l14.29-11,7.43-5.71Z"/><path class="cls-1" d="m27.79,17.93l7.02-4.67,14.12-9.4c-.61-.49-1.25-.93-1.92-1.34l-12.5,9.69-6.72,5.21-7.02,4.67-14.12,9.4c.61.49,1.25.93,1.92,1.34l12.5-9.69,6.72-5.21Z"/><path class="cls-1" d="m27.79,21.56l7.54-5.05,15.78-10.57c-.5-.56-1.03-1.09-1.6-1.59l-14.3,10.99-7.42,5.71-5.99,3.95-12.5,8.25c.73.4,1.5.74,2.29,1.03l10.66-8.37,5.55-4.36Z"/><path class="cls-1" d="m27.79,10.68l4.52-2.93L43.05.76c-.9-.28-1.84-.48-2.8-.61l-8.49,6.82-3.97,3.19-7.4,4.98L2.69,27.07c.4.63.83,1.24,1.3,1.81l16.26-12.44,7.53-5.76Z"/><path class="cls-1" d="m27.79,25.19l7.4-4.98,17.7-11.91c-.4-.63-.83-1.24-1.3-1.81l-16.26,12.43-7.53,5.76-4.52,2.94-10.74,6.98c.9.27,1.84.48,2.8.61l8.49-6.83,3.97-3.19Z"/><path class="cls-1" d="m54.25,10.95c-.29-.7-.62-1.38-.99-2.03l-18.77,14.29-6.69,5.1-2.62,1.65-8.52,5.37c.34.02.68.03,1.03.03,1.09,0,2.16-.1,3.2-.29l4.94-4.48,1.97-1.78,6.14-4.15,20.31-13.72Z"/></svg>