<?xml version="1.0" encoding="UTF-8"?><svg id="_이어_1" xmlns="http://www.w3.org/2000/svg" viewBox="0 0 213.8 27.28"><defs><style>.cls-1{fill:#fff;}</style></defs><path class="cls-1" d="M31.42,5.72c-.93,0-1.75,.49-2.21,1.23V1.93h-5.14V22.64H6.9v-3.75H1.76v3.79c0,2.15,1.75,3.9,3.9,3.9H29.2v-3.66h0V9.72c.46,.73,1.28,1.23,2.21,1.23,1.44,0,2.61-1.17,2.61-2.61s-1.17-2.61-2.61-2.61Z"/><path class="cls-1" d="M66.04,6.74v-.12c0-2.15-1.75-3.9-3.9-3.9h-23.23v3.93h22v3.2h-23.62v3.93h13.14c-.34,.44-.55,.99-.55,1.59s.22,1.18,.58,1.63h-11.55v3.93h22v5.66h5.14v-5.69c0-2.15-1.75-3.9-3.9-3.9h-7.62c.36-.45,.58-1.01,.58-1.63s-.21-1.14-.55-1.59h13.14v-3.93h-1.65v-3.11Z"/><path class="cls-1" d="M174.04,6.74v-.12c0-2.15-1.75-3.9-3.9-3.9h-23.23v3.93h22v4.54h-7.88c.3-.41,.48-.91,.48-1.45,0-1.37-1.11-2.48-2.48-2.48s-2.48,1.11-2.48,2.48c0,.55,.18,1.05,.48,1.45h-11.74v3.93h10.2c-1.3,1.29-2.1,3.07-2.1,5.05,0,3.93,3.18,7.11,7.11,7.11s7.11-3.18,7.11-7.11c0-1.97-.8-3.76-2.1-5.05h10.2v-3.93h-1.65V6.74Zm-13.56,15.95c-1.39,0-2.52-1.13-2.52-2.52s1.13-2.52,2.52-2.52,2.52,1.13,2.52,2.52-1.13,2.52-2.52,2.52Z"/><polygon class="cls-1" points="77.68 16.17 83.4 6.64 89.08 16.16 94.22 16.16 88.54 6.64 93.66 6.64 93.66 2.7 73.11 2.7 73.11 6.64 78.26 6.64 72.54 16.17 77.68 16.17"/><path class="cls-1" d="M102.32,1.93h-5.14v6.73c-.46-.73-1.28-1.23-2.21-1.23-1.44,0-2.61,1.17-2.61,2.61s1.17,2.61,2.61,2.61c.93,0,1.74-.49,2.21-1.23v11.2h-17.16v-4.29h-5.14v4.32c0,2.15,1.75,3.9,3.9,3.9h23.54v-3.93h0V1.93Z"/><path class="cls-1" d="M133.81,5.23c-.44-.68-1.21-1.13-2.08-1.13-1.37,0-2.48,1.11-2.48,2.48s1.11,2.48,2.48,2.48c.87,0,1.63-.45,2.08-1.13v3.36c-.44-.68-1.21-1.13-2.08-1.13-1.37,0-2.48,1.11-2.48,2.48s1.11,2.48,2.48,2.48c.87,0,1.63-.45,2.08-1.13v3.62h-22.27v3.93h22.27v5.01h5.14V1.93h-5.14v3.3Z"/><path class="cls-1" d="M211.18,7.41c-.93,0-1.75,.49-2.21,1.23V1.93h-5.14V26.58h5.14V11.42c.46,.73,1.28,1.23,2.21,1.23,1.44,0,2.61-1.17,2.61-2.61s-1.17-2.61-2.61-2.61Z"/><path class="cls-1" d="M3.98,12.6c0,3.48,2.82,6.29,6.29,6.29s6.29-2.82,6.29-6.29c0-1.56-.57-2.99-1.52-4.09h5.5v-3.94H11.63c.68-.44,1.13-1.21,1.13-2.08,0-1.37-1.11-2.48-2.48-2.48s-2.48,1.11-2.48,2.48c0,.87,.45,1.63,1.13,2.08H0v3.94H5.5c-.94,1.1-1.52,2.53-1.52,4.09Zm6.29-2.23c1.23,0,2.23,1,2.23,2.23s-1,2.23-2.23,2.23-2.23-1-2.23-2.23,1-2.23,2.23-2.23Z"/><polygon class="cls-1" points="192.91 2.71 189.83 2.71 187.77 2.71 180.5 15.13 185.64 15.13 191.37 5.34 197.04 15.12 202.19 15.12 194.98 2.71 192.91 2.71"/><path class="cls-1" d="M113.69,16.16h14.7v-3.63h-13.46v-1.28h13.45v-.85h0v-3.79l-.02-.27c0-2.01-1.63-3.63-3.63-3.63h-14.95v3.63h13.46v1.28h-13.47v3.63h.01v1.02l.02,.27c0,2.01,1.62,3.63,3.63,3.63h.26Z"/></svg>