<?xml version="1.0" encoding="UTF-8"?><svg id="Layer_1" xmlns="http://www.w3.org/2000/svg" viewBox="0 0 210 43.25"><defs><style>.cls-1{fill:#fff;stroke-width:0px;}</style></defs><path class="cls-1" d="m101.74,17.52h-2.4s-3.54,3.69-4.03,4.2v-4.2h-1.74v10.56h1.74v-5.16c.5.58,4.48,5.16,4.48,5.16h2.44s-5.03-5.59-5.23-5.81c.21-.21,4.75-4.75,4.75-4.75Z"/><path class="cls-1" d="m106.04,20.43c-2.28,0-3.7,1.5-3.7,3.93s1.42,3.93,3.7,3.93,3.71-1.51,3.71-3.93-1.42-3.93-3.71-3.93Zm0,6.56c-1.3,0-1.96-.88-1.96-2.63,0-1.2.34-2.63,1.96-2.63s1.96,1.43,1.96,2.63-.34,2.63-1.96,2.63Z"/><rect class="cls-1" x="153.2" y="20.64" width="1.67" height="7.44"/><rect class="cls-1" x="153.13" y="17.52" width="1.93" height="1.79"/><rect class="cls-1" x="156.84" y="17.52" width="1.67" height="10.56"/><path class="cls-1" d="m168.81,20.43c-2.28,0-3.7,1.5-3.7,3.93s1.42,3.93,3.7,3.93,3.7-1.51,3.7-3.93-1.42-3.93-3.7-3.93Zm0,6.56c-1.62,0-1.96-1.43-1.96-2.63s.34-2.63,1.96-2.63,1.96,1.43,1.96,2.63-.34,2.63-1.96,2.63Z"/><path class="cls-1" d="m188.31,26.66v-9.13h-1.67v3.77c-.45-.54-1.17-.86-2.08-.86-2.47,0-3.35,2.12-3.35,3.93s.81,3.93,3.11,3.93c1.05,0,1.83-.37,2.33-1.05.01.31.04.84.04.84h1.7s-.08-.86-.08-1.42Zm-1.66-2.31c0,1.23-.32,2.69-1.85,2.69-1.36,0-1.85-1.39-1.85-2.69,0-1.21.32-2.66,1.85-2.66,1.36,0,1.85,1.37,1.85,2.66Z"/><path class="cls-1" d="m142.64,40.5c-.06.93-.54,1.45-1.35,1.45-1.08,0-1.62-.89-1.62-2.63s.55-2.63,1.62-2.63c.79,0,1.23.46,1.3,1.37v.15h1.68v-.17c-.08-1.58-1.23-2.65-2.88-2.65-2.14,0-3.46,1.53-3.46,3.99s1.22,3.87,3.35,3.87c1.7,0,2.92-1.09,3.04-2.73v-.17s-1.66,0-1.66,0v.15Z"/><rect class="cls-1" x="157.63" y="32.48" width="1.74" height="10.56"/><path class="cls-1" d="m164.96,35.39c-.68,0-1.49.32-2.02.97v-.76h-1.64v7.44h1.67v-4.03c0-1.27.31-1.58.49-1.76.53-.53,1.19-.5,1.2-.5,1.01,0,1.48.52,1.48,1.65v4.64h1.67v-5.08c0-2.44-2.38-2.57-2.86-2.57Z"/><rect class="cls-1" x="181.76" y="35.6" width="1.67" height="7.44"/><rect class="cls-1" x="181.75" y="32.48" width="1.93" height="1.79"/><path class="cls-1" d="m112.82,21.46v-.82h-1.67v7.44h1.67v-3.69c0-.95.1-1.49.45-1.83.76-.75,2.13-.4,2.13-.4v-1.6l-.63-.02c-.86,0-1.56.35-1.95.92Z"/><path class="cls-1" d="m162.15,21.46v-.82h-1.67v7.44h1.67v-3.69c0-.95.1-1.49.45-1.83.76-.75,2.13-.4,2.13-.4v-1.6l-.63-.02c-.86,0-1.56.35-1.95.92Z"/><path class="cls-1" d="m134.97,36.42v-.82h-1.67v7.44h1.67v-3.69c0-.95.1-1.49.45-1.83.76-.75,2.13-.4,2.13-.4v-1.6l-.63-.02c-.86,0-1.56.35-1.95.92Z"/><path class="cls-1" d="m122.71,23.95c0-2.65-1.67-3.52-3.29-3.52-2.14,0-3.47,1.53-3.47,3.99s1.22,3.87,3.35,3.87c3.28,0,3.35-2.74,3.35-2.74h-1.74s0,.68-.45,1.11c-.24.23-.64.34-1.14.34-.6,0-1.66-.34-1.63-2.21h5.02v-.82Zm-3.36-2.22c1.47,0,1.63,1.21,1.64,1.79h-3.24c.06-1.05.69-1.79,1.6-1.79Z"/><path class="cls-1" d="m109.08,38.91c0-2.65-1.67-3.52-3.29-3.52-2.14,0-3.46,1.53-3.46,3.99s1.22,3.87,3.35,3.87c3.28,0,3.35-2.74,3.35-2.74h-1.74s0,.68-.45,1.11c-.24.23-.64.34-1.14.34-.6,0-1.66-.34-1.63-2.21h5.02v-.82Zm-3.37-2.22c1.47,0,1.63,1.21,1.64,1.79h-3.24c.06-1.05.69-1.79,1.6-1.79Z"/><path class="cls-1" d="m124.01,38.91c0-2.65-1.67-3.52-3.29-3.52-2.14,0-3.47,1.53-3.47,3.99s1.22,3.87,3.35,3.87c3.28,0,3.35-2.74,3.35-2.74h-1.74s0,.68-.45,1.11c-.24.23-.64.34-1.14.34-.6,0-1.66-.34-1.63-2.21h5.02v-.82Zm-3.37-2.22c1.47,0,1.63,1.21,1.64,1.79h-3.24c.06-1.05.69-1.79,1.6-1.79Z"/><path class="cls-1" d="m210,38.91c0-2.65-1.67-3.52-3.29-3.52-2.14,0-3.47,1.53-3.47,3.99s1.22,3.87,3.35,3.87c3.28,0,3.35-2.74,3.35-2.74h-1.74s0,.68-.45,1.11c-.24.23-.64.34-1.14.34-.6,0-1.66-.34-1.63-2.21h5.02v-.82Zm-3.37-2.22c1.47,0,1.63,1.21,1.64,1.79h-3.24c.06-1.05.69-1.79,1.6-1.79Z"/><path class="cls-1" d="m151.3,23.02c0-1.71-1.03-2.58-3.07-2.58-1.75,0-2.79.83-2.85,2.27v.17s1.74,0,1.74,0v-.16c.02-.67.62-.98,1.17-.98,1.22,0,1.33.54,1.34,1.63h-1.05c-2.3,0-3.62,1-3.62,2.74,0,1.5,1.37,2.19,2.64,2.19.93,0,1.64-.35,2.11-.99,0,.67.1.78.58.78h1.08l-.06-1.66v-3.4Zm-3.36,3.97c-.78,0-1.24-.43-1.24-1.16,0-1.01,1.23-1.18,1.76-1.21,0,0,.93,0,1.18,0,0,.93-.18,1.57-.56,1.95-.28.28-.65.42-1.14.42Z"/><path class="cls-1" d="m179.87,23.02c0-1.71-1.03-2.58-3.07-2.58-1.75,0-2.79.83-2.85,2.27v.17s1.74,0,1.74,0v-.16c.02-.67.62-.98,1.17-.98,1.22,0,1.33.54,1.34,1.63h-1.05c-2.3,0-3.62,1-3.62,2.74,0,1.5,1.37,2.19,2.64,2.19.93,0,1.64-.35,2.11-.99,0,.67.1.78.58.78h1.08l-.06-1.66v-3.4Zm-3.36,3.97c-.78,0-1.24-.43-1.24-1.16,0-1.01,1.23-1.18,1.76-1.21,0,0,.93,0,1.18,0,0,.93-.18,1.57-.56,1.95-.27.28-.65.42-1.14.42Z"/><path class="cls-1" d="m131.48,37.97c0-1.72-1.03-2.58-3.07-2.58-1.75,0-2.79.83-2.85,2.26v.17s1.74,0,1.74,0v-.16c.02-.67.62-.98,1.17-.98,1.22,0,1.33.54,1.34,1.63h-1.05c-2.3,0-3.62,1-3.62,2.74,0,1.5,1.37,2.19,2.64,2.19.93,0,1.64-.35,2.11-.99,0,.67.1.78.58.78h1.07l-.06-1.66v-3.4Zm-3.36,3.97c-.78,0-1.24-.43-1.24-1.16,0-1.01,1.23-1.18,1.76-1.21,0,0,.93,0,1.18,0,0,.93-.18,1.57-.56,1.95-.27.28-.65.42-1.14.42Z"/><path class="cls-1" d="m130.18,23.02c0-1.71-1.03-2.58-3.07-2.58-1.75,0-2.79.83-2.85,2.27v.17s1.74,0,1.74,0v-.16c.02-.67.62-.98,1.17-.98,1.22,0,1.33.54,1.34,1.63h-1.05c-2.3,0-3.62,1-3.62,2.74,0,1.5,1.37,2.19,2.64,2.19.93,0,1.64-.35,2.11-.99,0,.67.1.78.58.78h1.08l-.06-1.66v-3.4Zm-3.36,3.97c-.78,0-1.24-.43-1.24-1.16,0-1.01,1.23-1.18,1.76-1.21,0,0,.93,0,1.18,0,0,.93-.18,1.57-.56,1.95-.27.28-.65.42-1.14.42Z"/><path class="cls-1" d="m142.95,24.82c-.18-1.09-.36-1.72-1.33-2.09,1.04-.4,1.7-1.3,1.7-2.47,0-1.76-1.3-2.73-3.65-2.73h-3.82v10.56h1.74v-4.62h1.82s.24.01.24.01c.47.03.82.06,1.15.39.39.39.45,1.16.58,2.09.13.88.29,1.63.39,2.12h1.88c-.45-1.15-.54-2.17-.71-3.26Zm-1.42-4.33c0,.63-.2,1.35-1.77,1.42,0,0-1.89,0-2.17,0v-2.85h2.17c1.56.07,1.76.8,1.76,1.43Z"/><path class="cls-1" d="m100.66,39.78c-.18-1.09-.36-1.72-1.33-2.09,1.04-.4,1.7-1.3,1.7-2.47,0-1.76-1.3-2.73-3.65-2.73h-3.82v10.56h1.74v-4.62h1.82s.24.01.24.01c.47.03.83.06,1.15.39.39.39.45,1.16.58,2.09.13.88.29,1.63.39,2.12h1.88c-.45-1.15-.54-2.17-.71-3.26Zm-1.42-4.33c0,.63-.2,1.35-1.77,1.42h-2.17v-2.85h2.18c1.56.07,1.76.8,1.76,1.43Z"/><path class="cls-1" d="m114.07,38.67c-.24-.07-.53-.15-.82-.22-.66-.17-1.31-.24-1.31-.79,0-.88.8-.97,1.14-.97s.78.06,1.05.34c.16.17.23.4.21.7v.17s1.73,0,1.73,0v-.15c.05-.61-.13-1.11-.5-1.51-.51-.54-1.39-.84-2.42-.84-1.47,0-2.96.79-2.96,2.31,0,1.71,1.52,2.03,2.74,2.29.98.21,1.58.36,1.58.88,0,.97-1.01,1.07-1.44,1.07-.78,0-1.26-.44-1.28-1.19v-.16h-1.74v.16c0,.7.2,1.28.63,1.7.51.51,1.29.78,2.26.78,1.61,0,3.32-.64,3.32-2.44,0-1.5-1.11-1.83-2.19-2.14Z"/><path class="cls-1" d="m173.19,38.67c-.23-.07-.53-.15-.82-.22-.66-.17-1.31-.24-1.31-.79,0-.88.8-.97,1.14-.97s.79.06,1.05.34c.16.17.23.4.21.7v.17s1.73,0,1.73,0v-.15c.05-.61-.13-1.11-.5-1.51-.51-.54-1.39-.84-2.42-.84-1.47,0-2.96.79-2.96,2.31,0,1.71,1.52,2.03,2.74,2.29.98.21,1.59.36,1.59.88,0,.97-1.01,1.07-1.44,1.07-.78,0-1.26-.44-1.28-1.19v-.16h-1.74v.16c0,.7.2,1.28.63,1.7.5.51,1.29.78,2.25.78,1.61,0,3.32-.64,3.32-2.44,0-1.5-1.11-1.83-2.19-2.14Z"/><path class="cls-1" d="m149.41,35.39c-.95,0-1.65.31-2.18.91v-3.82h-1.67v10.56h1.67v-3.82c0-.61-.03-1,.21-1.58.22-.52.97-.9,1.46-.89,1.03.02,1.43.56,1.43,1.92v4.37h1.67v-4.98c0-1.69-.95-2.67-2.6-2.67Z"/><path class="cls-1" d="m178.87,33.6l-1.67.53v1.47c-.25,0-1.22-.05-1.22-.05v1.34s.97,0,1.22,0v4.35c0,.39-.08,1.29.77,1.78.9.44,2.49.13,2.49.13v-1.36s-.44.09-.87.08c-.29,0-.72-.06-.72-.56v-4.43c.27,0,1.64,0,1.64,0v-1.33s-1.37.04-1.64.05v-2Z"/><path class="cls-1" d="m187.61,33.6l-1.67.53v1.47c-.25,0-1.22-.05-1.22-.05v1.34s.97,0,1.22,0v4.35c0,.39-.08,1.29.77,1.78.9.44,2.49.13,2.49.13v-1.36s-.44.09-.87.08c-.29,0-.72-.06-.72-.56v-4.43c.26,0,1.64,0,1.64,0v-1.33s-1.37.04-1.64.05v-2Z"/><path class="cls-1" d="m200.9,33.6l-1.67.53v1.47c-.25,0-1.22-.05-1.22-.05v1.34s.97,0,1.22,0v4.35c0,.39-.08,1.29.77,1.78.9.44,2.49.13,2.49.13v-1.36s-.44.09-.87.08c-.29,0-.72-.06-.72-.56v-4.43c.27,0,1.64,0,1.64,0v-1.33s-1.37.04-1.64.05v-2Z"/><path class="cls-1" d="m195.25,35.6v3.82c0,.63-.07,1.21-.26,1.61-.29.61-.9.92-1.44.92-1.01,0-1.41-.56-1.41-1.98v-4.37h-1.67v4.92c0,1.63,1,2.73,2.5,2.73.99,0,1.76-.35,2.3-.99v.78h1.64v-7.44h-1.67Z"/><path class="cls-1" d="m0,19.35l.23.39c7.51-4.14,27.16-11.49,41.28-8.54,4.17.87,6.35,3.52,6.33,6-.03,4.34-4.09,7.48-9.8,8.76,0,0,10.97,4.34,14.95,17.11h7.99c-2.09-6.97-6.1-12.99-12.69-17.04,3.08-.98,8.62-4.36,8.62-9.49,0-4.46-5.01-8.16-14.15-8.7C27.73,6.95,7.43,14.76,0,19.35Z"/><path class="cls-1" d="m7.57,12.42l.19.29C24.96,4.7,40.2,2.65,50.44,3.27c9.84.59,15.77,4.97,15.77,11.01s-5.87,9.94-11.58,11.08c5.88,3.2,11.44,9.07,13.8,17.72h7.99c-1.97-6.47-5.64-13.32-12.29-17.69,6.83-1.86,10.52-6.79,10.52-12.2,0-6.66-5.56-12.23-17.48-13.07C45-.76,24.11,3.55,7.57,12.42Z"/><polygon class="cls-1" points="41.25 43.07 27.97 29.7 40.41 17.02 31.98 17.02 22.64 26.57 22.64 17.02 15.93 17.02 15.93 43.07 22.64 43.07 22.64 32.81 32.51 43.07 41.25 43.07"/><rect class="cls-1" x="79.73" y="17.02" width="7.09" height="26.06"/></svg>