<?xml version="1.0" encoding="UTF-8"?><svg id="_이어_1" xmlns="http://www.w3.org/2000/svg" viewBox="0 0 203.29 21.27"><defs><style>.cls-1{fill:#fff;}</style></defs><path class="cls-1" d="M43.56,3.49c0-1.57-.82-2.36-2.46-2.36H24.71V3.89h15.78v4.13H23.98v2.76h8.66v2.47h-7.95v2.76h15.8v5.26h3.07v-5.8c0-1.49-.74-2.22-2.26-2.22h-5.63v-2.47h8.91v-2.76h-1.02V3.49Z"/><path class="cls-1" d="M81.38,12.6h7.33v-2.72h-14.6V3.86h14.61V1.14h-17.71V10.47c0,1.32,.87,2.13,2.26,2.13h5.12v4.97h-8.64v2.76h20.27v-2.76h-8.63v-4.97Z"/><path class="cls-1" d="M92.91,3.89h8.17c-.02,3.12-.69,5.59-2.01,7.35-1.41,1.89-3.53,2.89-6.32,2.98h-.15v3.01h.16c2.99-.15,5.48-1.07,7.38-2.74,2.7-2.33,4.08-6.08,4.08-11.13V1.14h-11.32V3.89Z"/><rect class="cls-1" x="108.39" y="1.14" width="3.07" height="20.14"/><path class="cls-1" d="M180.35,3.49c0-1.57-.83-2.36-2.46-2.36h-16.39V3.89h15.79v7h-16.51v2.75h8.44v7.63h3.04v-7.63h9.11v-2.75h-1.02V3.49Z"/><path class="cls-1" d="M19.51,1.1h-3.07V18.52H4.63v-4.51H1.56v5.04c0,1.39,1.13,2.22,2.23,2.22h13.41c2.08,0,2.31-1.48,2.31-2.12V8.97h2.78v-2.76h-2.78V1.1Z"/><path class="cls-1" d="M6.74,12.97c3.3,0,5.98-2.35,5.98-5.25,0-1.17-.44-2.24-1.17-3.12h1.93V1.91h-5.07V0h-3.27V1.91H0v2.68H1.94c-.74,.87-1.17,1.95-1.17,3.12,0,2.9,2.68,5.25,5.98,5.25Zm0-8.11c1.62,0,2.93,1.22,2.93,2.73s-1.31,2.73-2.93,2.73-2.93-1.22-2.93-2.73,1.31-2.73,2.93-2.73Z"/><path class="cls-1" d="M154.32,3.34h-3.59v2.73h3.59v1.52h-3.59v2.73h3.59v8.21h-11.82v-4.51h-3.07v5.04c0,1.39,1.13,2.22,2.23,2.22h13.41c2.08,0,2.31-1.48,2.31-2.12V1.1h-3.07V3.34Z"/><path class="cls-1" d="M150.26,6.51c0-3.23-2.86-5.85-6.39-5.85s-6.39,2.62-6.39,5.85,2.86,5.85,6.39,5.85,6.39-2.62,6.39-5.85Zm-9.68,0c0-1.66,1.47-3.01,3.29-3.01s3.29,1.35,3.29,3.01-1.47,3.01-3.29,3.01-3.29-1.35-3.29-3.01Z"/><path class="cls-1" d="M120.89,6.57c1.88-.51,3.25-1.25,4.11-2.2,.83,.95,2.19,1.7,4.07,2.2,1.55,.4,3.3,.63,5.2,.66h.16v-2.57h-.16c-2.28-.06-4.09-.38-5.35-.93-1.49-.66-2.21-1.6-2.21-2.88v-.16h-3.42v.16c0,1.28-.73,2.21-2.21,2.85-1.27,.56-3.07,.88-5.35,.95h-.15v2.56h.15c1.87-.02,3.62-.24,5.16-.64Z"/><path class="cls-1" d="M114.86,10.78h8.64v.95h-7.92v2.62h15.78v.82h-15.78v3.87c0,1.39,1.13,2.22,2.23,2.22h16.62v-2.66h-15.77v-.85h15.77v-6.03h-7.92v-.95h8.63v-2.69h-20.27v2.69Z"/><path class="cls-1" d="M54,7.36c.63,.79,1.53,1.41,2.71,1.83,1.05,.4,2.22,.6,3.47,.6h.16v-2.71h-.15c-1.58-.12-2.79-.44-3.58-.98-.58-.39-.89-.9-1-1.51h4.52V1.91h-4.56V0h-3.21V1.91h-4.64v2.68h4.52c-.12,.63-.44,1.14-1,1.53-.76,.53-1.97,.86-3.58,.97h-.15v2.7h.16c1.16-.02,2.31-.22,3.42-.6,1.28-.44,2.25-1.06,2.92-1.83Z"/><path class="cls-1" d="M63.49,4.05h-2.97v2.73h2.97v4.2h-14.87v2.69h14.87v1.14h-14.87v4.25c0,1.39,1.13,2.22,2.23,2.22h15.72v-2.72h-14.88v-1.14h14.88V1.1h-3.07v2.95Z"/><path class="cls-1" d="M200.22,1.1V12.63h-4.7v2.69h4.7v3.2h-11.82v-5.18h-3.07v5.71c0,1.39,1.13,2.22,2.23,2.22h13.41c2.08,0,2.31-1.48,2.31-2.12V1.1h-3.07Z"/><path class="cls-1" d="M189.91,15.47h3.03v-4.1h5.78v-2.72h-3.07c.97-.9,1.58-2.09,1.58-3.41,0-2.77-2.63-5.01-5.88-5.01s-5.88,2.24-5.88,5.01c0,1.32,.6,2.51,1.58,3.41h-3.3v2.72h6.18v4.1Zm-1.32-10.23c0-1.37,1.23-2.48,2.74-2.48s2.74,1.11,2.74,2.48-1.23,2.48-2.74,2.48-2.74-1.11-2.74-2.48Z"/></svg>