<?xml version="1.0" encoding="UTF-8"?><svg id="_이어_1" xmlns="http://www.w3.org/2000/svg" viewBox="0 0 120.84 52.98"><defs><style>.cls-1{fill:#fff;}</style></defs><path class="cls-1" d="M26.53,0C11.9-.03,.03,11.81,0,26.44c-.03,14.63,11.81,26.51,26.44,26.53,14.63,.03,26.51-11.81,26.53-26.44C53,11.9,41.16,.03,26.53,0Zm6.3,36.03v2.12h-7.42l.04-23.29h2.12l-.04,21.16h5.3Zm9.33,6.18c-8.68,8.64-22.73,8.61-31.38-.07-8.64-8.68-8.61-22.73,.07-31.38,4.17-4.15,9.81-6.47,15.69-6.46,.25,0,.78,0,1.06,.03v2.07h-1.06c-11.1-.03-20.12,8.94-20.15,20.04-.01,5.34,2.1,10.46,5.87,14.24,7.86,7.86,20.61,7.85,28.47,0,3.42-3.42,5.49-7.95,5.84-12.77v-.32l-13.73-.02v-2.04l15.86,.03v.99c0,5.89-2.35,11.53-6.54,15.67ZM21.23,18c0,1.76-1.43,3.18-3.18,3.17-1.76,0-3.18-1.43-3.17-3.18,0-1.76,1.43-3.18,3.18-3.17,1.76,0,3.18,1.43,3.17,3.18Z"/><path class="cls-1" d="M72.98,9h-7.95l-.06,34.47,24.46,.04v-6.71l-16.51-.03,.05-27.77Zm33.99,21.4h6.48v6.04c-1.87,.6-3.81,.91-5.76,.9-7.17-.01-9.53-3.66-9.52-11.05,.01-7.06,2.29-11.21,9.46-11.2,3.98,0,6.25,1.27,8.13,3.66l4.96-4.55c-3.01-4.32-8.3-5.64-13.23-5.65-11.16-.02-17.03,6.06-17.05,17.66-.02,11.61,5.27,17.81,16.92,17.83,5.35,0,10.6-1.34,13.43-3.33l.03-16.72-13.83-.02-.04,6.42Z"/></svg>