<?xml version="1.0" encoding="UTF-8"?><svg id="_이어_1" xmlns="http://www.w3.org/2000/svg" viewBox="0 0 145.8 50.14"><defs><style>.cls-1{fill:#fff;}</style></defs><path id="_스_277" class="cls-1" d="M52.26,14.56l2.52,3.63h41.03l.6-3.52-44.15-.1Z"/><path id="_스_278" class="cls-1" d="M64.09,11.89l1.01-6.04s17.07-3.68,33.28,.86l.65-4.18s-20.6-5.89-37.71,.3l-1.66,9.06h4.43Z"/><path id="_스_275" class="cls-1" d="M2.47,34.45h3.93L11.93,6.26s17.27-4.43,31.72,.15l-2.77,15.2s-7.95,3.27-28.19,0l-.76,3.78s17.37,4.53,32.73-.5l3.93-21.65s-24.32-5.79-40.53-.15L2.47,34.45Z"/><path id="_스_276" class="cls-1" d="M62.33,21.41l-1.16,6.04s18.38,3.93,32.88-.65l-.9,4.53s-20.29,4.43-36.75-1.26l1.76-8.71h4.18v.05Z"/><path id="_스_279" class="cls-1" d="M43.9,49.91l.86-6.24h3.07l.3-2.12h-9.41l-.3,2.12h3.07l-.86,6.24h3.27Zm-13.95,0l.71-4.88,2.87,4.88h3.68l1.16-8.36h-3.17l-.65,4.83-2.57-4.83h-3.88l-1.16,8.36h3.02Zm-4.38,0l1.16-8.36h-3.27l-1.16,8.36h3.27Zm-13.9-.9c1.18,.85,2.63,1.24,4.08,1.11,1.54,.09,3.07-.29,4.38-1.11,1.08-.76,1.78-1.96,1.91-3.27,.3-1.18-.07-2.44-.96-3.27-1.18-.85-2.63-1.24-4.08-1.11-1.54-.09-3.07,.29-4.38,1.11-1.07,.77-1.77,1.96-1.91,3.27-.28,1.18,.08,2.42,.96,3.27h0Zm3.37-4.98c.47-.42,1.08-.64,1.71-.6,.57-.06,1.13,.17,1.51,.6,.32,.49,.43,1.09,.3,1.66-.06,.63-.34,1.22-.81,1.66-.47,.4-1.09,.6-1.71,.55-.56,.05-1.11-.15-1.51-.55-.33-.49-.44-1.09-.3-1.66,.06-.64,.34-1.23,.81-1.67h0Zm-11.78,5.9l.4-2.92h3.02c1,.04,2-.2,2.87-.71,.71-.44,1.17-1.19,1.26-2.01,.15-.75-.12-1.52-.71-2.01-.79-.52-1.73-.77-2.67-.71H1.16l-1.16,8.36H3.27Zm3.78-6.39c.2,.15,.26,.35,.2,.71-.03,.28-.17,.54-.4,.71-.36,.17-.76,.24-1.16,.2h-1.81l.26-1.81h1.81c.38-.05,.77,.02,1.1,.2h0Z"/><path id="_스_280" class="cls-1" d="M134.78,46.18h-3.22l-.05,.5h2.32l-.2,2.22c-.81,.4-1.71,.61-2.62,.6-1.67,.16-3.16-1.07-3.32-2.74-.03-.3-.01-.59,.05-.88,.09-2.06,1.81-3.67,3.88-3.63,.98-.08,1.91,.43,2.37,1.31l.9-.2c-.71-1.11-1.96-1.74-3.27-1.66-2.41-.22-4.55,1.56-4.77,3.97,0,.05,0,.11-.01,.16-.26,2.67,1.46,4.13,4.08,4.13,1.25,0,2.48-.3,3.57-.9l.3-2.87Zm-10.93,3.02c-.65-1.26-1.96-3.68-4.03-7.25h-1.26l-.71,7.95h.86c.3-3.57,.5-5.99,.6-7.25h.05c.65,1.26,1.96,3.68,3.98,7.25h1.26l.71-7.95h-.86c-.3,3.52-.5,5.94-.6,7.25Zm-8.11,.71l.71-7.95h-.9l-.71,7.95h.9Zm-7.95-3.93l.3-3.57h1.81c2.37,0,2.97,.71,2.87,1.76-.1,1.11-1.11,1.81-2.72,1.81h-2.27Zm2.97,.45c1.56-.1,2.82-.86,2.97-2.27,.15-1.61-1.31-2.27-3.68-2.27h-2.82l-.71,7.95h.9l.3-3.37h2.06l2.82,3.37h1.16l-3.01-3.42Zm-10.57-.96l.26-3.02h4.58l.05-.55h-5.44l-.71,7.95h5.59l.05-.55h-4.68l.3-3.37h3.57l.05-.55h-3.63v.1Zm-7.66,0l.26-3.02h4.58l.05-.55h-5.44l-.71,7.95h5.59l.05-.55h-4.68l.3-3.37h3.57l.05-.55h-3.63v.1Zm-4.49,3.73c-.65-1.26-1.96-3.68-4.03-7.25h-1.21l-.71,7.95h.86c.3-3.57,.5-5.99,.6-7.25h.05c.6,1.26,1.96,3.68,3.98,7.25h1.26l.71-7.95h-.86c-.35,3.52-.55,5.94-.65,7.25Zm-8.11,.71l.71-7.95h-.86l-.71,7.95h.86Zm-2.42-3.73h-3.22l-.05,.5h2.32l-.2,2.22c-.81,.4-1.71,.61-2.62,.6-1.67,.16-3.16-1.07-3.32-2.74-.03-.3-.01-.59,.05-.88,.09-2.06,1.81-3.67,3.88-3.63,.98-.08,1.91,.43,2.37,1.31l.9-.2c-.71-1.11-1.96-1.74-3.27-1.66-2.41-.22-4.55,1.56-4.77,3.97,0,.05,0,.11-.01,.16-.26,2.67,1.46,4.13,4.08,4.13,1.25,0,2.48-.3,3.57-.9l.3-2.87Zm-10.93,3.02c-.65-1.26-1.96-3.68-4.03-7.25h-1.26l-.71,7.95h.86c.3-3.57,.5-5.99,.6-7.25h.05c.6,1.26,1.96,3.68,3.98,7.25h1.26l.71-7.95h-.86c-.3,3.52-.5,5.94-.6,7.25Zm-12.28-3.73l.26-3.02h4.58l.05-.55h-5.44l-.71,7.95h5.59l.05-.55h-4.68l.3-3.37h3.57l.05-.55h-3.63v.1Z"/><path id="_스_281" class="cls-1" d="M141.67,27.91l-.81,4.28s-14.55,4.43-37.06-1.16l5.08-26.83c12.05-3.44,24.82-3.49,36.9-.15l-.55,3.57s-19.64-4.48-32.73,.05l-3.78,20.54c-.05,.05,11.23,3.68,32.93-.3"/></svg>