<?xml version="1.0" encoding="UTF-8"?><svg id="_이어_1" xmlns="http://www.w3.org/2000/svg" viewBox="0 0 207.66 29.54"><defs><style>.cls-1{fill:#fff;fill-rule:evenodd;}</style></defs><path id="path20" class="cls-1" d="M0,25.14H3.99c.02,1.38,.58,1.49,1.73,1.49h4.89c.84,0,1.7-.09,1.7-1.1,0-1.13-.47-1.21-5.61-1.21C.7,24.33,.02,23.62,.02,20.42c0-2.35,.22-4.17,5.25-4.17h5.57c4.6,0,5.02,1.56,5.02,3.84v.41h-3.98c0-.95-.11-1.35-1.94-1.35H5.5c-.89,0-1.51,.3-1.51,1.01,0,1.13,.48,1.17,4.76,1.15,6.2-.02,7.64,.36,7.64,4.14,0,3.5-1.18,4.08-6.5,4.08H5.08c-3.63,.01-5.08-.67-5.08-3.49v-.89"/><polyline id="polyline22" class="cls-1" points="16.95 16.39 20.85 16.39 23.62 25.95 23.65 25.95 26.96 16.39 30.66 16.39 33.97 25.95 34 25.95 36.77 16.39 40.67 16.39 36.45 29.4 31.86 29.4 28.83 20.81 28.79 20.81 25.76 29.4 21.17 29.4 16.95 16.39"/><path id="path24" class="cls-1" d="M45.42,24.3h5.1l-2.59-4.89-2.51,4.89m-.07-7.9h5.19l7.15,13h-4.43l-1.24-2.3h-8.09l-1.18,2.3h-4.44l7.04-13Z"/><polyline id="polyline26" class="cls-1" points="54.93 16.39 70.13 16.39 70.13 19.63 64.53 19.63 64.53 29.4 60.54 29.4 60.54 19.63 54.93 19.63 54.93 16.39"/><path id="path28" class="cls-1" d="M71.14,20.96c0-3.82,2.13-4.71,5.73-4.71h4.69c5.68,0,6.41,1.22,6.38,4.9h-3.99v-.36c0-.93-.69-1.2-1.87-1.2h-4.35c-2.1,0-2.5,.99-2.5,2.61v1.4c0,1.89,.4,2.61,2.28,2.61h4.26c1.8,0,2.33-.18,2.33-1.8h3.99v1.22c0,2.19-.79,3.92-4.8,3.92h-6.43c-3.6,0-5.73-.89-5.73-4.71v-3.88"/><polyline id="polyline30" class="cls-1" points="90.06 16.39 94.05 16.39 94.05 21.03 102.45 21.03 102.45 16.39 106.44 16.39 106.44 29.4 102.45 29.4 102.45 24.48 94.05 24.48 94.05 29.4 90.06 29.4 90.06 16.39"/><path id="path32" class="cls-1" d="M116.83,20.96c0-3.82,2.14-4.71,5.73-4.71h6c4.53,0,5.16,1.63,5.16,4.17v.41h-3.91c0-1.29-.74-1.45-2.01-1.45h-4.33c-2.01,0-2.53,.48-2.53,2.71v1.62c0,2.23,.52,2.71,2.53,2.71h4.26c1.04,0,2.09-.16,2.09-1.42v-.38h-4.96v-2.69h8.95v3.7c0,3.74-1.94,3.92-6.43,3.92h-4.8c-3.59,0-5.73-.89-5.73-4.71v-3.88"/><path id="path34" class="cls-1" d="M139.75,22.79h6.59c1.08,0,1.48-.43,1.48-1.36v-.43c0-1.15-.57-1.36-1.83-1.36h-6.24v3.16m-3.99-6.39h12.04c3.07,0,3.9,1.53,3.9,3.86v.83c0,1.74-.4,2.77-2.23,3.2v.04c1.18,.22,2.17,.74,2.17,2.87v2.21h-4v-1.56c0-1.36-.4-1.81-1.64-1.81h-6.25v3.38h-3.99v-13h0Z"/><path id="path36" class="cls-1" d="M157.73,23.6c0,1.89,.4,2.61,2.28,2.61h5.1c1.89,0,2.28-.72,2.28-2.61v-1.4c0-1.62-.4-2.61-2.5-2.61h-4.67c-2.1,0-2.5,.99-2.5,2.61v1.4m-4.1-2.64c0-3.82,2.14-4.71,5.74-4.71h6.4c3.59,0,5.73,.89,5.73,4.71v3.88c0,3.81-2.14,4.71-5.73,4.71h-6.4c-3.59,0-5.73-.89-5.73-4.71v-3.88Z"/><path id="path38" class="cls-1" d="M173.46,16.39h3.99v7.51c0,1.65,.59,2.3,2.23,2.3h3.95c1.63,0,2.23-.65,2.23-2.3v-7.51h3.99v8.37c0,3.23-1.67,4.78-5.34,4.78h-5.71c-3.66,0-5.32-1.55-5.32-4.78v-8.37"/><path id="path40" class="cls-1" d="M196.07,22.9h6.2c.93,0,1.29-.61,1.29-1.38v-.5c0-.89-.43-1.39-1.63-1.39h-5.86v3.27m-3.99-6.5h10.87c3.79,0,4.71,1.9,4.71,4.46v1.11c0,1.94-.84,4.17-3.66,4.17h-7.92v3.27h-3.99v-13h0Z"/><path id="path42" class="cls-1" d="M165.5,8.13h-2.46v-2.46h2.46V3.22h1.54c-2.01-2.55-5.71-3-8.26-.99-2.55,2.01-3,5.71-.99,8.26,2.01,2.55,5.71,3,8.26,.99,.33-.26,.63-.55,.9-.87h-1.45v-2.47"/><path id="path44" class="cls-1" d="M128.4,5.86h1.92c-.52-2.7-3.13-4.47-5.82-3.95-2.7,.52-4.47,3.13-3.95,5.82,.52,2.7,3.13,4.47,5.82,3.95,1.97-.38,3.52-1.9,3.93-3.86h-1.9v-1.96"/><path id="path46" class="cls-1" d="M100.88,5.91h1.14c-.51-2.2-2.71-3.56-4.9-3.05-2.2,.51-3.56,2.71-3.05,4.9,.51,2.2,2.71,3.56,4.9,3.05,1.47-.34,2.64-1.48,3.02-2.94h-1.11v-1.96"/><path id="path48" class="cls-1" d="M201.04,5.26V2.19h-3.07v3.07h-3.07v3.07h3.07v3.07h3.07v-3.07h3.07v-3.07h-3.07m-8.33,1.54c0-3.75,3.04-6.8,6.8-6.8s6.8,3.04,6.8,6.8-3.04,6.8-6.8,6.8-6.8-3.04-6.8-6.8Z"/></svg>