<?xml version="1.0" encoding="UTF-8"?><svg id="_이어_1" xmlns="http://www.w3.org/2000/svg" viewBox="0 0 132.98 57.62"><defs><style>.cls-1{fill:#fff;}</style></defs><path class="cls-1" d="M129.45,42.33c-11.1-.83-24.93-1.51-40.03-1.51-23.12,0-49.22,1.58-73.03,6.51C12.41,42.3,7.55,38.34,.11,35.21l-.11,.22c6.58,7.16,10.79,13.34,13.78,22.2,33.36-12.46,75.27-14.76,106.9-14.76,3.02,0,5.91,.04,8.71,.07l.07-.61Z"/><path class="cls-1" d="M33.84,0c-2.3,8.63-5.47,17.26-9.53,25.93h-.07c-1.07-7.04-1.62-17.18-1.62-25.93H11.04c.36,13.81,2.76,26,5.47,36.82h11.15C33.95,25.46,39.84,13.24,44.41,0h-10.57Zm99.14,18.85c0-7.12-4.61-10-12.34-10-9.34,0-15.03,4.29-15.03,18.82,0,7.11,4.61,10,12.35,10,9.34,0,15.03-4.18,15.03-18.81M55.56,9.07c-6.98,0-10.75,1.33-13.81,4.6-2.92,3.1-4.46,8.56-4.46,14.35,0,5.03,1.26,9.21,7.48,9.21,2.84,0,5.32-1.08,7.63-2.42h.11l-.26,2.01h9.46l3.37-27.58c-2.76-.11-5.96-.18-9.53-.18m39.31,21.36c2.01,0,4.71-.47,6.83-1.08l-1.23,6.69c-2.52,.64-6.07,1-9.25,1-10.1,0-12.9-4.39-12.9-10.15,0-14.71,6.33-18.05,15.03-18.05,6.83,0,11.07,3.31,11.07,9.64,0,2.77-.56,5.25-.96,6.98h-15.03c0,3.16,1.04,4.96,6.44,4.96m-20.32,6.4h-10L69.08,0h9.99l-4.54,36.82Zm47.76-13.23c-.76,6.97-1.81,8.42-3.81,8.42-1.83,0-2.55-1.34-2.55-4.25,0-1.25,.14-3.02,.36-4.85,.75-6.98,1.8-8.42,3.8-8.42,1.84,0,2.56,1.33,2.56,4.23,0,1.27-.15,3.02-.36,4.86m-69.69,5.89c-.65,.47-1.62,1.01-2.69,1.01-2.05,0-2.34-1.73-2.34-3.77,0-2.4,.65-6.69,1.36-8.38,1.08-2.59,2.56-3.31,4.93-3.31,.07,0,.25,0,.5,.04l-1.76,14.42Zm42.11-9.78c.18-.86,.33-1.58,.33-2.58,0-1.95-1.23-2.74-2.52-2.74-2.13,0-3.23,1.26-3.74,5.32h5.93Z"/></svg>