<?xml version="1.0" encoding="UTF-8"?>
<svg id="Layer_1" xmlns="http://www.w3.org/2000/svg" version="1.1" viewBox="0 0 30 30">
  <!-- Generator: Adobe Illustrator 29.1.0, SVG Export Plug-In . SVG Version: 2.1.0 Build 142)  -->
  <path d="M1.4,17.9c.4,0,.7-.1,1-.4L15,4.8l12.7,12.7c.3.3.6.4,1,.4s.7-.1,1-.4c.5-.5.5-1.4,0-1.9L16,1.9c-.5-.5-1.4-.5-1.9,0L.4,15.5c-.5.5-.5,1.4,0,1.9.3.3.6.4,1,.4Z"/>
  <path d="M16,12.5c-.5-.5-1.4-.5-1.9,0L.4,26.2c-.5.5-.5,1.4,0,1.9.3.3.6.4,1,.4s.7-.1,1-.4l12.7-12.7,12.7,12.7c.3.3.6.4,1,.4s.7-.1,1-.4c.5-.5.5-1.4,0-1.9l-13.6-13.6h0Z"/>
</svg>