<?xml version="1.0" encoding="UTF-8"?>
<svg id="Layer_1" xmlns="http://www.w3.org/2000/svg" version="1.1" viewBox="0 0 30 30">
  <!-- Generator: Adobe Illustrator 29.1.0, SVG Export Plug-In . SVG Version: 2.1.0 Build 142)  -->
  <path d="M27.7,12.5l-12.7,12.7L2.3,12.5c-.5-.5-1.4-.5-1.9,0s-.5,1.4,0,1.9l13.6,13.6c.3.3.6.4,1,.4s.7-.1,1-.4l13.6-13.6c.5-.5.5-1.4,0-1.9s-1.4-.5-1.9,0Z"/>
  <path d="M14,17.5c.3.3.6.4,1,.4s.7-.1,1-.4L29.6,3.8c.5-.5.5-1.4,0-1.9s-1.4-.5-1.9,0l-12.7,12.7L2.3,1.9c-.5-.5-1.4-.5-1.9,0S-.1,3.3.4,3.8l13.6,13.6Z"/>
</svg>