<?xml version="1.0" encoding="UTF-8"?>
<svg xmlns="http://www.w3.org/2000/svg" version="1.1" viewBox="0 0 100 100">
  <!-- Generator: Adobe Illustrator 28.7.1, SVG Export Plug-In . SVG Version: 1.2.0 Build 142)  -->
  <g>
    <g id="_레이어_1" data-name="레이어_1">
      <g>
        <path d="M88.5,8.1h-10.1V3.3c0-1.8-1.5-3.3-3.3-3.3h-8.9c-1.7,0-3.2,1.5-3.2,3.3v4.8h-26V3.3c0-1.8-1.5-3.3-3.2-3.3h-8.9c-1.8,0-3.3,1.5-3.3,3.3v4.8h-10.1C5.2,8.1,0,13.3,0,19.6v68.9c0,6.3,5.2,11.5,11.5,11.5h77c6.3,0,11.5-5.2,11.5-11.5V19.6c0-6.3-5.2-11.5-11.5-11.5ZM88.5,92.4H11.5c-2.1,0-3.8-1.7-3.8-3.8V29.3h84.7v59.2c0,2.2-1.8,3.9-3.9,3.9Z"/>
        <path d="M31.2,37.3h-13.5c-1.2,0-2.2.9-2.2,2.2v6.3c0,1.2.9,2.2,2.2,2.2h13.5c1.2,0,2.2-.9,2.2-2.2v-6.3c0-1.2-.9-2.2-2.2-2.2Z"/>
        <path d="M56.9,37.3h-13.5c-1.2,0-2.2.9-2.2,2.2v6.3c0,1.2.9,2.2,2.2,2.2h13.5c1.2,0,2.2-.9,2.2-2.2v-6.3c0-1.2-1-2.2-2.2-2.2Z"/>
        <path d="M82.5,37.3h-13.5c-1.2,0-2.2.9-2.2,2.2v6.3c0,1.2.9,2.2,2.2,2.2h13.5c1.2,0,2.2-.9,2.2-2.2v-6.3c0-1.2-.9-2.2-2.2-2.2Z"/>
        <path d="M31.2,55.6h-13.5c-1.2,0-2.2.9-2.2,2.2v6.3c0,1.2.9,2.2,2.2,2.2h13.5c1.2,0,2.2-.9,2.2-2.2v-6.3c0-1.1-.9-2.2-2.2-2.2Z"/>
        <path d="M56.9,55.6h-13.5c-1.2,0-2.2.9-2.2,2.2v6.3c0,1.2.9,2.2,2.2,2.2h13.5c1.2,0,2.2-.9,2.2-2.2v-6.3c0-1.1-1-2.2-2.2-2.2Z"/>
        <path d="M82.5,55.6h-13.5c-1.2,0-2.2.9-2.2,2.2v6.3c0,1.2.9,2.2,2.2,2.2h13.5c1.2,0,2.2-.9,2.2-2.2v-6.3c0-1.1-.9-2.2-2.2-2.2Z"/>
        <path d="M31.2,74.1h-13.5c-1.2,0-2.2.9-2.2,2.2v6.3c0,1.2.9,2.2,2.2,2.2h13.5c1.2,0,2.2-.9,2.2-2.2v-6.3c0-1.3-.9-2.2-2.2-2.2Z"/>
        <path d="M56.9,74.1h-13.5c-1.2,0-2.2.9-2.2,2.2v6.3c0,1.2.9,2.2,2.2,2.2h13.5c1.2,0,2.2-.9,2.2-2.2v-6.3c0-1.3-1-2.2-2.2-2.2Z"/>
        <path d="M82.5,74.1h-13.5c-1.2,0-2.2.9-2.2,2.2v6.3c0,1.2.9,2.2,2.2,2.2h13.5c1.2,0,2.2-.9,2.2-2.2v-6.3c0-1.3-.9-2.2-2.2-2.2Z"/>
      </g>
    </g>
  </g>
</svg>