<?xml version="1.0" encoding="UTF-8"?>
<svg id="Layer_1" data-name="Layer 1" xmlns="http://www.w3.org/2000/svg" viewBox="0 0 95 95">
  <path d="M92.04,61.42c-1.64,0-2.97,1.33-2.97,2.97v13.1c0,6.38-5.01,11.58-11.17,11.58H17.11c-6.16,0-11.17-5.19-11.17-11.57v-13.1c0-1.64-1.33-2.97-2.97-2.97s-2.97,1.33-2.97,2.97v13.1c0,9.66,7.67,17.52,17.1,17.52h60.79c9.43,0,17.1-7.86,17.1-17.52v-13.1c0-1.64-1.33-2.97-2.97-2.97h0Z"/>
  <path d="M45.4,65.84c1.11,1.16,3.1,1.16,4.21,0l16.83-16.92c2.68-2.86-1.35-6.89-4.21-4.19l-11.75,11.82V2.97C50.47,1.33,49.15,0,47.51,0s-2.97,1.33-2.97,2.97v53.58l-11.75-11.82c-2.85-2.7-6.89,1.32-4.21,4.19l16.83,16.92h0Z"/>
</svg>