<?xml version="1.0" encoding="UTF-8"?>
<svg id="Layer_1" xmlns="http://www.w3.org/2000/svg" xmlns:rdf="http://www.w3.org/1999/02/22-rdf-syntax-ns#" xmlns:dc="http://purl.org/dc/elements/1.1/" xmlns:cc="http://creativecommons.org/ns#" version="1.1" viewBox="0 0 69 90">
  <!-- Generator: Adobe Illustrator 29.3.1, SVG Export Plug-In . SVG Version: 2.1.0 Build 151)  -->
  <path d="M0,21v62h0c0,3.8,3.1,6.9,6.9,7h55.1c3.8,0,6.9-3.1,6.9-7V6.8c0-3.8-3.1-6.9-6.9-7H20.3C20.1-.2,20,0,19.9.1h0C19.8.4.5,19.8.5,19.8c-.3.3-.5.7-.5,1.2ZM19.5,15.3c0,2.3-1.9,4.1-4.1,4.1H4.8l14.7-14.7v10.6ZM2.8,22.3h12.6c3.8,0,6.9-3.1,6.9-6.9V2.7h39.7c2.3,0,4.1,1.9,4.1,4.1v76.2c0,2.3-1.9,4.1-4.1,4.1H6.9c-2.3,0-4.1-1.9-4.1-4.1,0,0,0-60.7,0-60.7Z"/>
</svg>