<?xml version="1.0" encoding="UTF-8"?>
<svg id="Layer_1" xmlns="http://www.w3.org/2000/svg" xmlns:rdf="http://www.w3.org/1999/02/22-rdf-syntax-ns#" xmlns:dc="http://purl.org/dc/elements/1.1/" xmlns:cc="http://creativecommons.org/ns#" version="1.1" viewBox="0 0 69 90">
  <!-- Generator: Adobe Illustrator 29.0.0, SVG Export Plug-In . SVG Version: 2.1.0 Build 186)  -->
  <path d="M0,21v62s0,0,0,0c0,3.8,3.1,6.9,6.9,7h55.1c3.8,0,6.9-3.1,6.9-7v-36.4s0-10.8,0-10.8v-2.8s0-16.8,0-16.8v-2.7s0-6.7,0-6.7c0-3.8-3.1-6.9-6.9-7H20.9s-.1,0-.1,0c0,0-.1,0-.2,0h-.3c-.2,0-.3.2-.4.3h0C19.8.4.5,19.8.5,19.8c-.3.3-.5.7-.5,1.2ZM19.5,15.3c0,2.3-1.9,4.1-4.1,4.1H4.8s14.7-14.7,14.7-14.7v10.6ZM2.8,22.3h12.6c3.8,0,6.9-3.1,6.9-6.9V2.7h39.7c2.3,0,4.1,1.9,4.1,4.1v4.1s0,2.5,0,2.5v2.8s0,16.8,0,16.8v2.8s0,9.1,0,9.1v38.1c0,2.3-1.9,4.1-4.1,4.1H6.9c-2.3,0-4.1-1.9-4.1-4.1V22.3Z"/>
  <g>
    <path d="M17.3,37.4h14.7v4.1h-9.7v4.5h8.9v4.1h-8.9v4.5h9.7v4.1h-14.7v-21.2Z"/>
    <path d="M43.3,41.2c-2,0-3,.9-3.1,2.1,0,1.3,1.3,2,3.2,2.4l1.8.4c4.1.9,6.4,2.9,6.5,6.3,0,4-3.1,6.4-8.4,6.4s-8.7-2.4-8.8-7.3h4.8c.1,2.1,1.6,3.1,3.9,3.1s3.4-.9,3.4-2.3c0-1.2-1.1-1.9-3.5-2.4l-2.2-.5c-3.7-.8-5.9-2.7-5.9-5.9,0-3.9,3.5-6.6,8.3-6.6s8,2.7,8.1,6.6h-4.8c-.1-1.6-1.3-2.5-3.3-2.5Z"/>
  </g>
</svg>