<?xml version="1.0" encoding="UTF-8"?><svg id="Layer_1" xmlns="http://www.w3.org/2000/svg" viewBox="0 0 100 100"><path d="M50,0C22.43,0,0,22.43,0,50s22.43,50,50,50,50-22.43,50-50S77.57,0,50,0ZM48.74,93.03c-6.67-4.7-11.99-11.81-15.42-20.27-.3-.73.26-1.54,1.05-1.54h31.27c.79,0,1.35.8,1.05,1.54-3.43,8.46-8.76,15.57-15.42,20.27-.75.53-1.77.53-2.52,0h0ZM31.84,65.61c-.52,0-.97-.35-1.1-.86-1.15-4.7-1.79-9.66-1.79-14.75s.63-10.05,1.79-14.75c.12-.5.58-.86,1.1-.86h36.31c.52,0,.97.35,1.1.86,1.15,4.7,1.79,9.66,1.79,14.75s-.63,10.05-1.79,14.75c-.12.5-.58.86-1.1.86H31.84ZM51.26,6.97c6.67,4.7,11.99,11.81,15.42,20.27.3.73-.26,1.54-1.05,1.54h-31.27c-.79,0-1.35-.8-1.05-1.54,3.43-8.46,8.76-15.57,15.42-20.27.75-.53,1.77-.53,2.52,0h0ZM76.24,34.39h14.51c.47,0,.91.29,1.07.75,1.66,4.65,2.57,9.65,2.57,14.86s-.91,10.21-2.57,14.86c-.16.45-.59.75-1.07.75h-14.51c-.72,0-1.24-.66-1.09-1.36.99-4.58,1.51-9.37,1.51-14.25s-.52-9.66-1.51-14.25c-.15-.7.37-1.36,1.09-1.36h0ZM87.02,28.78h-13.02c-.48,0-.9-.3-1.05-.75-2.68-7.66-6.72-14.5-11.84-19.91-.39-.41.02-1.07.57-.92,11.09,3.03,20.46,10.25,26.29,19.86.46.75-.07,1.72-.95,1.72h0ZM38.89,8.11c-5.12,5.42-9.16,12.25-11.84,19.91-.16.45-.57.75-1.05.75h-13.02c-.89,0-1.41-.97-.95-1.72,5.83-9.61,15.2-16.83,26.29-19.86.55-.15.96.5.57.92h0ZM9.25,34.39h14.51c.72,0,1.24.66,1.09,1.36-.99,4.58-1.51,9.37-1.51,14.25s.52,9.66,1.51,14.25c.15.7-.37,1.36-1.09,1.36h-14.51c-.47,0-.91-.29-1.07-.75-1.66-4.65-2.57-9.65-2.57-14.86s.91-10.21,2.57-14.86c.16-.45.59-.75,1.07-.75h0ZM12.98,71.23h13.02c.48,0,.9.3,1.05.75,2.68,7.66,6.72,14.5,11.84,19.91.39.41-.02,1.07-.57.92-11.09-3.03-20.46-10.25-26.29-19.86-.46-.75.07-1.72.95-1.72h0ZM61.11,91.89c5.12-5.42,9.16-12.25,11.84-19.91.16-.45.57-.75,1.05-.75h13.02c.89,0,1.41.97.95,1.72-5.83,9.61-15.2,16.83-26.29,19.86-.55.15-.96-.5-.57-.92h0Z"/></svg>