<?xml version="1.0" encoding="UTF-8"?>
<svg id="Layer_1" data-name="Layer 1" xmlns="http://www.w3.org/2000/svg" viewBox="0 0 48.67 47.07">
  <defs>
    <style>
      .cls-1 {
        fill: #fff;
      }
    </style>
  </defs>
  <path class="cls-1" d="M36.2,11.87c0-6.54-5.32-11.87-11.87-11.87s-11.87,5.32-11.87,11.87,5.32,11.87,11.87,11.87,11.87-5.32,11.87-11.87ZM14.47,11.87c0-5.44,4.43-9.87,9.87-9.87s9.87,4.43,9.87,9.87-4.43,9.87-9.87,9.87-9.87-4.43-9.87-9.87Z"/>
  <path class="cls-1" d="M24.33,21.74C10.69,21.74,0,32.86,0,47.07h2c0-13.08,9.81-23.33,22.33-23.33s22.33,10.25,22.33,23.33h2c0-14.21-10.69-25.33-24.33-25.33Z"/>
</svg>