<?xml version="1.0" encoding="UTF-8"?>
<svg xmlns="http://www.w3.org/2000/svg" xmlns:rdf="http://www.w3.org/1999/02/22-rdf-syntax-ns#" xmlns:dc="http://purl.org/dc/elements/1.1/" xmlns:cc="http://creativecommons.org/ns#" version="1.1" viewBox="0 0 100 100">
  <!-- Generator: Adobe Illustrator 28.7.1, SVG Export Plug-In . SVG Version: 1.2.0 Build 142)  -->
  <g>
    <g id="Layer_1">
      <path d="M36.4,3.3c-3.4,0-6.2,1.5-6.6,3.8l-2.5,16.5H10.6c-2.7,0-4.8,3.3-4.8,7.5s2.2,7.4,4.9,7.4h14.4s-3.5,23.1-3.5,23.1H4.8C2.2,61.6,0,64.9,0,69.1c0,4.1,2.2,7.4,4.9,7.4h14.3s-2.2,14.1-2.2,14.1c-.4,2.7,2.5,5.3,6.6,5.9,4.1.6,7.7-1,8.1-3.7l2.5-16.4h23.4s-2.2,14.2-2.2,14.2c-.4,2.7,2.5,5.3,6.6,5.9,4.1.6,7.7-1,8.1-3.7l2.5-16.5h16.7c2.7,0,4.8-3.3,4.8-7.5,0-4.1-2.2-7.4-4.9-7.4h-14.4s3.5-23.1,3.5-23.1h16.6c2.7,0,4.8-3.3,4.8-7.5s-2.2-7.4-4.9-7.4h-14.3s2.2-14.1,2.2-14.1c.4-2.7-2.5-5.3-6.6-5.9-4.1-.6-7.7,1-8.1,3.7l-2.5,16.4h-23.4s2.2-14.2,2.2-14.2c.4-2.7-2.5-5.3-6.6-5.9-.5,0-1-.1-1.5-.1h0ZM63.5,38.4l-3.5,23.2h-23.4s3.5-23.1,3.5-23.1c0,0,23.4,0,23.4,0Z"/>
    </g>
  </g>
</svg>