<?xml version="1.0" encoding="UTF-8"?>
<svg xmlns="http://www.w3.org/2000/svg" xmlns:rdf="http://www.w3.org/1999/02/22-rdf-syntax-ns#" xmlns:dc="http://purl.org/dc/elements/1.1/" xmlns:cc="http://creativecommons.org/ns#" version="1.1" viewBox="0 0 100 100">
  <!-- Generator: Adobe Illustrator 28.7.1, SVG Export Plug-In . SVG Version: 1.2.0 Build 142)  -->
  <g>
    <g id="Layer_1">
      <g id="Layer_1-2" data-name="Layer_1">
        <path d="M37.9,0c-3.1,0-5.6,1.6-6,4.1l-2.3,17.7h-15.1c-2.4,0-4.3,3.5-4.3,8s2,7.9,4.4,7.9h13l-3.2,24.7h-15.2c-2.3,0-4.3,3.5-4.3,8s2,7.9,4.4,7.9h12.9l-2,15.1c-.4,2.9,2.3,5.7,6,6.3s7-1.1,7.3-4l2.3-17.6h21.1l-2,15.2c-.4,2.9,2.3,5.7,6,6.3,3.7.6,7-1.1,7.3-4l2.3-17.7h15.1c2.4,0,4.3-3.5,4.3-8s-2-7.9-4.4-7.9h-13l3.2-24.7h15c2.4,0,4.3-3.5,4.3-8s-2-7.9-4.4-7.9h-12.9l2-15.1c.4-2.9-2.3-5.7-6-6.3s-7,1.1-7.3,4l-2.3,17.6h-21.1l2-15.2c.4-2.9-2.3-5.7-6-6.3-.5,0-.9-.1-1.4-.1h.2ZM62.3,37.6l-3.2,24.9h-21.1l3.2-24.7h21.1Z"/>
      </g>
    </g>
  </g>
</svg>