<?xml version="1.0" encoding="UTF-8"?>
<svg xmlns="http://www.w3.org/2000/svg" version="1.1" viewBox="0 0 24 24">
  <!-- Generator: Adobe Illustrator 28.7.1, SVG Export Plug-In . SVG Version: 1.2.0 Build 142)  -->
  <g>
    <g id="Layer_1">
      <path d="M1,2h22c.6,0,1-.4,1-1s-.4-1-1-1H1C.4,0,0,.4,0,1s.4,1,1,1Z"/>
      <path d="M12,24h0c.6,0,1-.4,1-1V7.4l6.7,6.7c.4.4,1.1.3,1.4-.1.3-.4.3-.9,0-1.3L12.8,4.4c-.2-.2-.5-.3-.8-.4h0c-.3,0-.5.1-.7.3L2.8,12.8c-.4.4-.4,1,0,1.4.4.4,1,.4,1.4,0l6.8-6.8v15.6c0,.6.4,1,1,1Z"/>
    </g>
  </g>
</svg>