<?xml version="1.0" encoding="UTF-8"?>
<svg id="Layer_1" xmlns="http://www.w3.org/2000/svg" viewBox="0 0 200 120">
  <defs>
    <style>
      .cls-1 {
        fill: #fff;
      }

      .cls-2 {
        fill: #2a43b6;
      }
    </style>
  </defs>
  <rect class="cls-1" width="200" height="120"/>
  <rect class="cls-2" width="200" height="40"/>
  <rect class="cls-2" y="80" width="200" height="40"/>
  <g>
    <polygon class="cls-2" points="100 53.33 97.94 59.68 101.1 60.71 100 53.33"/>
    <polygon class="cls-2" points="100 53.33 102.06 59.68 98.9 60.71 100 53.33"/>
    <polygon class="cls-2" points="106.34 57.95 99.67 57.95 99.67 61.28 106.34 57.95"/>
    <polygon class="cls-2" points="106.34 57.95 100.95 61.86 98.99 59.17 106.34 57.95"/>
    <polygon class="cls-2" points="93.65 57.95 99.05 61.86 101.01 59.17 93.65 57.95"/>
    <polygon class="cls-2" points="93.65 57.95 100.33 57.95 100.33 61.28 93.65 57.95"/>
    <polygon class="cls-2" points="103.91 65.39 101.86 59.05 98.69 60.09 103.91 65.39"/>
    <polygon class="cls-2" points="103.91 65.39 98.52 61.48 100.48 58.78 103.91 65.39"/>
    <polygon class="cls-2" points="96.08 65.39 101.48 61.48 99.51 58.78 96.08 65.39"/>
    <polygon class="cls-2" points="96.08 65.39 98.15 59.05 101.31 60.09 96.08 65.39"/>
    <polygon class="cls-2" points="133.34 63.33 131.27 69.68 134.44 70.7 133.34 63.33"/>
    <polygon class="cls-2" points="133.34 63.33 135.38 69.68 132.22 70.7 133.34 63.33"/>
    <polygon class="cls-2" points="139.66 67.94 133.01 67.94 133.01 71.28 139.66 67.94"/>
    <polygon class="cls-2" points="139.66 67.94 134.29 71.86 132.32 69.15 139.66 67.94"/>
    <polygon class="cls-2" points="127 67.94 132.38 71.86 134.34 69.15 127 67.94"/>
    <polygon class="cls-2" points="127 67.94 133.65 67.94 133.65 71.28 127 67.94"/>
    <polygon class="cls-2" points="137.25 75.39 135.18 69.06 132.03 70.09 137.25 75.39"/>
    <polygon class="cls-2" points="137.25 75.39 131.86 71.47 133.82 68.78 137.25 75.39"/>
    <polygon class="cls-2" points="129.41 75.39 134.8 71.47 132.84 68.78 129.41 75.39"/>
    <polygon class="cls-2" points="129.41 75.39 131.48 69.06 134.65 70.09 129.41 75.39"/>
    <polygon class="cls-2" points="133.34 43.34 131.27 49.67 134.44 50.71 133.34 43.34"/>
    <polygon class="cls-2" points="133.34 43.34 135.38 49.67 132.22 50.71 133.34 43.34"/>
    <polygon class="cls-2" points="139.66 47.94 133.01 47.94 133.01 51.27 139.66 47.94"/>
    <polygon class="cls-2" points="139.66 47.94 134.29 51.87 132.32 49.16 139.66 47.94"/>
    <polygon class="cls-2" points="127 47.94 132.38 51.87 134.34 49.16 127 47.94"/>
    <polygon class="cls-2" points="127 47.94 133.65 47.94 133.65 51.27 127 47.94"/>
    <polygon class="cls-2" points="137.25 55.4 135.18 49.06 132.03 50.08 137.25 55.4"/>
    <polygon class="cls-2" points="137.25 55.4 131.86 51.47 133.82 48.78 137.25 55.4"/>
    <polygon class="cls-2" points="129.41 55.4 134.8 51.47 132.84 48.78 129.41 55.4"/>
    <polygon class="cls-2" points="129.41 55.4 131.48 49.06 134.65 50.08 129.41 55.4"/>
    <polygon class="cls-2" points="66.66 63.33 64.61 69.68 67.77 70.7 66.66 63.33"/>
    <polygon class="cls-2" points="66.66 63.33 68.72 69.68 65.56 70.7 66.66 63.33"/>
    <polygon class="cls-2" points="73 67.94 66.34 67.94 66.34 71.28 73 67.94"/>
    <polygon class="cls-2" points="73 67.94 67.62 71.86 65.65 69.15 73 67.94"/>
    <polygon class="cls-2" points="60.32 67.94 65.72 71.86 67.68 69.15 60.32 67.94"/>
    <polygon class="cls-2" points="60.32 67.94 66.99 67.94 66.99 71.28 60.32 67.94"/>
    <polygon class="cls-2" points="70.58 75.39 68.52 69.06 65.35 70.09 70.58 75.39"/>
    <polygon class="cls-2" points="70.58 75.39 65.2 71.47 67.15 68.78 70.58 75.39"/>
    <polygon class="cls-2" points="62.74 75.39 68.14 71.47 66.18 68.78 62.74 75.39"/>
    <polygon class="cls-2" points="62.74 75.39 64.81 69.06 67.97 70.09 62.74 75.39"/>
    <polygon class="cls-2" points="66.66 43.34 64.61 49.67 67.77 50.71 66.66 43.34"/>
    <polygon class="cls-2" points="66.66 43.34 68.72 49.67 65.56 50.71 66.66 43.34"/>
    <polygon class="cls-2" points="73 47.94 66.34 47.94 66.34 51.27 73 47.94"/>
    <polygon class="cls-2" points="73 47.94 67.62 51.87 65.65 49.16 73 47.94"/>
    <polygon class="cls-2" points="60.32 47.94 65.72 51.87 67.68 49.16 60.32 47.94"/>
    <polygon class="cls-2" points="60.32 47.94 66.99 47.94 66.99 51.27 60.32 47.94"/>
    <polygon class="cls-2" points="70.58 55.4 68.52 49.06 65.35 50.08 70.58 55.4"/>
    <polygon class="cls-2" points="70.58 55.4 65.2 51.47 67.15 48.78 70.58 55.4"/>
    <polygon class="cls-2" points="62.74 55.4 68.14 51.47 66.18 48.78 62.74 55.4"/>
    <polygon class="cls-2" points="62.74 55.4 64.81 49.06 67.97 50.08 62.74 55.4"/>
  </g>
</svg>