<?xml version="1.0" encoding="UTF-8"?>
<svg id="Layer_1" xmlns="http://www.w3.org/2000/svg" viewBox="0 0 200 120">
  <defs>
    <style>
      .cls-1 {
        fill: none;
      }

      .cls-2 {
        fill: #3564c2;
      }

      .cls-3 {
        fill: #93c438;
      }

      .cls-4 {
        fill: #c0003b;
      }

      .cls-5 {
        fill: #b0008a;
      }

      .cls-6 {
        fill: #6091be;
      }

      .cls-7 {
        fill: #95d4fd;
      }

      .cls-8 {
        fill: #fff;
      }

      .cls-9 {
        fill: #487ba2;
      }

      .cls-10 {
        fill: #2f4791;
      }

      .cls-11 {
        fill: #f5cd28;
      }

      .cls-12 {
        fill: #263732;
      }

      .cls-13 {
        fill: #f3cd2d;
      }

      .cls-14 {
        fill: #5b7133;
      }
    </style>
  </defs>
  <rect class="cls-2" y="80" width="200" height="40"/>
  <rect class="cls-2" width="200" height="40"/>
  <rect class="cls-8" y="40" width="200" height="40"/>
  <g>
    <polygon class="cls-11" points="87.94 66.97 100.01 46.07 112.06 66.97 87.94 66.97"/>
    <polygon class="cls-7" points="89.12 66.28 99.99 47.45 110.87 66.28 89.12 66.28"/>
    <g>
      <path class="cls-7" d="M91.28,64.54c-.15,0-.3-.03-.44-.05l-.33-.09-.03-.22.39.11c.32.05.63.08,1.01.08-.22.11-.4.16-.6.16h0Z"/>
      <path class="cls-7" d="M90.27,65.87l-.26-.14c.13-.05.23-.2.39-.38.27-.08.41-.05.58,0,.11.02.22.06.36.07.22.13.55.11.76.01l.31-.04-.23.22c-.22.11-.64.17-.91-.01-.1.01-.24-.01-.35-.05-.16-.04-.26-.08-.43-.02-.11.14-.19.27-.23.35h0Z"/>
      <path class="cls-7" d="M92.37,66.08c-.31-.04-.52-.04-.85-.04l-.31-.1v.11c-.21.02-.29.02-.35-.03l-.05.03v-.11c.17-.08.3-.08.4-.1h.31c.37,0,.65,0,.85.24h0Z"/>
      <path class="cls-7" d="M95.4,64.45c-.42,0-.56-.14-.65-.56-.15-.02-.45-.02-.66.07h-.33s-.09-.19-.09-.19h.37c.23-.13.6-.13.86,0,.13.47.22.51.53.53,0-.08.16-.16.29-.23l.26.08c-.28.16-.42.22-.48.3h-.1Z"/>
      <path class="cls-7" d="M94.7,65.56l-.25-.14c.14-.05.23-.19.4-.37.33-.23.51-.36.98-.25.38.3.48.38.78.41.19,0,.32-.02.45-.05.11-.01.21-.03.34-.05-.1.22-.2.23-.31.26-.14.02-.28.05-.49.05-.36-.04-.5-.15-.72-.33-.48-.18-.6-.09-.86.09-.17.18-.26.32-.31.39h0Z"/>
      <path class="cls-7" d="M96.89,66.24c-.32,0-.53-.1-.78-.2l-.28-.12c-.08.09-.18.14-.25.17l-.08-.16h.08s.1-.1.25-.19l.37.11c.23.1.42.17.7.18.1,0,.18-.03.27-.04.11-.02.23-.07.38-.07-.13.2-.23.23-.34.26-.1.02-.2.04-.32.04h0Z"/>
      <path class="cls-7" d="M99.5,64.06c-.31-.1-.61-.1-.93-.1h-.37l-.08-.2h.36c.43-.02.74,0,1.05.11h.99s-1.03.19-1.03.19h0Z"/>
      <path class="cls-7" d="M99.96,65.31c-.37-.03-.55-.15-.74-.29l-.22-.14c-.2-.2-.53-.26-.81-.3-.1.1-.22.13-.28.16l-.08-.15h.08c-.02-.05.08-.11.24-.2.39.03.75.1,1.01.34l.19.13c.19.14.33.23.62.25.26-.11.34-.17.47-.2l-.16.29c-.08.05-.16.1-.31.11h0Z"/>
      <path class="cls-7" d="M100.45,65.82c-.3,0-.53-.03-.76-.1-.27-.17-.6,0-.71.08l-.12-.16c.18-.13.58-.31.9-.11.26.1.59.1.9.1.11-.04.24-.1.36-.16.17-.07.35-.15.44-.24l.04-.02h.25l-.22.2c-.05.08-.23.17-.42.25-.12.04-.24.11-.33.15-.11.01-.24.01-.34.01h0Z"/>
      <path class="cls-7" d="M103.09,64.58c-.31-.13-.79-.12-1.02-.1l-.09-.1.09-.1c.25,0,.75-.02,1.04.11.22-.05.35-.22.51-.42l.16-.17c.35-.05.6-.03.84.08-.29.1-.51.09-.77.09-.27.35-.44.56-.78.62h0Z"/>
      <path class="cls-7" d="M103.39,65.73l-.05-.2s.29-.09.52-.11c.22-.26.39-.13.53-.04.07.06.14.12.23.14.3-.11.47-.35.62-.68.03.41-.17.73-.6.87-.2-.05-.29-.12-.37-.17-.13-.11-.17-.13-.32.04-.27.05-.56.14-.56.14h0Z"/>
      <path class="cls-7" d="M104.26,64.93l-.08-.13h.07c-.04-.09.07-.15.22-.29l.2-.16c.12-.13.23-.24.51-.28.19-.25.4-.04.54.07-.31,0-.35-.01-.45.1-.28.05-.35.12-.47.23-.05.07-.1.12-.2.19-.16.13-.26.2-.33.26h0Z"/>
      <path class="cls-7" d="M105.79,65.74l-.19-.04c.01-.07.14-.54.22-.73.23-.16.38-.25.55-.21.13.05.24.17.36.39.07.01.2.09.34.17.14.08.27.15.41.2-.23.14-.37.05-.51-.04-.12-.07-.24-.14-.36-.19-.14-.23-.23-.32-.29-.35-.09,0-.19.03-.35.13-.02.13-.16.57-.17.65h0Z"/>
      <path class="cls-7" d="M107.59,64.58c-.26-.44-.36-.66-.61-.73-.01.18-.08.34-.12.43l-.24-.1c.1-.07.17-.23.31-.47.46.04.57.32.71.63.32.04.51.02.69-.13-.09.36-.35.37-.74.37h0Z"/>
      <path class="cls-7" d="M109.86,65.56c-.32-.04-.43-.14-.51-.23-.11-.09-.19-.17-.34-.23-.16-.1-.26-.05-.45.34l-.19-.08c.11-.23.27-.54.49-.56l.26.16c.13.04.25.13.35.23.09.09.19.17.34.25-.06-.14.05-.19.23-.22-.11.22-.13.23-.19.35h0Z"/>
      <path class="cls-7" d="M102.15,65.89l-.09-.16h.08c-.01-.07.09-.11.25-.2.32-.25.43-.35.61-.68.25-.04.39-.02.51,0,.18.02.33.05.51.05-.2.2-.36.17-.54.14-.13-.02-.26-.04-.4-.06-.11.32-.26.44-.52.65-.24.15-.36.2-.41.25h0Z"/>
      <path class="cls-7" d="M92.84,64.6h-.2c0-.13.11-.22.49-.41.14-.16.29-.1.42-.05l.22.23c-.1,0-.2-.03-.28-.05v.02l-.25.02c-.29.16-.38.22-.4.24h0Z"/>
      <path class="cls-7" d="M93.97,65.62c-.08,0-.16-.04-.23-.07-.08-.06-.19-.11-.3-.14-.08.08-.2.14-.27.17l-.08-.16h.08c-.02-.06.09-.11.24-.2.22.02.33.08.44.15.1.07.2.13.36.15-.1.07-.17.1-.24.1h0Z"/>
      <polygon class="cls-8" points="100.05 62 99.95 47.63 100.05 47.63 100.05 62 100.05 62"/>
      <polygon class="cls-8" points="94.82 56.53 94.82 56.44 105.18 56.44 94.82 56.53 94.82 56.53"/>
      <polygon class="cls-8" points="107.8 60.95 96.16 54.35 96.21 54.25 107.8 60.95 107.8 60.95"/>
      <polygon class="cls-8" points="92.24 61.06 103.91 54.21 103.96 54.3 92.24 61.06 92.24 61.06"/>
      <polygon class="cls-8" points="97.7 60.62 97.61 60.57 102 52.97 97.7 60.62 97.7 60.62"/>
      <polygon class="cls-8" points="102.78 61.2 97.8 52.75 97.89 52.7 102.78 61.2 102.78 61.2"/>
      <path class="cls-7" d="M101.6,56.49c0,.87-.72,1.59-1.61,1.59s-1.6-.72-1.6-1.59.72-1.6,1.6-1.6,1.61.71,1.61,1.6h0Z"/>
      <path class="cls-9" d="M108.91,62.87l-5.39.09s.02.78.38.82c.35.02,4.81-.05,4.99.31.19.36-4.35.54-4.35.54,0,0,4-.03,4.2.28.22.31-2.19.37-2.01.42.2.05,2.83-.05,3.07.24.26.31-1.19.5-1.19.5,0,0,2.17.22,2.23.2-.52-.92-1.95-3.39-1.95-3.39h0Z"/>
      <path class="cls-4" d="M99.2,55.43c-.17.12.41.2.36.57-.04.26-.36.63-.49.88-.14.25.63,1.14,1.33.66.7-.5.62-1.38.38-1.54-.56-.38-.93-.94-1.58-.57h0Z"/>
      <path d="M100.22,57.5c-.04-.1-.26-.32-.46-.45-.17-.1-.46-.17-.53-.11,0,.01,0,.08-.02.1-.01,0-.04.05-.04.04,0-.02.02-.18.03-.19.12-.1.46.04.6.12.14.08.47.35.43.5h0Z"/>
      <path class="cls-14" d="M95.38,58.7c.63-.15.81.58,1.02.72.21.12.75.18.9.26.14.09.68.45.68.45,0,0,.25-.65.53-.71.29-.07,1.51.78,1.51.78,0,0,.13-.78.46-.68.33.1,1.96,1.33,1.96,1.33,0,0,.08-.43.43-.55.35-.13,1.56.62,1.56.62,0,0,.13-.6.38-.6.71,0,3.03,2.51,3.54,2.57.23.02-.85.34-.85.34,0,0,.19.16.08.3-.1.14-3.29.02-3.29.02,0,0,.09.22.04.28-.09.13-13.92.22-13.92.22,1.29-2.23,3.84-5.09,4.98-5.36h0Z"/>
      <path class="cls-12" d="M100.84,63.96c.48-.13.14-1.47-2.5-3.51,4.18,2.9,1.53,3.3,5.81,3.42-.77.05-3.31.09-3.31.09h0Z"/>
      <path class="cls-12" d="M100.16,60.34s3.97,3.06,4.14,3.21c.19,0,.84.03.84.03,0,0-.54-.04-4.97-3.24h0Z"/>
      <path class="cls-12" d="M102.52,60.95s3.33,2.61,2.8,2.63c-.56,0,1.82.06,2.24-.03-2.16-.12-1.72-.21-5.04-2.6h0Z"/>
      <path class="cls-12" d="M104.54,61.05l2.95,2.19s.47-.13.7-.24c-.88.14-1.04-.26-3.65-1.95h0Z"/>
      <path class="cls-3" d="M95.9,58.99c.23.16.29.45.44.54.14.08,1.5.72,2.26,1.5.74.78,1.89,1.77,1.48,1.9-.4.12-.79-.31-.79-.31,0,0,.56.93-.19.98-.75.07-2.6-2.73-2.6-2.73,0,0,.88,2.53-.25,2.42-1.14-.1-1.02-1.92-1.02-1.92,0,0-.31.87-.53.85-.23-.02,0-1.13,0-1.13,0,0-1.31,2.19-1.81,1.94-.52-.25,2.01-4.22,3-4.04h0Z"/>
      <path class="cls-3" d="M98.62,59.73c-.03-.2.16-.14.57.07.41.19,3.68,2.74,3.6,3-.08.26-3.98-1.84-4.17-3.06h0Z"/>
      <path class="cls-3" d="M101.05,60.16c-.26-.05,2.6,2.84,3.27,2.66.68-.19-3.09-2.62-3.27-2.66h0Z"/>
      <path class="cls-3" d="M103.01,60.41c-.31-.03,2.78,2.77,3.44,2.61.68-.13-2.95-2.57-3.44-2.61h0Z"/>
      <path class="cls-3" d="M104.82,60.56c-.34.07,2.3,2.1,2.62,2.08.34-.02-1.83-2.22-2.62-2.08h0Z"/>
      <path class="cls-5" d="M95.7,54.89s1.63-1.9,4.3-1.9,4.3,1.9,4.3,1.9l-.65-1.14s-1.32-1.35-3.64-1.35-3.64,1.32-3.64,1.32l-.67,1.17Z"/>
      <path class="cls-4" d="M103.24,53.05s-1.17-.99-3.24-.99-3.23,1.01-3.23,1.01l-.54.92s1.26-1.43,3.77-1.43,3.8,1.44,3.8,1.44l-.55-.93Z"/>
      <path class="cls-13" d="M102.84,52.24s-1.06-.78-2.84-.78-2.72.72-2.72.72l-.57.98s1.06-1.05,3.3-1.05,3.3,1.05,3.3,1.05l-.47-.92Z"/>
      <path class="cls-3" d="M102.33,51.49l.51.87s-1.05-.78-2.85-.78-2.86.83-2.86.83l.51-.88s.72-.54,2.35-.54,2.34.5,2.34.5h0Z"/>
      <path class="cls-6" d="M101.98,50.88l.44.73s-1.03-.51-2.42-.51-2.48.66-2.48.66l.41-.72s.74-.45,2.07-.45,1.98.29,1.98.29h0Z"/>
      <path class="cls-10" d="M101.75,50.49l.34.6s-.64-.43-2.08-.43-2.11.43-2.11.43l.35-.63s.65-.24,1.75-.24,1.76.26,1.76.26h0Z"/>
      <path class="cls-8" d="M97.36,64.26l5.42.05s-.94.11-.92.22c.04.11,1.93.16,1.93.16,0,0-1.17.08-1.18.21-.04.1.53.16.53.16,0,0-1.07.1-1.07.22,0,.1,1.36.16,1.26.16-.11,0-1.8.02-1.8.16s1.2.42,1.2.42l-7.12.13s1.11-.17,1.11-.38c0-.23-.78-.28-.78-.28,0,0,2.9.05,3.04-.08.13-.13-.61-.23-.61-.23,0,0,1.16.07,1.23-.07.08-.13-1.55-.37-1.55-.37,0,0,.95.02,1.1-.14.13-.16-1.8-.35-1.8-.35h0Z"/>
      <path class="cls-9" d="M96.32,64.39s-5.35.16-5.81.47c-.46.3,2.99.6,2.99.6,0,0-3.56.04-3.83.36-.27.34,2.13.28,2.13.28l-2.68.19,1.28-2.2,5.93.31Z"/>
      <path class="cls-13" d="M84.43,64.74c.07.17-.04.38-.23.45-.19.05-.38-.05-.44-.23-.06-.2.04-.4.23-.45.19-.07.38.04.44.23h0Z"/>
      <path class="cls-1" d="M84.43,64.74c.07.17-.04.38-.23.45-.19.05-.38-.05-.44-.23-.06-.2.04-.4.23-.45.19-.07.38.04.44.23Z"/>
      <path class="cls-13" d="M84.99,68.15c-.21.19-.37.32-.23.63l-.13.06-.56-1.22.11-.05c.11.21.19.24.29.2.07-.03.13-.08.18-.14l.34-.32-.42-.89-.25.03c-.11.01-.23.02-.32.07-.19.09-.17.27-.11.44l-.11.04-.43-.92.11-.06c.24.29.44.28.78.25l2.1-.19.39.44-1.75,1.63ZM86.06,66.29l-1.29.11.36.76.93-.87Z"/>
      <path class="cls-13" d="M86.88,71.16c-.21.17-.21.29-.05.51l-.1.07-.81-1.11.1-.08c.16.22.28.25.5.09l1.6-1.19h0l-2.5.78-.08-.12,1.41-2.13h0l-1.25.92c-.49.38-.54.44-.36.74l-.1.08-.56-.8.1-.06c.25.23.32.25.81-.11l1.18-.88c.23-.17.22-.3.07-.51l.1-.07.66.9-1.05,1.55,1.77-.54.65.89-.1.07c-.18-.22-.27-.27-.51-.1l-1.48,1.1Z"/>
      <path class="cls-13" d="M87.34,72.17c.21.19.32.19.5,0l1.23-1.4c.18-.2.17-.32-.05-.51l.09-.1,1.71,1.54-.29.7-.12-.03c.03-.43-.08-.91-.41-1.19-.25-.23-.33-.14-.51.07l-.5.56.05.05c.29.25.45.31.81.11l.1.1-.72.83-.13-.11c.19-.35.1-.56-.17-.8l-.07-.06-.54.61c-.15.16-.23.29-.02.47.35.32.84.41,1.29.35l.04.1-.68.34-1.71-1.54.08-.1Z"/>
      <path class="cls-13" d="M91.73,74.89c-.02.31-.05.57.23.77l-.07.11-.79-.5c0-.11.01-.25.02-.36l.07-.53c.08-.54-.04-.65-.17-.74l-.45.72c-.14.23-.11.37.13.51l-.07.1-1.16-.73.07-.13c.23.16.36.14.5-.09l.98-1.58c.13-.22.1-.35-.13-.5l.07-.1,1.39.87c.47.31.61.76.39,1.1-.22.36-.63.33-.99.2.06.13.05.28.04.41l-.04.46ZM91.18,73.5c.52.34.8.26,1.02-.08.2-.32.08-.56-.26-.78-.21-.13-.27-.06-.38.13l-.44.71.07.03Z"/>
      <path class="cls-13" d="M93.33,73.8c.11-.25.07-.36-.19-.47l.05-.13,1.24.58-.05.11c-.25-.11-.38-.08-.48.16l-.77,1.69c-.11.25-.05.37.19.48l-.04.12-1.24-.58.05-.11c.25.11.37.08.48-.17l.75-1.69Z"/>
      <path class="cls-13" d="M96.37,75.26h-.17c-.05-.4-.23-.88-.65-1.01-.54-.18-.89.48-1.02.92-.29.89.03,1.4.44,1.53.35.11.68-.07.94-.28l.08.1c-.39.36-.83.54-1.35.38-.72-.24-1.04-1.01-.82-1.71.23-.77.98-1.35,1.74-1.11.13.05.23.11.31.17s.15.13.22.16c.1.02.22,0,.3,0h.04s-.04.86-.04.86Z"/>
      <path class="cls-13" d="M98.28,77.01c.05.28.05.48.4.54l-.02.13-1.32-.22.02-.12c.25.03.31-.01.34-.13,0-.08,0-.15-.01-.23l-.07-.46-.96-.16-.12.22c-.06.1-.11.2-.13.31-.04.19.13.29.29.34l-.03.13-.99-.17.02-.12c.36-.04.47-.22.63-.51l1.05-1.86.58-.09.33,2.4ZM97.38,75.04l-.64,1.15.83.15-.19-1.3Z"/>
      <path class="cls-13" d="M102.2,75.53l-.17.06c-.19-.35-.53-.73-.96-.71-.57.04-.66.78-.64,1.24.07.92.55,1.29.96,1.26.38-.02.6-.31.77-.6l.11.07c-.23.48-.57.81-1.12.85-.77.05-1.33-.57-1.38-1.3-.05-.8.44-1.62,1.23-1.67.14,0,.25.02.35.05.1.03.17.05.25.05.1-.01.18-.05.27-.11l.05-.02.27.84Z"/>
      <path class="cls-13" d="M102.74,77.36c.27-.06.35-.17.28-.43l-.41-1.81c-.05-.25-.18-.31-.44-.25l-.02-.13,2.23-.52.39.65-.1.07c-.33-.27-.78-.45-1.2-.36-.33.08-.31.19-.24.48l.16.72h.08c.37-.1.52-.2.55-.6l.14-.04.26,1.09-.14.04c-.2-.36-.41-.4-.78-.31h-.07s.18.81.18.81c.05.21.1.35.37.29.45-.11.8-.46,1.02-.87l.1.02-.1.76-2.24.53-.02-.13Z"/>
      <path class="cls-13" d="M107.51,75.02l-.51-1.18c-.14-.29-.23-.45-.59-.32l-.05-.13.92-.4.06.11c-.31.21-.29.35-.15.66l.86,1.98-.32.13-2.27-1.39.58,1.36c.17.38.24.44.65.35l.05.12-.99.43-.05-.11c.32-.21.33-.34.18-.66l-.69-1.63c-.14-.07-.33-.1-.49-.06l-.05-.12.88-.39,2.01,1.24Z"/>
      <path class="cls-13" d="M109.31,71.56l.6.53-.09.11c-.32-.13-.79-.25-1.1-.04l1.22,1.8c.14.23.27.25.49.08l.07.11-1.12.78-.07-.11c.23-.14.25-.28.1-.5l-1.21-1.81c-.29.25-.37.67-.36,1.04l-.14.05-.28-.75,1.89-1.3Z"/>
      <path class="cls-13" d="M112.58,71.41c.28.08.54.17.78-.04l.09.09-.68.66c-.11-.04-.22-.07-.34-.11l-.49-.19c-.5-.19-.65-.13-.75,0l.59.61c.19.19.32.19.51-.01l.09.1-.97.96-.09-.09c.19-.19.19-.32.02-.51l-1.28-1.33c-.2-.19-.33-.18-.51,0l-.09-.09,1.16-1.16c.42-.39.86-.42,1.16-.14.28.31.16.71-.05,1.03.14-.04.28.01.41.07l.44.14ZM111.12,71.64c.45-.44.44-.73.16-1.02-.27-.28-.52-.23-.81.07-.19.17-.12.26.03.41l.58.59.05-.05Z"/>
      <path class="cls-13" d="M114.51,68.91c.29.1.46.17.66-.1l.1.08-.77,1.09-.1-.07c.13-.22.11-.28.03-.35-.05-.04-.13-.07-.21-.09l-.44-.14-.56.8.14.22c.07.08.13.19.23.25.14.11.31,0,.42-.13l.1.08-.6.82-.1-.06c.12-.35.01-.53-.17-.82l-1.18-1.77.16-.56,2.27.75ZM112.39,68.86l.74,1.1.47-.69-1.21-.4Z"/>
      <path class="cls-13" d="M115.23,68.66c.13-.27.09-.39-.15-.51l-1.64-.83c-.24-.12-.36-.07-.48.18l-.11-.05.6-1.23.12.05c-.13.25-.09.38.14.49l1.65.83c.19.09.29.14.41-.11.21-.42.11-.92-.07-1.34l.08-.07.58.56-1.03,2.09-.11-.05Z"/>
      <path class="cls-13" d="M115.51,64.74c.05-.18.26-.29.44-.22.19.05.28.25.23.44-.06.19-.26.29-.43.23-.19-.06-.29-.26-.23-.45h0Z"/>
      <path class="cls-13" d="M84.46,61.28c.23-.19.45-.35.41-.69h.13s.14.94.14.94c-.09.07-.2.13-.29.2l-.43.3c-.46.31-.48.47-.45.62l.84-.14c.26-.04.33-.15.29-.41l.13-.03.2,1.37-.12.02c-.05-.28-.14-.36-.4-.31l-1.82.28c-.27.05-.34.16-.29.43l-.12.02-.25-1.64c-.09-.57.16-.96.56-1.02.41-.07.66.27.79.62.07-.13.18-.22.31-.29l.37-.27ZM83.79,62.61c-.1-.64-.34-.79-.73-.71-.38.05-.48.29-.43.7.05.25.15.25.37.22l.81-.14v-.07Z"/>
      <path class="cls-13" d="M84.89,60.44c.01-.28-.08-.37-.34-.38l-1.84-.08c-.27-.01-.36.09-.36.37h-.13s.08-2.33.08-2.33l.72-.22.05.13c-.34.25-.63.63-.65,1.07-.01.34.1.35.37.36l.75.04v-.08c.01-.38-.04-.56-.43-.7v-.15l1.11.05v.15c-.39.09-.48.29-.51.65v.08l.8.04c.22,0,.37,0,.38-.28.02-.49-.23-.91-.57-1.22l.05-.11.71.31-.09,2.32h-.12Z"/>
      <path class="cls-13" d="M84.1,56.45l.78.17c.26.07.36,0,.42-.29l.12.03-.29,1.35-.13-.04c.07-.26,0-.38-.25-.43l-1.8-.41c-.26-.05-.36.01-.42.28l-.13-.02.3-1.36c.19-.84.61-1.08.97-.99.69.15.6.84.49,1.36l-.07.33ZM83.95,56.42l.06-.22c.1-.46-.02-.71-.46-.81-.4-.08-.63.1-.71.45-.07.3.05.32.31.4l.8.17Z"/>
      <path class="cls-13" d="M85.09,54.1c.63.28.89.14,1.06-.23.2-.53-.05-.81-.56-1.02l-1.24-.51c-.25-.1-.36-.04-.47.22l-.12-.05.36-.89.11.05c-.1.26-.06.38.18.48l1.27.52c.61.25.83.66.55,1.35-.29.71-.75.93-1.29.71l-1.33-.55c-.25-.1-.37-.05-.47.22l-.11-.06.51-1.27.11.05c-.1.25-.06.37.19.48l1.24.5Z"/>
      <path class="cls-13" d="M86.63,52.84l-.1-.07c.14-.23.11-.37-.1-.51l-1.55-.99c-.22-.14-.35-.11-.49.12l-.11-.07.74-1.17c.53-.84.9-.86,1.18-.68.33.22.28.66.15.98h0c.29-.31.66-.6,1.1-.32.38.24.45.68.05,1.31l-.87,1.39ZM85.95,50.95c.25-.41.24-.69-.1-.89-.34-.22-.57-.09-.77.23-.05.07-.1.18-.09.26.03.07.1.11.16.14l.69.44.11-.19ZM86.66,51.66c.29.19.4.26.6-.08.22-.31.2-.65-.2-.9-.29-.19-.57-.24-.95.37l-.12.19.68.43Z"/>
      <path class="cls-13" d="M88.07,50.37c.19-.2.19-.34-.01-.51l-1.35-1.25c-.21-.18-.33-.17-.51.04l-.09-.08.92-1.02.09.09c-.18.2-.18.33.01.51l1.36,1.25c.17.16.25.22.44,0,.32-.34.35-.84.29-1.3l.1-.04.39.69-1.54,1.72-.09-.09Z"/>
      <path class="cls-13" d="M88.73,46.54c-.17-.2-.31-.21-.51-.03l-.08-.1,1.05-.88.08.1c-.22.19-.24.31-.06.52l1.17,1.42c.18.21.31.21.51.04l.08.09-1.05.89-.08-.1c.2-.19.22-.31.05-.51l-1.17-1.43Z"/>
      <path class="cls-13" d="M91.99,44.6l-.1.14c-.34-.23-.83-.39-1.2-.16-.48.32-.19,1.01.04,1.39.5.8,1.09.87,1.45.63.32-.19.38-.54.4-.89h.13c.02.53-.12.99-.59,1.29-.63.41-1.43.16-1.81-.47-.43-.68-.4-1.62.28-2.04.11-.08.22-.11.32-.14.09-.02.17-.04.24-.08.09-.07.14-.14.19-.23l.02-.04.64.6Z"/>
      <path class="cls-13" d="M95.1,44.8c.19.22.28.4.61.27l.05.13-1.23.5-.06-.11c.22-.11.26-.17.22-.28-.02-.07-.08-.14-.13-.2l-.29-.36-.9.37v.26c.02.1.02.22.07.32.07.19.26.19.43.13l.05.12-.94.38-.05-.12c.28-.23.28-.43.28-.77l-.07-2.13.45-.39,1.51,1.87ZM93.33,43.61l.04,1.31.77-.32-.81-.99Z"/>
      <path class="cls-13" d="M96.87,44.79c.28-.04.36-.13.33-.41l-.2-1.84c-.03-.27-.13-.35-.41-.32l-.02-.11,1.32-.15c.24-.03.45-.03.65.02.5.14.92.56.99,1.23.07.63-.24,1.14-.68,1.37-.19.1-.41.16-.65.18l-1.31.14-.02-.12ZM97.82,44.29c.02.28.03.37.37.33.47-.05.8-.36.68-1.42-.11-.93-.48-1.14-.99-1.08-.29.02-.28.15-.26.38l.21,1.79Z"/>
      <path class="cls-13" d="M99.73,44.49c.29.02.38-.06.4-.34l.13-1.86c.01-.25-.08-.35-.35-.37v-.12s2.29.15,2.29.15l.2.74-.12.05c-.25-.35-.61-.67-1.05-.69-.34-.02-.34.1-.36.38l-.04.74h.07c.38.02.56-.02.71-.4h.15s-.07,1.12-.07,1.12h-.16c-.08-.41-.26-.51-.63-.53l-.09-.02-.04.81c-.02.23-.01.38.26.39.47.04.92-.2,1.23-.53l.1.06-.33.7-2.3-.16v-.12Z"/>
      <path class="cls-13" d="M105.82,44.91l.42-1.22c.1-.32.13-.5-.22-.65l.04-.13.96.32-.06.11c-.36-.05-.44.08-.54.4l-.66,2.03-.34-.11-.76-2.57-.47,1.41c-.12.39-.11.48.25.69l-.04.13-1.02-.35.04-.13c.37.06.46-.02.57-.34l.57-1.69c-.07-.16-.19-.31-.34-.38l.05-.13.91.31.65,2.29Z"/>
      <path class="cls-13" d="M107.43,44.04c.13-.25.07-.37-.17-.48l.07-.11,1.2.62-.04.11c-.25-.13-.38-.1-.49.15l-.82,1.65c-.13.25-.07.37.16.5l-.05.11-1.22-.62.05-.12c.25.13.37.09.48-.14l.83-1.66Z"/>
      <path class="cls-13" d="M110.5,46.3l-.17-.06c.08-.4.03-.91-.33-1.16-.48-.32-.99.22-1.25.59-.51.77-.35,1.35,0,1.59.31.22.66.14.98,0l.05.12c-.47.24-.95.3-1.4-.02-.62-.44-.71-1.26-.3-1.87.44-.67,1.32-1.01,1.96-.57.12.08.2.17.25.26.07.07.13.14.18.18.08.06.18.08.28.09h.04l-.29.84Z"/>
      <path class="cls-13" d="M111.57,49.24c-.14.26-.25.44,0,.68l-.1.1-.95-.93.09-.1c.19.16.25.17.33.09.05-.06.1-.14.12-.2l.22-.42-.69-.69-.23.12c-.1.04-.21.1-.28.19-.13.13-.07.3.05.44l-.08.08-.73-.71.09-.09c.33.17.51.09.81-.05l1.91-.91.53.26-1.08,2.14ZM111.94,47.12l-1.18.56.6.59.58-1.15Z"/>
      <path class="cls-13" d="M113.36,51.66c-.14.26-.26.5-.1.78l-.1.07-.53-.78c.04-.12.11-.2.17-.32l.26-.45c.29-.47.23-.62.14-.76l-.71.49c-.22.16-.23.28-.07.51l-.1.07-.78-1.13.11-.07c.16.22.28.25.49.1l1.52-1.04c.22-.15.24-.29.08-.51l.1-.06.93,1.36c.31.47.26.94-.08,1.17-.35.24-.72.04-.97-.23,0,.14-.09.27-.16.4l-.22.42ZM113.4,50.17c.35.52.63.57.97.33.31-.21.3-.48.07-.82-.14-.21-.22-.16-.4-.04l-.68.46.04.07Z"/>
      <path class="cls-13" d="M114.75,54.79c-.24.19-.39.3-.28.62l-.11.05-.51-1.25.13-.05c.1.22.16.25.27.22.07-.02.13-.08.19-.13l.37-.31-.37-.9-.26.02c-.1,0-.23.01-.32.04-.17.08-.19.27-.13.44l-.13.04-.38-.94.13-.06c.22.31.42.31.75.29l2.12-.07.37.45-1.83,1.54ZM115.93,53l-1.31.04.32.79.99-.83Z"/>
      <path class="cls-13" d="M116.84,57.47l-.08-.12c.38-.43.58-.71.51-1.05-.08-.38-.49-.68-1.44-.47-.94.19-1.23.54-1.14.98.09.41.39.41.74.34.31-.07.32-.15.28-.44l.14-.03.27,1.28-.14.02c-.1-.3-.19-.32-.47-.25l-.56.11c-.07-.27-.07-.29-.19-.51-.11-.18-.19-.34-.23-.54-.16-.82.29-1.44,1.07-1.6.77-.16,1.64.23,1.81,1.05.04.1.02.22.01.31-.01.08-.02.16-.01.24.02.09.11.22.17.29l-.74.39Z"/>
      <path class="cls-13" d="M115.85,58.98c-.68,0-.88.23-.87.65,0,.56.35.72.9.71l1.33-.02c.26-.01.35-.1.34-.38h.13l.02.96h-.13c0-.29-.09-.38-.35-.38l-1.38.03c-.65.02-1.02-.28-1.02-1.02-.01-.78.33-1.17.92-1.18l1.44-.02c.26,0,.33-.1.33-.38h.13l.03,1.38h-.12c-.01-.28-.1-.36-.36-.36l-1.35.02Z"/>
      <path class="cls-13" d="M115.14,63.34c-.29.04-.5.04-.55.39l-.12-.02.2-1.35.13.02c-.02.25,0,.31.11.32.08.02.17,0,.23,0l.45-.05.18-.98-.25-.12c-.08-.05-.19-.11-.29-.12-.19-.04-.29.13-.34.3l-.11-.03.16-1.01.12.02c.05.37.22.47.5.63l1.84,1.07.08.57-2.35.35ZM117.07,62.42l-1.14-.64-.13.83,1.26-.19Z"/>
    </g>
  </g>
</svg>