<?xml version="1.0" encoding="UTF-8"?>
<svg xmlns="http://www.w3.org/2000/svg" version="1.1" viewBox="0 0 182.1 51.6">
  <defs>
    <style>
      .cls-1 {
        fill: #002350;
      }

      .cls-2 {
        fill: #00acbf;
      }
    </style>
  </defs>
  <!-- Generator: Adobe Illustrator 28.7.1, SVG Export Plug-In . SVG Version: 1.2.0 Build 142)  -->
  <g>
    <g id="Layer_1">
      <g>
        <g>
          <path class="cls-2" d="M10.6,13.3c-1.9,2.6-1.9,5.8,0,7.2,1.9,1.4,5,.4,6.9-2.2s1.9-5.8,0-7.2-5-.4-6.9,2.2"/>
          <path class="cls-2" d="M10.3,8.6c2.2-2,3.6-4.1,3.1-4.6s-2.7.6-4.9,2.6-3.6,4.1-3.1,4.6c.5.6,2.7-.6,4.9-2.6"/>
          <path class="cls-2" d="M14.8,35.3c-1.3-3.3-4.3-5.3-6.5-4.5-2.3.9-3,4.3-1.7,7.7,1.3,3.3,4.3,5.3,6.5,4.5,2.3-1,3-4.4,1.7-7.7"/>
          <path class="cls-2" d="M3.5,15.5c-1.6-.1-3.1,3.6-3.4,8.3-.3,4.7.6,8.6,2.2,8.7,1.6,0,3.1-3.6,3.4-8.3.4-4.6-.6-8.6-2.2-8.7"/>
          <path class="cls-2" d="M24.4,5c4.1-.3,7.3-1.7,7.2-3.2,0-.8-1.2-1.5-3-1.8-.2,0-1.2,0-1.4,0h-3c-1,0-2,.3-3,.4-.2,0-.3,0-.5,0-.2,0-.5,0-.7.2-2,.6-3.2,1.5-3.2,2.4.1,1.4,3.5,2.3,7.6,2"/>
          <path class="cls-2" d="M39.8,9.7c2.8,2.4,5.8,3.5,6.7,2.6.9-1-.5-3.7-3.3-6.1-2.8-2.4-5.8-3.5-6.7-2.6-.9,1,.6,3.7,3.3,6.1"/>
          <path class="cls-2" d="M29.7,13.4c-.8,1.6,0,3.6,1.5,4.3s3.5,0,4.3-1.6,0-3.6-1.5-4.3c-1.7-.7-3.6,0-4.3,1.6"/>
          <path class="cls-2" d="M35.8,35.3c.4-.8.4-1.9,0-2.7-.4-.9-1.4-1.4-2.1-2.1-1.5-1.2-2.3-2.8-2.1-4.7,0-.6.2-1.2.5-1.7.2-.5.6-1,1-1.4s.8-.7,1.3-1c.5-.2.9-.4,1.4-.5s.9-.1,1.4-.1c1,.1,1.9.6,2.9.6s2.4-.7,3-1.9c.5-1.1.4-2.3-.2-3.2-.5-.8-1.4-1.3-2.4-1.4-.9-.1-1.8.3-2.5.9,0,.1-.2.2-.3.4,0,0,0,.1,0,.2-.7,1.1-1.6,2.2-2.8,2.9-.5.2-1,.4-1.5.5-1,.2-2,.1-3-.4s-1.8-1.2-2.3-2.2c-.3-.6-.5-1.2-.6-1.8-.1-1.1.1-2.2.4-3.3,0-.2.1-.3.1-.5.1-.3.1-.6,0-.9-.1-1-.7-2-1.6-2.5-.1-.1-.2-.1-.3-.2-1.6-.7-3.4.1-4.2,1.7-.6,1.2-.3,2.6.5,3.6.6.6,1.3,1,2,1.6.6.5,1.1,1.2,1.5,1.9.4.8.5,1.8.4,2.7-.1.5-.2,1.1-.4,1.6-.2.5-.5.9-.9,1.3-1.6,1.7-3.9,2-6,1.3-1.6-.5-3.4.1-4.2,1.7s-.1,3.6,1.5,4.3c.8.4,1.7.4,2.5,0,.9-.4,1.4-1.1,2-1.9.3-.4.7-.8,1-1.2,1.2-1.3,3.1-1.9,4.9-1.4.3.1.6.2.8.3.5.2,1,.5,1.3.9,1,1,1.6,2.4,1.5,3.9s-1,3-.4,4.6.9,1.5,1.7,1.8c1.7.5,3.6-.2,4.3-1.8"/>
          <path class="cls-2" d="M45.1,24.6c-2.2-.9-4.9.7-6.1,3.5-1.2,2.8-.3,5.9,1.9,6.8s4.9-.7,6.1-3.5c1.1-2.9.3-5.9-1.9-6.8"/>
          <path class="cls-2" d="M49.7,18.2c-.2-1.8-1.4-3.1-2.6-3-1.2.2-1.9,1.8-1.7,3.6.2,1.8,1.4,3.1,2.6,3,1.2-.2,2-1.8,1.7-3.6"/>
          <path class="cls-2" d="M19.2,47.5c-3.6-1.1-6.7-1.3-6.9-.4-.1.2.1.5.4.8.1,0,.2.2.4.3.5.4,2.2,1.2,2.4,1.3,2,.9,4.2,1.6,6.5,1.9,1.8.2,3.1,0,3.3-.4.2-.8-2.5-2.4-6.1-3.5"/>
          <path class="cls-2" d="M51.9,25.1c-.6-.2-1.7,2.4-2.5,5.8s-.9,6.3-.3,6.5c.6,0,1.7-2.5,2.5-5.9.8-3.4.9-6.2.3-6.4"/>
          <path class="cls-2" d="M35.8,41.2c-3.7,2.3-5.8,5.6-4.6,7.4.9,1.4,3.6,1.5,6.6.4.2,0,1.1-.5,1.3-.6,1.2-.7,2.4-1.5,3.5-2.3l.5-.5c1.8-1.9,2.6-3.9,1.8-5.2-1.3-1.8-5.3-1.4-9.1.8"/>
          <path class="cls-2" d="M21.4,35.9c-2.2,1.4-2.9,4.1-1.6,6.3,1.3,2.3,4.4,3,6.8,1.6,2.5-1.5,3.2-4.6,1.5-6.8-1.5-2.1-4.5-2.5-6.7-1.1Z"/>
        </g>
        <g>
          <path class="cls-1" d="M132.8,31.7c.9,0,1.6-.7,1.6-1.5s-.7-1.5-1.5-1.6c-.8,0-1.5.7-1.6,1.5-.1.9.6,1.6,1.5,1.6Z"/>
          <path class="cls-1" d="M101,36.5c0-.6-.2-1.2-.4-1.8-.3-.7-.7-1.4-1.3-1.9-.4-.4-.9-.8-1.4-1l-.6-.3c-.7-.3-1.5-.5-2.3-.5s-1.6.2-2.3.5c-.4.2-.8.4-1.2.7-.3.2-.5.4-.7.6s0,0-.2.2q0,0-.2-.2c-.4-.4-.9-.7-1.3-1l-.6-.3c-.7-.3-1.5-.5-2.3-.5s-1.6.2-2.3.5c-.4.2-.8.4-1.2.7-.3.2-.5.4-.7.6-.6.6-1,1.2-1.3,1.9s-.5,1.5-.5,2.3v6.6c0,1.7,1.3,3,3,3h0v-9.7c0-1.6,1.4-2.8,2.9-2.8s2.8,1.2,2.9,2.7v6.8c0,1.7,1.3,3,3,3h0v-9.5h0c0-1.6,1.3-3,2.9-3s2.7,1.1,2.9,2.6v6.9c0,1.7,1.3,3,3,3h0v-10.1h0Z"/>
          <path class="cls-1" d="M77.9,38.6c0-4.2-3.5-7.6-7.7-7.6s-7.7,3.5-7.7,7.8,3.5,7.8,7.7,7.8,3.6-.7,4.9-1.8c.5,1,1.5,1.8,2.7,1.8h0v-8h0ZM70.2,43.5c-2.6,0-4.7-2.1-4.7-4.7s2.1-4.7,4.7-4.7,4.7,2.1,4.7,4.7-2.1,4.7-4.7,4.7Z"/>
          <path class="cls-1" d="M182,40.8c-.4-1.2-1.3-2.1-2.4-2.6-.8-.4-1.7-.5-2.6-.7-.2,0-.5,0-.7-.2-.7-.2-1.5-.3-2-.9-.2-.3-.4-.6-.4-1,0-.9.8-1.5,1.6-1.7.2,0,.5,0,.7,0,.5,0,.9,0,1.4.3.2,0,.5.3.7.4.6.3,1.3.6,2,.6h1.8s0,0-.1,0c-.2-.5-.4-1.1-.8-1.5-.5-.7-1.2-1.3-2-1.7-.1,0-.2,0-.3,0-.7-.3-1.6-.5-2.5-.5h-.1c-.8,0-1.5.2-2.2.4-.1,0-.2,0-.3,0-1.1.5-1.9,1.3-2.5,2.3-.3.6-.5,1.3-.5,2,0,1.3.6,2.2,1.6,2.9.7.4,1.5.7,2.2.9s1.4.4,2.1.6c.5.2,1.1.3,1.6.5.2,0,.5.4.6.6.3.7.1,1.5-.5,1.9-.1,0-.3.2-.5.3-.8.3-1.8.3-2.6,0-.4,0-.8-.3-1.2-.5-.2,0-.5-.3-.7-.5-.4-.2-.9-.3-1.4-.3h-1.3c0,.2,0,.3.1.5.5,2.2,2.9,3.8,5.6,3.8h.5c1.2,0,2.4-.5,3.4-1.3.9-.7,1.6-1.8,1.7-3,.2-.4,0-.9,0-1.4h0Z"/>
          <path class="cls-1" d="M144.2,34.1c1.1,0,2.1.4,2.8,1,0,0,.1,0,.1,0,.5.4,1.1.6,1.7.6h2.4c-.1-.2-.2-.5-.3-.7-1-1.8-2.6-3.1-4.5-3.7-.7-.2-1.4-.3-2.2-.3-4.3,0-7.7,3.5-7.7,7.8s3.5,7.8,7.7,7.8,1.5,0,2.2-.3c1.9-.6,3.6-1.9,4.5-3.7.1-.2.2-.5.3-.7h-2.4c-.7,0-1.3.2-1.7.6h-.1c-.8.7-1.8,1.1-2.8,1.1-2.6,0-4.7-2.1-4.7-4.7s2.1-4.9,4.7-4.9h0Z"/>
          <path class="cls-1" d="M131.4,33.3h0v10.2c-.1,1.7,1.2,3,2.9,3h.1v-10.2c0-1.6-1.4-3-3-3h0Z"/>
          <path class="cls-1" d="M118.6,38.8c0-.5,0-1,0-1.5-.7-3.6-3.8-6.3-7.6-6.3s-7.7,3.5-7.7,7.8,3.5,7.8,7.7,7.8,1.5,0,2.2-.3c1.1-.3,2.1-.9,2.9-1.7.6-.6,1.2-1.3,1.6-2h0c0-.2.2-.5.3-.7h-2.5c-.6,0-1.2.3-1.7.6h0c-.8.6-1.8,1-2.9,1-1.6,0-3-.8-3.9-2-.4-.6-.7-1.2-.8-1.9h12.3c.3-.3.3-.5.3-.8ZM106.3,37.3c.6-1.9,2.4-3.3,4.5-3.3s3.8,1.4,4.5,3.3h-9Z"/>
          <path class="cls-1" d="M168.6,38.6c-.1-4.2-3.5-7.6-7.7-7.6s-7.7,3.5-7.7,7.8,3.5,7.8,7.7,7.8,3.6-.7,4.9-1.8c.5,1,1.5,1.8,2.7,1.8h.1v-8h0ZM160.9,43.5c-2.6,0-4.7-2.1-4.7-4.7s2.1-4.7,4.7-4.7,4.7,2.1,4.7,4.7c0,2.6-2.2,4.7-4.7,4.7Z"/>
          <path class="cls-1" d="M127.6,31h0c-1.6,0-3.1.6-4.2,1.5-.5.4-1,.9-1.3,1.4-.8,1.1-1.3,2.5-1.3,4v5.8c0,1.6,1.3,3,3,3h0v-8.8c0-1.7,1.2-3.2,2.8-3.6.1,0,.2,0,.3,0,1.2-.3,2.2-1.5,2.2-2.8v-.4h-1.6Z"/>
          <path class="cls-1" d="M86.5,10.3c-4.3,0-7.7,3.5-7.7,7.8s3.5,7.8,7.7,7.8,7.7-3.5,7.7-7.8-3.4-7.8-7.7-7.8ZM86.5,22.8c-2.6,0-4.7-2.1-4.7-4.7s2.1-4.7,4.7-4.7,4.7,2.1,4.7,4.7-2.1,4.7-4.7,4.7Z"/>
          <path class="cls-1" d="M70.2,13.3c1.1,0,2.1.4,2.8,1h0c.5.5,1.1.7,1.7.7h2.4c0-.2-.2-.5-.3-.7-1-1.8-2.6-3.1-4.5-3.7-.7-.2-1.4-.3-2.2-.3-4.3,0-7.7,3.5-7.7,7.8s3.5,7.8,7.7,7.8,1.5-.1,2.2-.3c2-.6,3.6-1.9,4.5-3.7,0-.2.2-.5.3-.7h-2.4c-.7,0-1.3.2-1.7.6h0c-.8.7-1.8,1.1-2.8,1.1-2.6,0-4.7-2.1-4.7-4.7,0-2.8,2.1-4.9,4.7-4.9h0Z"/>
          <path class="cls-1" d="M103.2,10.2c-2.3,0-4.3,1.1-5.6,2.8-.8,1.1-1.3,2.5-1.3,4v5.8c0,1.6,1.3,3,3,3h0v-8.8c0-2.1,1.7-3.8,3.8-3.8s3.8,1.7,3.8,3.8v5.8c0,1.6,1.3,3,3,3h0v-8.8c0-1.2-.3-2.4-.9-3.4-1.2-2-3.4-3.4-6-3.4h0Z"/>
          <path class="cls-1" d="M143.5,18.1c0-.5,0-1-.1-1.5-.7-3.6-3.8-6.3-7.6-6.3s-7.7,3.5-7.7,7.8,3.5,7.8,7.7,7.8,1.5-.1,2.2-.3c1.1-.3,2.1-.9,2.9-1.7.6-.6,1.2-1.3,1.6-2h0c.1-.2.2-.5.3-.7h-2.5c-.6,0-1.2.3-1.7.6h-.1c-.8.7-1.8,1.1-2.9,1.1-1.6,0-3-.8-3.9-2-.4-.6-.7-1.2-.8-1.9h12.3c.3-.4.3-.7.3-.9ZM131.4,16.6c.6-1.9,2.4-3.3,4.5-3.3s3.8,1.4,4.5,3.3h-9Z"/>
          <path class="cls-1" d="M119.1,10.2c-2.3,0-4.3,1.1-5.6,2.8-.8,1.1-1.3,2.5-1.3,4v5.8c0,1.6,1.3,3,3,3h0v-8.8c0-2.1,1.7-3.7,3.8-3.7s3.8,1.7,3.8,3.7v5.8c0,1.6,1.3,3,3,3h.1v-8.8c0-1.2-.3-2.4-.9-3.4-1.2-2-3.4-3.4-6-3.4h0Z"/>
          <path class="cls-1" d="M166.9,22.9c-.8-.3-1.2-1-1.2-2.2v-7.5h.2c1.6-.1,2.9-1.3,2.9-2.9h-3.2v-1.3c0-1.7-1.4-3-3-3h-.1c0-.1,0,15,0,15,0,1.2.3,2.2.8,3,.9,1.3,2.5,1.9,4.8,1.9h.6v-.2c.2-1.3-.6-2.4-1.8-2.8h0Z"/>
          <path class="cls-1" d="M153.4,13.3c1.1,0,2.1.4,2.8,1h.1c.5.5,1.1.7,1.7.7h2.4c-.1-.2-.2-.5-.3-.7-1-1.8-2.6-3.1-4.5-3.7-.7-.2-1.4-.3-2.2-.3-4.3,0-7.7,3.5-7.7,7.8s3.4,7.8,7.7,7.8,1.5-.1,2.2-.3c1.9-.6,3.6-1.9,4.5-3.7.1-.2.2-.5.3-.7h-2.4c-.7,0-1.3.2-1.7.6h-.1c-.8.7-1.8,1.1-2.8,1.1-2.6,0-4.7-2.1-4.7-4.7s2.1-4.9,4.7-4.9h0Z"/>
        </g>
      </g>
    </g>
  </g>
</svg>