<?xml version="1.0" encoding="utf-8"?>
<svg width="260px" height="52px" viewBox="0 0 260 52" version="1.1" xmlns:xlink="http://www.w3.org/1999/xlink" xmlns="http://www.w3.org/2000/svg">
  <desc>Created with Lunacy</desc>
  <defs>
    <radialGradient gradientUnits="objectBoundingBox" cx="49.99585%" cy="49.99812%" fx="49.99585%" fy="49.99812%" r="50.19354%" gradientTransform="translate(0.4999585,0.4999812),scale(0.9923182,1),rotate(-45),translate(-0.4999585,-0.4999812)" id="gradient_1">
      <stop offset="0%" stop-color="#20667D" />
      <stop offset="100%" stop-color="#26788E" />
    </radialGradient>
    <path d="M9.98834 2.51405C8.72802 4.71426 8.01106 7.23687 8.01106 9.91977C8.01106 18.5037 15.3369 25.4394 24.3471 25.4394C27.4674 25.4394 30.3837 24.6081 32.865 23.1645L35.3038 21.7459L34.1663 24.3277C31.7122 29.8977 25.0868 33.4505 18.1716 33.4505C8.12362 33.4505 0 25.6678 0 16.0957C0 9.79191 3.13655 3.87431 8.80363 1.22628L11.4283 0L9.98834 2.51405ZM1.83529 16.0956C1.83529 11.5091 3.67239 7.13165 7.11033 4.41388C6.50398 6.14395 6.17577 7.99546 6.17577 9.91976C6.17577 19.4921 14.2994 27.2747 24.3471 27.2747C26.6752 27.2747 28.9008 26.8561 30.9456 26.0938C28.1303 29.5623 23.2178 31.6152 18.1716 31.6152C9.16118 31.6152 1.83529 24.6794 1.83529 16.0956Z" transform="translate(0.04576 0.1508)" id="path_1" />
    <path d="M2.52836 10.1831L0 11.6777L1.22784 9.00946C3.76061 3.50572 10.2893 0 17.156 0C27.204 0 35.3276 7.78287 35.3276 17.3548C35.3276 23.6184 32.2669 29.5594 26.6219 32.164L23.9806 33.3827L25.4445 30.8689C26.7387 28.6464 27.4786 26.0901 27.4786 23.3685C27.4786 14.7848 20.1528 7.84894 11.1424 7.84894C7.98105 7.84894 5.03088 8.70388 2.52836 10.1831ZM33.4923 17.3548C33.4923 21.8865 31.7249 26.2528 28.3498 28.954C28.9747 27.201 29.3139 25.3227 29.3139 23.3685C29.3139 13.7965 21.1903 6.01365 11.1424 6.01365C8.81522 6.01365 6.59149 6.43271 4.54752 7.19496C7.39162 3.82689 12.1922 1.83529 17.156 1.83529C26.1664 1.83529 33.4923 8.77118 33.4923 17.3548Z" transform="translate(0.09727059 0.1608941)" id="path_2" />
    <path d="M4.04893 4.04009C4.43685 2.61407 5.00882 1.25901 5.74212 0L7.32802 0.923765C6.59488 2.18247 6.04261 3.54915 5.69997 4.992L5.57308 5.52607L5.04238 5.66708C3.57641 6.05586 2.19177 6.63 0.922939 7.3684L0 5.78209C1.25644 5.05104 2.61499 4.46435 4.04893 4.04009Z" transform="translate(0.2117624 0.2217647)" id="path_3" />
    <path d="M3.22216 3.38722C2.84532 4.77345 2.29626 6.09302 1.59242 7.32181L0 6.40958C0.705976 5.177 1.23699 3.84179 1.57132 2.43485L1.69826 1.9006L2.22927 1.75996C3.73238 1.36157 5.14922 0.765685 6.44433 0L7.37849 1.57991C6.09165 2.34058 4.69713 2.9506 3.22216 3.38722Z" transform="translate(0.1526353 0.11336)" id="path_4" />
    <path d="M23.0404 21.8854C21.4905 22.2964 19.8586 22.5205 18.1714 22.5205C8.12362 22.5205 0 14.7378 0 5.16574C0 3.83974 0.16068 2.55075 0.455551 1.31009L0.582492 0.776024L1.11308 0.635318C2.66292 0.224212 4.2944 0 5.98214 0C16.0302 0 24.1538 7.78256 24.1538 17.355C24.1538 18.6805 23.9926 19.9699 23.6978 21.2106L23.5708 21.7446L23.0404 21.8854ZM22.3186 17.355C22.3186 18.3432 22.2176 19.3087 22.0301 20.2452C20.7928 20.5311 19.5011 20.6852 18.1714 20.6852C9.16118 20.6852 1.83529 13.7494 1.83529 5.16574C1.83529 4.17713 1.93593 3.21176 2.12322 2.27546C3.36064 1.98946 4.65204 1.83529 5.98214 1.83529C14.9927 1.83529 22.3186 8.77087 22.3186 17.355Z" transform="translate(-0.0001529412 0.1150118)" id="path_5" />
    <rect width="260" height="52" id="artboard_1" />
    <clipPath id="clip_1">
      <use xlink:href="#artboard_1" clip-rule="evenodd" />
    </clipPath>
    <clipPath id="mask_1">
      <use xlink:href="#path_1" />
    </clipPath>
    <clipPath id="mask_2">
      <use xlink:href="#path_2" />
    </clipPath>
    <clipPath id="mask_3">
      <use xlink:href="#path_3" />
    </clipPath>
    <clipPath id="mask_4">
      <use xlink:href="#path_4" />
    </clipPath>
    <clipPath id="mask_5">
      <use xlink:href="#path_5" />
    </clipPath>
  </defs>
  <g id="Logo" clip-path="url(#clip_1)">
    <use xlink:href="#artboard_1" stroke="none" fill="transparent" />
    <g id="Group-35">
      <g id="Group-3" transform="translate(0 13.64939)">
        <path d="M9.98834 2.51405C8.72802 4.71426 8.01106 7.23687 8.01106 9.91977C8.01106 18.5037 15.3369 25.4394 24.3471 25.4394C27.4674 25.4394 30.3837 24.6081 32.865 23.1645L35.3038 21.7459L34.1663 24.3277C31.7122 29.8977 25.0868 33.4505 18.1716 33.4505C8.12362 33.4505 0 25.6678 0 16.0957C0 9.79191 3.13655 3.87431 8.80363 1.22628L11.4283 0L9.98834 2.51405ZM1.83529 16.0956C1.83529 11.5091 3.67239 7.13165 7.11033 4.41388C6.50398 6.14395 6.17577 7.99546 6.17577 9.91976C6.17577 19.4921 14.2994 27.2747 24.3471 27.2747C26.6752 27.2747 28.9008 26.8561 30.9456 26.0938C28.1303 29.5623 23.2178 31.6152 18.1716 31.6152C9.16118 31.6152 1.83529 24.6794 1.83529 16.0956Z" transform="translate(0.04576 0.1508)" id="Clip-2" fill="none" fill-rule="evenodd" stroke="none" />
        <g clip-path="url(#mask_1)">
          <path d="M9.98834 2.51405C8.72802 4.71426 8.01106 7.23687 8.01106 9.91977C8.01106 18.5037 15.3369 25.4394 24.3471 25.4394C27.4674 25.4394 30.3837 24.6081 32.865 23.1645L35.3038 21.7459L34.1663 24.3277C31.7122 29.8977 25.0868 33.4505 18.1716 33.4505C8.12362 33.4505 0 25.6678 0 16.0957C0 9.79191 3.13655 3.87431 8.80363 1.22628L11.4283 0L9.98834 2.51405ZM1.83529 16.0956C1.83529 11.5091 3.67239 7.13165 7.11033 4.41388C6.50398 6.14395 6.17577 7.99546 6.17577 9.91976C6.17577 19.4921 14.2994 27.2747 24.3471 27.2747C26.6752 27.2747 28.9008 26.8561 30.9456 26.0938C28.1303 29.5623 23.2178 31.6152 18.1716 31.6152C9.16118 31.6152 1.83529 24.6794 1.83529 16.0956Z" transform="translate(0.04576 0.1508)" id="Fill-1" fill="#1A657D" fill-rule="evenodd" stroke="none" />
        </g>
      </g>
      <g id="Group-6" transform="translate(13.15294 0.1905647)">
        <path d="M2.52836 10.1831L0 11.6777L1.22784 9.00946C3.76061 3.50572 10.2893 0 17.156 0C27.204 0 35.3276 7.78287 35.3276 17.3548C35.3276 23.6184 32.2669 29.5594 26.6219 32.164L23.9806 33.3827L25.4445 30.8689C26.7387 28.6464 27.4786 26.0901 27.4786 23.3685C27.4786 14.7848 20.1528 7.84894 11.1424 7.84894C7.98105 7.84894 5.03088 8.70388 2.52836 10.1831ZM33.4923 17.3548C33.4923 21.8865 31.7249 26.2528 28.3498 28.954C28.9747 27.201 29.3139 25.3227 29.3139 23.3685C29.3139 13.7965 21.1903 6.01365 11.1424 6.01365C8.81522 6.01365 6.59149 6.43271 4.54752 7.19496C7.39162 3.82689 12.1922 1.83529 17.156 1.83529C26.1664 1.83529 33.4923 8.77118 33.4923 17.3548Z" transform="translate(0.09727059 0.1608941)" id="Clip-5" fill="none" fill-rule="evenodd" stroke="none" />
        <g clip-path="url(#mask_2)">
          <path d="M2.52836 10.1831L0 11.6777L1.22784 9.00946C3.76061 3.50572 10.2893 0 17.156 0C27.204 0 35.3276 7.78287 35.3276 17.3548C35.3276 23.6184 32.2669 29.5594 26.6219 32.164L23.9806 33.3827L25.4445 30.8689C26.7387 28.6464 27.4786 26.0901 27.4786 23.3685C27.4786 14.7848 20.1528 7.84894 11.1424 7.84894C7.98105 7.84894 5.03088 8.70388 2.52836 10.1831ZM33.4923 17.3548C33.4923 21.8865 31.7249 26.2528 28.3498 28.954C28.9747 27.201 29.3139 25.3227 29.3139 23.3685C29.3139 13.7965 21.1903 6.01365 11.1424 6.01365C8.81522 6.01365 6.59149 6.43271 4.54752 7.19496C7.39162 3.82689 12.1922 1.83529 17.156 1.83529C26.1664 1.83529 33.4923 8.77118 33.4923 17.3548Z" transform="translate(0.09727059 0.1608941)" id="Fill-4" fill="#1A657D" fill-rule="evenodd" stroke="none" />
        </g>
      </g>
      <g id="Group-9" transform="translate(8.564706 9.061153)">
        <path d="M4.04893 4.04009C4.43685 2.61407 5.00882 1.25901 5.74212 0L7.32802 0.923765C6.59488 2.18247 6.04261 3.54915 5.69997 4.992L5.57308 5.52607L5.04238 5.66708C3.57641 6.05586 2.19177 6.63 0.922939 7.3684L0 5.78209C1.25644 5.05104 2.61499 4.46435 4.04893 4.04009Z" transform="translate(0.2117624 0.2217647)" id="Clip-8" fill="none" stroke="none" />
        <g clip-path="url(#mask_3)">
          <path d="M4.04893 4.04009C4.43685 2.61407 5.00882 1.25901 5.74212 0L7.32802 0.923765C6.59488 2.18247 6.04261 3.54915 5.69997 4.992L5.57308 5.52607L5.04238 5.66708C3.57641 6.05586 2.19177 6.63 0.922939 7.3684L0 5.78209C1.25644 5.05104 2.61499 4.46435 4.04893 4.04009Z" transform="translate(0.2117624 0.2217647)" id="Fill-7" fill="#1A657D" stroke="none" />
        </g>
      </g>
      <g id="Group-12" transform="translate(32.42353 30.7788)">
        <path d="M3.22216 3.38722C2.84532 4.77345 2.29626 6.09302 1.59242 7.32181L0 6.40958C0.705976 5.177 1.23699 3.84179 1.57132 2.43485L1.69826 1.9006L2.22927 1.75996C3.73238 1.36157 5.14922 0.765685 6.44433 0L7.37849 1.57991C6.09165 2.34058 4.69713 2.9506 3.22216 3.38722Z" transform="translate(0.1526353 0.11336)" id="Clip-11" fill="none" stroke="none" />
        <g clip-path="url(#mask_4)">
          <path d="M3.22216 3.38722C2.84532 4.77345 2.29626 6.09302 1.59242 7.32181L0 6.40958C0.705976 5.177 1.23699 3.84179 1.57132 2.43485L1.69826 1.9006L2.22927 1.75996C3.73238 1.36157 5.14922 0.765685 6.44433 0L7.37849 1.57991C6.09165 2.34058 4.69713 2.9506 3.22216 3.38722Z" transform="translate(0.1526353 0.11336)" id="Fill-10" fill="url(#gradient_1)" stroke="none" />
        </g>
      </g>
      <g id="Group-15" transform="translate(12.23529 12.42586)">
        <path d="M23.0404 21.8854C21.4905 22.2964 19.8586 22.5205 18.1714 22.5205C8.12362 22.5205 0 14.7378 0 5.16574C0 3.83974 0.16068 2.55075 0.455551 1.31009L0.582492 0.776024L1.11308 0.635318C2.66292 0.224212 4.2944 0 5.98214 0C16.0302 0 24.1538 7.78256 24.1538 17.355C24.1538 18.6805 23.9926 19.9699 23.6978 21.2106L23.5708 21.7446L23.0404 21.8854ZM22.3186 17.355C22.3186 18.3432 22.2176 19.3087 22.0301 20.2452C20.7928 20.5311 19.5011 20.6852 18.1714 20.6852C9.16118 20.6852 1.83529 13.7494 1.83529 5.16574C1.83529 4.17713 1.93593 3.21176 2.12322 2.27546C3.36064 1.98946 4.65204 1.83529 5.98214 1.83529C14.9927 1.83529 22.3186 8.77087 22.3186 17.355Z" transform="translate(-0.0001529412 0.1150118)" id="Clip-14" fill="none" fill-rule="evenodd" stroke="none" />
        <g clip-path="url(#mask_5)">
          <path d="M23.0404 21.8854C21.4905 22.2964 19.8586 22.5205 18.1714 22.5205C8.12362 22.5205 0 14.7378 0 5.16574C0 3.83974 0.16068 2.55075 0.455551 1.31009L0.582492 0.776024L1.11308 0.635318C2.66292 0.224212 4.2944 0 5.98214 0C16.0302 0 24.1538 7.78256 24.1538 17.355C24.1538 18.6805 23.9926 19.9699 23.6978 21.2106L23.5708 21.7446L23.0404 21.8854ZM22.3186 17.355C22.3186 18.3432 22.2176 19.3087 22.0301 20.2452C20.7928 20.5311 19.5011 20.6852 18.1714 20.6852C9.16118 20.6852 1.83529 13.7494 1.83529 5.16574C1.83529 4.17713 1.93593 3.21176 2.12322 2.27546C3.36064 1.98946 4.65204 1.83529 5.98214 1.83529C14.9927 1.83529 22.3186 8.77087 22.3186 17.355Z" transform="translate(-0.0001529412 0.1150118)" id="Fill-13" fill="#1A657D" fill-rule="evenodd" stroke="none" />
        </g>
      </g>
      <path d="M9.26518 8.62344L15.938 8.62344L15.938 17.6834C14.107 18.6756 11.9254 19.1718 9.39334 19.1718C6.58718 19.1718 4.31998 18.2905 2.59235 16.5284C0.863812 14.7662 0 12.4564 0 9.59859C0 6.82668 0.893788 4.53409 2.68198 2.72052C4.46986 0.906941 6.72421 0 9.44473 0C12.1481 0 14.3468 0.769906 16.0408 2.30972L15.1938 3.54181C13.8247 2.07052 11.9086 1.33456 9.44473 1.33456C7.15184 1.33456 5.25261 2.11334 3.74706 3.66998C2.2412 5.22722 1.48873 7.20322 1.48873 9.59859C1.48873 12.0796 2.22009 14.073 3.68282 15.5786C5.14586 17.0844 7.08362 17.8372 9.49612 17.8372C11.6688 17.8372 13.3542 17.4949 14.552 16.8107L14.552 9.958L9.26518 9.958L9.26518 8.62344Z" transform="translate(55.57423 1.382588)" id="Fill-16" fill="#1A657D" stroke="none" />
      <path d="M0 0L1.28318 0L1.28318 15.348C1.28318 16.3231 1.44591 17.0159 1.77106 17.4267C2.09591 17.8372 2.652 18.0428 3.43934 18.0428C3.81527 18.0428 4.11503 18.0088 4.33741 17.94L3.87553 19.1721C3.51612 19.2746 3.1567 19.326 2.7976 19.326C1.92492 19.326 1.24035 18.9965 0.744211 18.338C0.247765 17.6794 0 16.7682 0 15.6046L0 0Z" transform="translate(76.85049 1.151647)" id="Fill-17" fill="#1A657D" stroke="none" />
      <path d="M6.80129 0C4.88464 0 3.27233 0.676 1.96346 2.02739C0.654282 3.37939 0 5.03911 0 7.00654C0 8.95685 0.654282 10.6083 1.96346 11.9597C3.27233 13.3117 4.88464 13.9874 6.80129 13.9874C8.71734 13.9874 10.3342 13.316 11.652 11.9725C12.9694 10.6297 13.6283 8.97428 13.6283 7.00654C13.6283 5.03911 12.9694 3.37939 11.652 2.02739C10.3342 0.676 8.71734 0 6.80129 0ZM2.93861 2.88722C3.97372 1.7836 5.26118 1.23179 6.80129 1.23179C8.32398 1.23179 9.61174 1.78788 10.6637 2.90007C11.7162 4.01256 12.2423 5.38108 12.2423 7.00654C12.2423 8.61487 11.7162 9.97513 10.6637 11.0873C9.61174 12.1995 8.32398 12.7553 6.80129 12.7553C5.26118 12.7553 3.97372 12.2081 2.93861 11.113C1.9032 10.0183 1.38595 8.64913 1.38595 7.00654C1.38595 5.36395 1.9032 3.99085 2.93861 2.88722Z" transform="translate(83.24068 6.669765)" id="Fill-18" fill="#1A657D" fill-rule="evenodd" stroke="none" />
      <path d="M1.28348 0L0 0L0 19.1204L1.18071 19.1204L1.18071 16.6311C2.32685 18.5475 4.06365 19.5055 6.3908 19.5055C8.08447 19.5055 9.50009 18.8427 10.6383 17.5164C11.7759 16.1907 12.3451 14.5264 12.3451 12.5247C12.3451 10.5227 11.7759 8.85438 10.6383 7.51981C9.50009 6.18525 8.08447 5.51812 6.3908 5.51812C5.27831 5.51812 4.25605 5.77904 3.32372 6.30087C2.39108 6.82301 1.7108 7.51155 1.28348 8.3668L1.28348 0ZM2.57951 8.39249C3.51184 7.29774 4.67113 6.74991 6.05708 6.74991C7.45986 6.74991 8.62772 7.29774 9.56035 8.39249C10.4927 9.48755 10.9592 10.8652 10.9592 12.5247C10.9592 14.1672 10.4927 15.5364 9.56035 16.6311C8.62772 17.7262 7.45986 18.2734 6.05708 18.2734C4.654 18.2734 3.49042 17.7262 2.56666 16.6311C1.64259 15.5364 1.18071 14.1672 1.18071 12.5247C1.18071 10.8652 1.64687 9.48755 2.57951 8.39249Z" transform="translate(101.2061 1.151647)" id="Fill-19" fill="#1A657D" fill-rule="evenodd" stroke="none" />
      <path d="M1.07824 1.71936L1.79675 2.79729C2.31002 2.30146 2.93005 1.90809 3.65744 1.61689C4.38452 1.326 5.09019 1.1804 5.77475 1.1804C7.00654 1.1804 7.96487 1.56153 8.64944 2.32256C9.33339 3.08421 9.67567 4.14929 9.67567 5.51781L9.67567 6.18525L5.74906 6.18525C3.93518 6.18525 2.52384 6.52784 1.51442 7.21179C0.504706 7.89635 0 8.85438 0 10.0862C0 11.1987 0.436494 12.1099 1.30887 12.8195C2.18155 13.5298 3.31087 13.8846 4.69682 13.8846C5.82614 13.8846 6.85666 13.6283 7.78929 13.1147C8.72193 12.6014 9.38478 11.9257 9.77845 11.0873C9.77845 11.8058 9.96228 12.4179 10.3306 12.9223C10.6979 13.4273 11.1473 13.6797 11.6777 13.6797C12.02 13.6797 12.2595 13.6451 12.3965 13.5769L12.6531 12.6014C12.0025 12.6014 11.5581 12.4179 11.3186 12.0496C11.0784 11.682 10.9588 10.9845 10.9588 9.958L10.9588 4.97885C10.9588 3.43904 10.5187 2.22438 9.63743 1.33456C8.75588 0.445059 7.56264 0 6.05708 0C4.08934 0 2.42962 0.573224 1.07824 1.71936ZM6.13416 7.21179L9.67567 7.21179L9.67567 8.39249C9.67567 9.62428 9.21807 10.6597 8.30287 11.4978C7.38736 12.3365 6.27089 12.7556 4.95346 12.7556C3.87553 12.7556 3.01141 12.5118 2.36141 12.0239C1.7108 11.5364 1.38595 10.8992 1.38595 10.1119C1.38595 9.18809 1.80073 8.47386 2.63089 7.96885C3.46045 7.46445 4.62831 7.21179 6.13416 7.21179Z" transform="translate(117.1695 6.669765)" id="Fill-20" fill="#1A657D" fill-rule="evenodd" stroke="none" />
      <path d="M0 0L1.28318 0L1.28318 15.348C1.28318 16.3231 1.4456 17.0159 1.77076 17.4267C2.0956 17.8372 2.6517 18.0428 3.43904 18.0428C3.81528 18.0428 4.11474 18.0088 4.33742 17.94L3.87523 19.1721C3.51612 19.2746 3.15671 19.326 2.7976 19.326C1.92492 19.326 1.24035 18.9965 0.744213 18.338C0.247765 17.6794 0 16.7682 0 15.6046L0 0Z" transform="translate(133.7235 1.151647)" id="Fill-21" fill="#1A657D" stroke="none" />
      <path d="M0 0L14.6034 0L14.6034 2.72052L8.7516 2.72052L8.7516 18.8895L5.85153 18.8895L5.85153 2.72052L0 2.72052L0 0Z" transform="translate(54.85572 27.04774)" id="Fill-22" fill="#1A657D" stroke="none" />
      <path d="M0 0.359412L2.51527 0.359412L2.51527 2.74621C2.75447 1.90809 3.16527 1.24066 3.74706 0.744212C4.32854 0.248376 5.00454 0 5.77476 0C6.61287 0 7.39165 0.342588 8.11017 1.02685L7.13502 3.54181C6.60431 3.07993 6.0057 2.84899 5.33826 2.84899C4.51697 2.84899 3.88807 3.20809 3.45188 3.92692C3.0157 4.64543 2.7976 5.68941 2.7976 7.05793L2.7976 13.8078L0 13.8078L0 0.359412Z" transform="translate(72.15367 32.12939)" id="Fill-23" fill="#1A657D" stroke="none" />
      <path d="M0.898376 1.71967L2.20725 4.004C2.70339 3.50755 3.31087 3.11419 4.02969 2.82329C4.74821 2.53271 5.44134 2.3868 6.10847 2.3868C7.15184 2.3868 7.95202 2.65231 8.50812 3.18271C9.06391 3.71311 9.34226 4.48301 9.34226 5.49242L9.34226 6.03139L5.98 6.03139C4.11504 6.03139 2.652 6.38682 1.59151 7.09647C0.5304 7.80673 0 8.79473 0 10.0608C0 11.31 0.457906 12.3154 1.37311 13.0765C2.28831 13.8375 3.49073 14.2186 4.97915 14.2186C6.00569 14.2186 6.94261 14.0045 7.7896 13.5769C8.63659 13.1493 9.28231 12.5675 9.72737 11.8315C9.89805 12.465 10.2189 12.9826 10.6897 13.3845C11.1601 13.7867 11.7034 13.9877 12.3194 13.9877C12.7816 13.9877 13.1575 13.9274 13.4487 13.8078L14.1159 11.6777C13.3631 11.6777 12.8455 11.4941 12.5632 11.1259C12.2809 10.7582 12.1399 10.1036 12.1399 9.1624L12.1399 5.03054C12.1399 3.38795 11.678 2.13904 10.7539 1.28348C9.82984 0.427929 8.47814 0 6.69882 0C4.49158 0 2.55779 0.573529 0.898376 1.71967ZM6.46788 7.87922L9.34226 7.87922L9.34226 8.88007C9.34226 9.80414 8.99569 10.5612 8.30287 11.1516C7.60974 11.7419 6.71565 12.0371 5.62089 12.0371C4.74821 12.0371 4.06365 11.8532 3.56781 11.4853C3.07136 11.1176 2.82329 10.6254 2.82329 10.0094C2.82329 9.34226 3.13988 8.82042 3.77275 8.44388C4.40562 8.06765 5.304 7.87922 6.46788 7.87922Z" transform="translate(81.80334 32.12939)" id="Fill-24" fill="#1A657D" fill-rule="evenodd" stroke="none" />
      <path d="M13.2689 0L10.6508 0L10.6508 7.82784C9.77814 6.23664 8.31541 5.44104 6.26233 5.44104C4.51696 5.44104 3.0368 6.13416 1.82214 7.51981C0.606871 8.90576 0 10.5997 0 12.6017C0 14.5866 0.585765 16.2677 1.75791 17.6448C2.92974 19.0222 4.35424 19.7108 6.03108 19.7108C8.10129 19.7108 9.65854 18.8555 10.7022 17.1444L10.7022 19.2489L13.2689 19.2489L13.2689 0ZM3.93946 9.38049C4.66654 8.53381 5.59489 8.11016 6.72421 8.11016C7.87035 8.11016 8.80696 8.53381 9.53466 9.38049C10.2614 10.2275 10.6251 11.3014 10.6251 12.6017C10.6251 13.9195 10.2614 15.0014 9.53466 15.8481C8.80696 16.6951 7.87035 17.1187 6.72421 17.1187C5.59489 17.1187 4.66654 16.6951 3.93946 15.8481C3.21207 15.0014 2.84868 13.9195 2.84868 12.6017C2.84868 11.3014 3.21207 10.2275 3.93946 9.38049Z" transform="translate(97.97259 26.68845)" id="Fill-25" fill="#1A657D" fill-rule="evenodd" stroke="none" />
      <path d="M2.90007 8.05878L12.807 8.05878C12.9951 7.34026 13.089 6.64713 13.089 5.98C13.089 4.20068 12.5286 2.75906 11.4082 1.65544C10.2871 0.551812 8.81981 0 7.00654 0C4.93602 0 3.25061 0.663153 1.95031 1.98885C0.65 3.31515 0 5.03024 0 7.13471C0 9.17127 0.675694 10.8692 2.02739 12.2295C3.37878 13.5897 5.06449 14.2697 7.08362 14.2697C9.23948 14.2697 11.0528 13.6711 12.5244 12.4733L11.0362 10.4456C10.0776 11.4382 8.81155 11.9343 7.23748 11.9343C6.0736 11.9343 5.06878 11.562 4.22179 10.8178C3.3748 10.0736 2.93402 9.15414 2.90007 8.05878ZM10.3174 6.13386L2.87438 6.13386C2.94259 5.05593 3.36195 4.16642 4.13186 3.46473C4.90176 2.76334 5.8344 2.41249 6.92946 2.41249C7.92144 2.41249 8.73875 2.70767 9.38049 3.29802C10.0222 3.88807 10.3431 4.64544 10.3431 5.5692C10.3431 5.82584 10.3342 6.01426 10.3174 6.13386Z" transform="translate(115.0139 32.12952)" id="Fill-26" fill="#1A657D" fill-rule="evenodd" stroke="none" />
      <path d="M0 0L2.89976 0L2.89976 7.77645L12.0371 7.77645L12.0371 0L14.9371 0L14.9371 18.8895L12.0371 18.8895L12.0371 10.497L2.89976 10.497L2.89976 18.8895L0 18.8895L0 0Z" transform="translate(138.4203 27.04774)" id="Fill-27" fill="#1A657D" stroke="none" />
      <path d="M2.89976 8.05878L12.8067 8.05878C12.9948 7.34026 13.089 6.64713 13.089 5.98C13.089 4.20068 12.5286 2.75906 11.4079 1.65544C10.2868 0.551812 8.81981 0 7.00654 0C4.93572 0 3.25031 0.663153 1.95031 1.98885C0.65 3.31515 0 5.03024 0 7.13471C0 9.17127 0.675694 10.8692 2.02708 12.2295C3.37847 13.5897 5.06419 14.2697 7.08332 14.2697C9.23948 14.2697 11.0524 13.6711 12.5244 12.4733L11.0359 10.4456C10.0773 11.4382 8.81125 11.9343 7.23748 11.9343C6.0736 11.9343 5.06878 11.562 4.22148 10.8178C3.3748 10.0736 2.93402 9.15414 2.89976 8.05878ZM10.3171 6.13386L2.87438 6.13386C2.94259 5.05593 3.36195 4.16642 4.13186 3.46473C4.90176 2.76334 5.83409 2.41249 6.92946 2.41249C7.92144 2.41249 8.73875 2.70767 9.38049 3.29802C10.0219 3.88807 10.3428 4.64544 10.3428 5.5692C10.3428 5.82584 10.3342 6.01426 10.3171 6.13386Z" transform="translate(157.4123 32.12952)" id="Fill-28" fill="#1A657D" fill-rule="evenodd" stroke="none" />
      <path d="M0 0L2.7976 0L2.7976 14.501C2.7976 15.4079 2.95543 16.0582 3.27233 16.4516C3.58861 16.8452 4.12298 17.0416 4.87637 17.0416C5.21865 17.0416 5.50068 17.0077 5.72336 16.9392L5.10731 19.2746C4.73077 19.4113 4.2175 19.4801 3.5675 19.4801C2.47214 19.4801 1.60405 19.1167 0.962305 18.389C0.32087 17.6623 0 16.6654 0 15.399L0 0Z" transform="translate(174.1712 26.68839)" id="Fill-29" fill="#1A657D" stroke="none" />
      <path d="M2.64344 0.359412L0 0.359412L0 19.8392L2.7976 19.8392L2.7976 12.3448C3.82384 13.6283 5.278 14.2697 7.16071 14.2697C8.90577 14.2697 10.3688 13.5897 11.5492 12.2295C12.7299 10.8692 13.3203 9.17984 13.3203 7.16071C13.3203 5.10732 12.7513 3.4008 11.6134 2.04024C10.4756 0.680282 9.05075 0 7.34026 0C6.33054 0 5.40647 0.226965 4.56835 0.680282C3.72993 1.1336 3.08819 1.75393 2.64344 2.54096L2.64344 0.359412ZM3.74706 3.93946C4.48271 3.09278 5.41534 2.66913 6.54466 2.66913C7.6908 2.66913 8.632 3.09278 9.36765 3.93946C10.1033 4.78645 10.4713 5.8604 10.4713 7.16071C10.4713 8.46101 10.1033 9.53466 9.36765 10.3816C8.632 11.2283 7.6908 11.652 6.54466 11.652C5.39821 11.652 4.46129 11.2329 3.73421 10.3945C3.00682 9.55638 2.64344 8.47845 2.64344 7.16071C2.64344 5.8604 3.01111 4.78645 3.74706 3.93946Z" transform="translate(182.5634 32.12949)" id="Fill-30" fill="#1A657D" fill-rule="evenodd" stroke="none" />
      <path d="M13.2686 0L10.6508 0L10.6508 7.82784C9.77814 6.23664 8.31511 5.44104 6.26202 5.44104C4.51666 5.44104 3.03649 6.13416 1.82214 7.51981C0.606871 8.90576 0 10.5997 0 12.6017C0 14.5866 0.585765 16.2677 1.75791 17.6448C2.92974 19.0222 4.35393 19.7108 6.03108 19.7108C8.10099 19.7108 9.65824 18.8555 10.7022 17.1444L10.7022 19.2489L13.2686 19.2489L13.2686 0ZM3.93915 9.38049C4.66624 8.53381 5.59489 8.11016 6.72391 8.11016C7.87005 8.11016 8.80696 8.53381 9.53435 9.38049C10.2611 10.2275 10.6251 11.3014 10.6251 12.6017C10.6251 13.9195 10.2611 15.0014 9.53435 15.8481C8.80696 16.6951 7.87005 17.1187 6.72391 17.1187C5.59489 17.1187 4.66624 16.6951 3.93915 15.8481C3.21207 15.0014 2.84868 13.9195 2.84868 12.6017C2.84868 11.3014 3.21207 10.2275 3.93915 9.38049Z" transform="translate(198.7327 26.68845)" id="Fill-31" fill="#1A657D" fill-rule="evenodd" stroke="none" />
      <path d="M2.89976 8.05878L12.8067 8.05878C12.9948 7.34026 13.089 6.64713 13.089 5.98C13.089 4.20068 12.5286 2.75906 11.4079 1.65544C10.2868 0.551812 8.81981 0 7.00654 0C4.93572 0 3.25031 0.663153 1.95031 1.98885C0.65 3.31515 0 5.03024 0 7.13471C0 9.17127 0.675694 10.8692 2.02708 12.2295C3.37847 13.5897 5.06419 14.2697 7.08332 14.2697C9.23948 14.2697 11.0524 13.6711 12.5244 12.4733L11.0359 10.4456C10.0773 11.4382 8.81125 11.9343 7.23748 11.9343C6.0736 11.9343 5.06878 11.562 4.22148 10.8178C3.3748 10.0736 2.93402 9.15414 2.89976 8.05878ZM10.3171 6.13386L2.87438 6.13386C2.94259 5.05593 3.36195 4.16642 4.13186 3.46473C4.90176 2.76334 5.83409 2.41249 6.92946 2.41249C7.92144 2.41249 8.73875 2.70767 9.38049 3.29802C10.0219 3.88807 10.3428 4.64544 10.3428 5.5692C10.3428 5.82584 10.3342 6.01426 10.3171 6.13386Z" transform="translate(215.7743 32.12952)" id="Fill-32" fill="#1A657D" fill-rule="evenodd" stroke="none" />
      <path d="M11.0102 1.82245L9.95831 4.05539C8.8972 2.89212 7.5712 2.31002 5.98 2.31002C5.3297 2.31002 4.74362 2.42993 4.2221 2.66943C3.69995 2.90925 3.43904 3.32005 3.43904 3.90122C3.43904 4.17529 3.50327 4.4148 3.63174 4.62005C3.75991 4.82529 3.98657 5.00087 4.31202 5.14616C4.63657 5.29176 4.9189 5.4028 5.15871 5.47988C5.39791 5.55666 5.77842 5.65546 6.30087 5.77475C6.82271 5.89466 7.20322 5.98918 7.44304 6.05708C8.04165 6.22838 8.53779 6.3908 8.93146 6.54466C9.32483 6.69882 9.73563 6.9212 10.1632 7.21209C10.5909 7.50329 10.9117 7.87555 11.1259 8.32856C11.3397 8.78219 11.4467 9.32543 11.4467 9.9583C11.4467 11.4128 10.8989 12.4993 9.80414 13.2178C8.70908 13.9366 7.38278 14.2957 5.82614 14.2957C4.73078 14.2957 3.64459 14.1201 2.56666 13.7696C1.48842 13.4191 0.632871 12.9526 0 12.3708L1.25748 10.0354C2.59205 11.2846 4.14042 11.9089 5.90322 11.9089C6.60461 11.9089 7.2332 11.7722 7.7896 11.4981C8.34508 11.2247 8.62344 10.7796 8.62344 10.1636C8.62344 9.9583 8.58887 9.77019 8.52066 9.59889C8.45245 9.42821 8.33682 9.27405 8.1744 9.13701C8.01137 9.00028 7.84925 8.88466 7.68683 8.79045C7.5241 8.69685 7.30172 8.60692 7.01939 8.52096C6.73706 8.43562 6.49725 8.36313 6.30087 8.30287C6.10388 8.24322 5.82614 8.17042 5.46673 8.08477C5.10732 7.99913 4.83355 7.93061 4.64513 7.87953C3.41334 7.58863 2.43819 7.16957 1.71967 6.62174C1.00085 6.07452 0.641741 5.22753 0.641741 4.08108C0.641741 2.72939 1.15471 1.71141 2.18155 1.02685C3.20809 0.342588 4.46558 0 5.95431 0C8.11047 0 9.79527 0.607788 11.0102 1.82245" transform="translate(231.5578 32.07791)" id="Fill-33" fill="#1A657D" stroke="none" />
      <path d="M0 0L2.7976 0L2.7976 10.805L5.13301 10.805L8.7519 5.80045L12.0117 5.80045L7.52011 11.8575L12.4219 19.2489L9.11131 19.2489L5.05623 13.1404L2.7976 13.1404L2.7976 19.2489L0 19.2489L0 0Z" transform="translate(246.7767 26.68839)" id="Fill-34" fill="#1A657D" stroke="none" />
    </g>
  </g>
</svg>