<svg xmlns="http://www.w3.org/2000/svg" xml:space="preserve" width="519.84485" height="279.59467" viewBox="0 0 519.84485 279.59467"><path d="M1377.651 1533.097h1.754v-7.645l6.541 7.645h2.487l-5.582-6.292 5.712-9.354h-2.336l-4.689 7.872-2.133-2.411v-5.461h-1.754zM1393.497 1529.214c-1.365 0-2.458-.587-3.27-1.713-.812-1.131-1.227-2.662-1.227-4.58 0-1.78.392-3.213 1.166-4.26.769-1.063 1.814-1.598 3.115-1.598 1.58 0 2.738.6 3.49 1.796.753 1.209 1.122 2.72 1.122 4.572 0 1.89-.423 3.325-1.272 4.309-.853.97-1.89 1.474-3.124 1.474m-.043-10.51c-.971 0-1.67.41-2.116 1.226-.45.812-.667 1.82-.667 3.037 0 1.275.218 2.35.667 3.253.446.887 1.154 1.338 2.124 1.338 1.109 0 1.884-.53 2.329-1.58.294-.661.435-1.537.435-2.594 0-1.177-.192-2.26-.593-3.224-.404-.973-1.122-1.456-2.18-1.456M1399.924 1528.886h1.535v-1.964c.123.37.435.843.923 1.374.497.544 1.063.815 1.696.815l.162-.026.371-.037v-1.985l-.27.07-.27.01c-.813 0-1.435-.32-1.876-.956-.445-.607-.652-1.335-.652-2.153v-6.581h-1.619zM1409.954 1529.11c-1.35 0-2.435-.56-3.267-1.715-.83-1.138-1.252-2.626-1.252-4.454 0-1.854.42-3.293 1.249-4.323.827-1.043 1.823-1.555 3.01-1.555.49 0 .93.063 1.329.17a3.522 3.522 0 0 1 1.79 1.154c.297.317.562.746.798 1.26.238.496.38.968.412 1.39h-1.582a3.527 3.527 0 0 0-.601-1.33c-.501-.664-1.16-1.003-2.001-1.003-.895 0-1.566.354-1.991 1.045-.43.71-.663 1.65-.683 2.8h7.002c0 1.146-.053 1.98-.15 2.51a5.368 5.368 0 0 1-.642 2.004c-.33.605-.813 1.086-1.45 1.488a3.78 3.78 0 0 1-1.971.56m-2.77-5.038c.036.987.295 1.784.799 2.44.504.628 1.109.945 1.856.945 1.022 0 1.757-.463 2.202-1.39.236-.49.386-1.164.458-1.995zM1418.774 1523.966c-.892-.133-1.626-.486-2.188-1.073-.546-.59-.823-1.385-.823-2.45 0-.977.28-1.774.85-2.416a2.816 2.816 0 0 1 2.167-.964c.75 0 1.428.19 2.05.572.612.37 1.082.827 1.405 1.328.06-.464.163-.8.28-1.06.264-.471.655-.705 1.213-.705l.546.035.565.167v1.416l-.282-.046-.244-.026-.435.17-.095.492v6.555c0 1.08-.352 1.878-1.047 2.398-.719.518-1.649.792-2.766.792-.979 0-1.833-.282-2.57-.844-.738-.542-1.124-1.53-1.147-2.94h1.505c.058.594.187 1.029.39 1.325.353.538.943.8 1.79.8.73 0 1.298-.144 1.695-.435.384-.301.58-.757.58-1.416 0-.32-.047-.564-.105-.737-.144-.322-.386-.488-.747-.543zm-1.347-3.466c0 .722.257 1.258.757 1.587.288.209.737.344 1.321.416l.98.15c.306.026.602.098.92.197.315.117.555.238.761.4v-1.547c0-1.178-.446-2.026-1.347-2.536-.546-.308-1.095-.463-1.663-.463-.473 0-.87.179-1.216.483-.34.32-.513.763-.513 1.313M1432.135 1533.097h1.812v-15.646h-1.812zM1436.608 1528.886h1.601v-1.644c.37.558.715.964 1.03 1.227a2.8 2.8 0 0 0 1.804.642c.762 0 1.385-.225 1.845-.681.27-.24.508-.61.72-1.116.354.61.787 1.054 1.273 1.354.48.298 1.036.443 1.64.443 1.3 0 2.185-.554 2.652-1.653.248-.598.376-1.417.376-2.416v-7.591h-1.668v7.925c0 .755-.162 1.28-.48 1.567-.33.287-.73.414-1.187.414a2.1 2.1 0 0 1-1.653-.743c-.463-.497-.7-1.353-.7-2.527v-6.636h-1.607v7.454c0 .763-.08 1.335-.238 1.698-.24.53-.705.792-1.378.792-.613 0-1.162-.268-1.666-.855-.498-.542-.742-1.564-.742-3.046v-6.043h-1.622zM1451.769 1512.9h1.618v5.804c.352-.51.668-.879.948-1.09.5-.36 1.1-.552 1.82-.552.929 0 1.737.337 2.429 1.02 1.095 1.061 1.639 2.84 1.639 5.325 0 1.842-.38 3.25-1.141 4.251-.76.99-1.672 1.492-2.762 1.492a3.054 3.054 0 0 1-1.91-.639c-.383-.282-.73-.673-1.047-1.18v1.453h-1.594zm4.182 5.804c-1.103 0-1.853.592-2.265 1.796-.223.607-.323 1.38-.323 2.251 0 1.105.1 2.017.323 2.737.407 1.333 1.162 2.004 2.265 2.004 1.104 0 1.862-.633 2.279-1.897.229-.656.318-1.434.318-2.366 0-1.506-.24-2.643-.735-3.378-.5-.753-1.122-1.147-1.862-1.147M1465.954 1529.214c-1.36 0-2.456-.587-3.272-1.713-.82-1.131-1.223-2.662-1.223-4.58 0-1.78.39-3.213 1.165-4.26.767-1.063 1.811-1.598 3.115-1.598 1.581 0 2.734.6 3.488 1.796.753 1.209 1.123 2.72 1.123 4.572 0 1.89-.417 3.325-1.27 4.309-.852.97-1.89 1.474-3.126 1.474m-.053-10.51c-.953 0-1.658.41-2.108 1.226-.439.812-.666 1.82-.666 3.037 0 1.275.227 2.35.666 3.253.45.887 1.155 1.338 2.128 1.338 1.104 0 1.881-.53 2.344-1.58.275-.661.423-1.537.423-2.594 0-1.177-.199-2.26-.59-3.224-.412-.973-1.125-1.456-2.197-1.456M1472.389 1528.886h1.526v-1.964c.129.37.44.843.935 1.374.478.544 1.049.815 1.696.815l.144-.026.376-.037v-1.985l-.251.07-.283.01c-.82 0-1.438-.32-1.88-.956-.44-.607-.646-1.335-.646-2.153v-6.581h-1.617zM1478.78 1532.05h1.61v-3.164h1.528v-1.593h-1.529v-7.403c0-.414.118-.662.33-.8.13-.086.341-.11.623-.11h.267l.31.014v-1.543l-.583-.144-.643-.043c-.742 0-1.258.234-1.526.688-.264.455-.388 1.042-.388 1.783v7.558h-1.323v1.593h1.323zM1487.51 1529.11c-1.336 0-2.42-.56-3.253-1.715-.834-1.138-1.258-2.626-1.258-4.454 0-1.854.414-3.293 1.24-4.323.83-1.043 1.834-1.555 3.023-1.555.488 0 .93.063 1.312.17a3.606 3.606 0 0 1 1.81 1.154c.28.317.549.746.783 1.26.245.496.389.968.42 1.39h-1.58a3.65 3.65 0 0 0-.607-1.33c-.496-.664-1.16-1.003-2.001-1.003-.9 0-1.566.354-1.987 1.045-.43.71-.66 1.65-.69 2.8h7.007c0 1.146-.048 1.98-.15 2.51-.107.773-.315 1.434-.641 2.004-.338.605-.811 1.086-1.45 1.488-.642.38-1.296.56-1.977.56m-2.758-5.038c.036.987.295 1.784.793 2.44.489.628 1.116.945 1.853.945 1.022 0 1.76-.463 2.202-1.39.234-.49.392-1.164.465-1.995zM1493.815 1528.886h1.531v-1.964c.127.37.431.843.925 1.374.491.544 1.055.815 1.696.815l.152-.026.371-.037v-1.985l-.264.07-.265.01c-.813 0-1.446-.32-1.877-.956-.43-.607-.657-1.335-.657-2.153v-6.581h-1.612zM1500.857 1521.007c.04-.625.183-1.117.417-1.451.412-.602 1.122-.895 2.143-.895.596 0 1.14.144 1.595.454.458.306.688.775.688 1.42 0 .48-.187.854-.554 1.088-.236.175-.706.357-1.39.546l-1.307.392c-.82.236-1.429.51-1.836.815-.693.512-1.047 1.226-1.047 2.148 0 1.079.338 1.954.994 2.616.656.668 1.551 1.01 2.662 1.01 1.448 0 2.514-.523 3.156-1.51.403-.654.59-1.34.584-2.091h-1.528a2.437 2.437 0 0 1-.389 1.192c-.375.5-1.015.75-1.938.75-.613 0-1.085-.134-1.392-.416-.316-.271-.479-.63-.479-1.097 0-.49.211-.872.63-1.16.237-.193.583-.36 1.066-.498l1.07-.3c1.168-.333 1.952-.661 2.352-.97.623-.49.94-1.252.94-2.308 0-1.028-.332-1.89-.988-2.625-.65-.746-1.648-1.118-2.99-1.118-1.436 0-2.459.39-3.05 1.164-.602.75-.93 1.713-.967 2.844zM1512.275 1517.45h1.828l1.434 4.709h5.166l1.385-4.708h1.941l-4.774 15.646h-2.017zm3.786 6.439 2.121 6.895 2.025-6.895zM1526.377 1521.007c.051-.625.197-1.117.422-1.451.412-.602 1.129-.895 2.142-.895.609 0 1.129.144 1.596.454.46.306.695.775.695 1.42 0 .48-.192.854-.56 1.088-.221.175-.705.357-1.396.546l-1.297.392c-.831.236-1.444.51-1.836.815-.696.512-1.042 1.226-1.042 2.148 0 1.079.333 1.954.984 2.616.659.668 1.548 1.01 2.669 1.01 1.448 0 2.502-.523 3.154-1.51.395-.654.592-1.34.579-2.091h-1.54a2.372 2.372 0 0 1-.374 1.192c-.374.5-1.013.75-1.933.75-.628 0-1.086-.134-1.398-.416-.318-.271-.474-.63-.474-1.097 0-.49.213-.872.63-1.16.23-.193.584-.36 1.049-.498l1.075-.3c1.178-.333 1.964-.661 2.357-.97.621-.49.935-1.252.935-2.308 0-1.028-.327-1.89-.98-2.625-.659-.746-1.656-1.118-2.991-1.118-1.44 0-2.456.39-3.06 1.164-.594.75-.925 1.713-.97 2.844zM1535.564 1521.007c.041-.625.191-1.117.414-1.451.405-.602 1.13-.895 2.146-.895.603 0 1.137.144 1.597.454.448.306.693.775.693 1.42 0 .48-.192.854-.566 1.088-.234.175-.704.357-1.387.546l-1.306.392c-.829.236-1.433.51-1.83.815-.693.512-1.048 1.226-1.048 2.148 0 1.079.326 1.954.995 2.616.658.668 1.545 1.01 2.662 1.01 1.454 0 2.5-.523 3.15-1.51a3.93 3.93 0 0 0 .59-2.091h-1.543a2.462 2.462 0 0 1-.383 1.192c-.367.5-1.01.75-1.936.75-.614 0-1.079-.134-1.394-.416-.317-.271-.468-.63-.468-1.097 0-.49.208-.872.613-1.16.242-.193.602-.36 1.07-.498l1.08-.3c1.16-.333 1.946-.661 2.338-.97.63-.49.945-1.252.945-2.308 0-1.028-.322-1.89-.983-2.625-.647-.746-1.646-1.118-2.993-1.118-1.43 0-2.456.39-3.05 1.164-.604.75-.926 1.713-.969 2.844zM1547.599 1529.214c-1.366 0-2.464-.587-3.271-1.713-.82-1.131-1.225-2.662-1.225-4.58 0-1.78.382-3.213 1.153-4.26.793-1.063 1.814-1.598 3.129-1.598 1.579 0 2.739.6 3.486 1.796.744 1.209 1.129 2.72 1.129 4.572 0 1.89-.433 3.325-1.282 4.309-.852.97-1.89 1.474-3.12 1.474m-.047-10.51c-.96 0-1.668.41-2.111 1.226-.444.812-.66 1.82-.66 3.037 0 1.275.216 2.35.66 3.253.443.887 1.152 1.338 2.125 1.338 1.102 0 1.879-.53 2.337-1.58.285-.661.428-1.537.428-2.594 0-1.177-.201-2.26-.604-3.224-.383-.973-1.123-1.456-2.175-1.456M1560.296 1528.267c.678-.613 1.09-1.699 1.227-3.225h-1.55c-.106.697-.32 1.29-.653 1.754-.342.462-.905.696-1.648.696-1.03 0-1.76-.6-2.204-1.796-.283-.763-.427-1.73-.427-2.859 0-1.143.2-2.104.609-2.887.402-.788 1.035-1.174 1.907-1.174.676 0 1.205.242 1.595.731.386.48.663 1.145.82 1.978h1.55c-.181-1.498-.624-2.603-1.343-3.308-.72-.692-1.62-1.045-2.741-1.045-1.26 0-2.253.54-3.003 1.638-.745 1.091-1.117 2.444-1.117 4.08 0 2.005.403 3.554 1.22 4.683.829 1.114 1.873 1.681 3.124 1.681 1.078 0 1.963-.317 2.634-.947M1563.154 1533.083h1.62v-2.233h-1.62zm0-4.298h1.62v-11.334h-1.62zM1569.807 1523.966c-.901-.133-1.62-.486-2.181-1.073-.558-.59-.834-1.385-.834-2.45 0-.977.276-1.774.839-2.416a2.858 2.858 0 0 1 2.186-.964c.742 0 1.416.19 2.03.572.619.37 1.094.827 1.427 1.328.05-.464.15-.8.28-1.06.252-.471.657-.705 1.206-.705l.548.035.57.167v1.416l-.282-.046-.244-.026-.437.17-.107.492v6.555c0 1.08-.343 1.878-1.045 2.398-.712.518-1.63.792-2.763.792-.973 0-1.83-.282-2.57-.844-.73-.542-1.115-1.53-1.14-2.94h1.496c.062.594.192 1.029.398 1.325.335.538.943.8 1.782.8.748 0 1.304-.144 1.695-.435.39-.301.59-.757.59-1.416 0-.32-.037-.564-.11-.737-.136-.322-.373-.488-.746-.543zm-1.342-3.466c0 .722.249 1.258.752 1.587.292.209.734.344 1.33.416l.966.15c.297.026.608.098.917.197.316.117.575.238.773.4v-1.547c0-1.178-.45-2.026-1.357-2.536a3.275 3.275 0 0 0-1.651-.463c-.48 0-.887.179-1.217.483-.341.32-.513.763-.513 1.313M1577.764 1532.05h1.623v-3.164h1.528v-1.593h-1.528v-7.403c0-.414.114-.662.325-.8.137-.086.34-.11.633-.11h.254l.316.014v-1.543l-.575-.144-.646-.043c-.748 0-1.251.234-1.53.688-.255.455-.4 1.042-.4 1.783v7.558h-1.306v1.593h1.306zM1582.537 1533.083h1.618v-2.233h-1.618zm0-4.298h1.618v-11.334h-1.618zM1590.459 1529.214c-1.368 0-2.451-.587-3.272-1.713-.813-1.131-1.22-2.662-1.22-4.58 0-1.78.388-3.213 1.162-4.26.771-1.063 1.804-1.598 3.114-1.598 1.579 0 2.739.6 3.489 1.796.757 1.209 1.129 2.72 1.129 4.572 0 1.89-.431 3.325-1.279 4.309-.858.97-1.898 1.474-3.123 1.474m-.045-10.51c-.969 0-1.671.41-2.118 1.226-.439.812-.654 1.82-.654 3.037 0 1.275.215 2.35.654 3.253.447.887 1.159 1.338 2.142 1.338 1.095 0 1.874-.53 2.324-1.58.285-.661.429-1.537.429-2.594 0-1.177-.204-2.26-.583-3.224-.402-.973-1.14-1.456-2.194-1.456M1596.845 1528.886h1.522v-1.636c.448.665.932 1.137 1.43 1.426.51.29 1.084.435 1.71.435 1.358 0 2.29-.56 2.76-1.697.256-.618.395-1.5.395-2.645v-7.318h-1.615v7.197c0 .683-.087 1.266-.264 1.693-.292.7-.81 1.054-1.567 1.054-.391 0-.704-.038-.944-.136-.448-.152-.843-.473-1.18-.935a3.326 3.326 0 0 1-.517-1.163c-.081-.398-.125-.985-.125-1.73v-5.98h-1.605z" style="fill:#354098;fill-opacity:1;fill-rule:nonzero;stroke:none" transform="matrix(1.33333 0 0 -1.33333 -1629.842 2273.092)"/><path d="M1304.12 1644.758a264.597 264.597 0 0 1-16.737-22.652c-5.579-13.424-8.634-26.246-8.499-36.987.086-6.567 1.354-12.007 3.755-16.245 1.022 23.068 15.391 54.385 37.353 80.974 23.011 27.874 50.694 46.093 70.54 46.43 7.243.129 12.953-2.13 16.946-6.695a21.499 21.499 0 0 0 2.568-3.645c.305 6.759-.555 12.718-2.703 17.537-3.374.956-7.07 1.402-11.057 1.338-26.628-.457-61.94-23.481-92.167-60.055M1427.231 1685.244c.01-.476.041-.927.041-1.397 0-8.97-1.572-19.096-4.742-30.119-7.489-25.944-22.982-54.017-43.644-79.019-30.217-36.586-65.528-59.592-92.144-60.058-10.619-.179-19.105 3.253-25.219 10.253-2.375 2.71-4.274 5.88-5.756 9.463.201-12.137 3.357-22.043 9.445-28.998 6.113-6.976 14.604-10.427 25.224-10.239 26.615.446 61.915 23.467 92.141 60.052 20.663 25.01 36.163 53.073 43.63 79.021 3.185 11.023 4.753 21.148 4.753 30.11 0 7.968-1.256 15.018-3.729 20.931" style="fill:#51bce2;fill-opacity:1;fill-rule:nonzero;stroke:none" transform="matrix(1.33333 0 0 -1.33333 -1629.842 2273.092)"/><path d="m1532.545 1607.847-8.415-62.51h-27.034l8.545 63.39c.369 2.839.417 4.81.127 5.91-.54 1.935-2.006 2.899-4.4 2.899-1.867 0-3.367-.627-4.516-1.862-1.134-1.244-1.937-3.556-2.397-6.946l-8.521-63.39h-27.35l8.53 63.39c.786 5.873-.632 8.808-4.27 8.808-1.941 0-3.474-.676-4.58-2.01-1.122-1.323-1.885-3.601-2.321-6.798l-8.531-63.39h-26.845l8.418 62.509c2.016 14.946 6.58 25.384 13.716 31.346 4.822 4.028 10.889 6.05 18.209 6.05 4.99 0 9.468-1.078 13.417-3.211 3.945-2.151 7.13-5.83 9.554-11.026 3.335 4.29 6.816 7.58 10.435 9.872 4.764 2.906 10.083 4.366 15.97 4.366 7.666 0 13.398-2.158 17.198-6.454 5.315-6.152 7.007-16.47 5.06-30.943M1566.825 1588.997l2.11 15.702c.488 3.573 1.03 6.046 1.664 7.42 1.01 2.198 2.844 4.67 5.14 4.67h4.99c2.297 0 3.464-2.472 3.881-4.67.247-1.374.142-3.847-.336-7.42l-2.113-15.702zm38.973 46.468c-4.827 6.52-12.24 9.78-22.238 9.78l-1.495-.01-1.51.01c-9.992 0-18.268-3.26-24.85-9.78-8.126-7.977-13.35-20.554-15.66-37.709l-7.054-52.418h27.964l2.65 16.921h15.34l-2.667-16.92h27.952l7.07 52.417c2.31 17.155.476 29.732-5.502 37.71" style="fill:#354098;fill-opacity:1;fill-rule:nonzero;stroke:none" transform="matrix(1.33333 0 0 -1.33333 -1629.842 2273.092)"/><path d="M1360.072 1588.363c-3.311-9.2-12.502-13.57-20.512-9.773-8.016 3.807-11.827 14.35-8.51 23.568 3.32 9.198 12.5 13.57 20.522 9.758 8.005-3.805 11.816-14.359 8.5-23.553m4.932 54.975c-16.406 7.096-38.41-9.126-49.141-36.22-10.742-27.095-6.14-54.81 10.263-61.893 16.4-7.102 38.405 9.132 49.143 36.218 10.737 27.091 6.134 54.807-10.265 61.895" style="fill:#e9262d;fill-opacity:1;fill-rule:nonzero;stroke:none" transform="matrix(1.33333 0 0 -1.33333 -1629.842 2273.092)"/><path d="m1235.75 1644.884-13.368-99.546h28.526l13.094 99.546zM1420.532 1629.558c.793 9.235-4.95 16.726-12.806 16.726-7.853 0-14.863-7.491-15.637-16.726l-11.366-84.22h28.5zM1312.373 1626.957l-22.192-31.962 16.616-49.657h-31.79l-13.237 49.658 24.323 37.558c5.317 9.04 10.48 13.57 17.878 12.082 7.405-1.478 12.01-10.077 8.47-17.447z" style="fill:#354098;fill-opacity:1;fill-rule:nonzero;stroke:none" transform="matrix(1.33333 0 0 -1.33333 -1629.842 2273.092)"/></svg>