<?xml version="1.0" encoding="UTF-8"?><svg id="_이어_1" xmlns="http://www.w3.org/2000/svg" viewBox="0 0 105.37 96"><defs><style>.cls-1{fill:#57b4a9;}</style></defs><path class="cls-1" d="M14.05,65.56h21.07c1.29,0,2.34-1.05,2.34-2.34s-1.05-2.34-2.34-2.34H14.05c-1.29,0-2.34,1.05-2.34,2.34s1.05,2.34,2.34,2.34Z"/><path class="cls-1" d="M103.02,0H2.34C1.05,0,0,1.05,0,2.34V74.93c0,1.29,1.05,2.34,2.34,2.34H66.73v16.39c0,.94,.59,1.76,1.4,2.11,.94,.35,1.87,.12,2.58-.47l7.73-7.73,7.73,7.73c.47,.47,1.05,.7,1.64,.7,.35,0,.59,0,.94-.23,.82-.35,1.4-1.17,1.4-2.11v-16.39h12.88c1.29,0,2.34-1.05,2.34-2.34V2.34c0-1.29-1.05-2.34-2.34-2.34Zm-17.56,88.04l-5.39-5.39c-.94-.94-2.34-.94-3.28,0l-5.39,5.39v-24.23c2.11,1.05,4.45,1.76,7.02,1.76s4.92-.59,7.02-1.76v24.23Zm-7.02-27.16c-5.85,0-10.54-4.68-10.54-10.54s4.68-10.54,10.54-10.54,10.54,4.68,10.54,10.54-4.68,10.54-10.54,10.54Zm22.24,11.71h-10.54v-12.53c2.22-2.58,3.51-5.97,3.51-9.72,0-8.43-6.79-15.22-15.22-15.22s-15.22,6.79-15.22,15.22c0,3.63,1.29,7.02,3.51,9.72v12.53H4.68V4.68H100.68V72.59Z"/><path class="cls-1" d="M21.07,16.39h63.22c1.29,0,2.34-1.05,2.34-2.34s-1.05-2.34-2.34-2.34H21.07c-1.29,0-2.34,1.05-2.34,2.34s1.05,2.34,2.34,2.34Z"/><path class="cls-1" d="M74.93,23.41H30.44c-1.29,0-2.34,1.05-2.34,2.34s1.05,2.34,2.34,2.34h44.49c1.29,0,2.34-1.05,2.34-2.34s-1.05-2.34-2.34-2.34Z"/></svg>