<?xml version="1.0" encoding="UTF-8"?><svg id="_이어_1" xmlns="http://www.w3.org/2000/svg" viewBox="0 0 59.45 96"><defs><style>.cls-1{fill:#57b4a9;}</style></defs><path class="cls-1" d="M43.37,10.77c.91-.91,.91-2.53-.1-3.44L36.5,.76c-1.01-1.01-2.53-1.01-3.44,0l-.1,.1c-.81,.81-.81,2.12-.2,3.03l-7.89,8.19H12.64c-1.72,0-3.03,1.42-3.03,3.03v29.52c0,1.72,1.31,3.03,3.03,3.03H29.62c1.72,0,3.03-1.31,3.03-3.03v-5.56c-.51,.1-1.01,.2-1.62,.2-4.65,0-8.39-3.74-8.39-8.39,0-4.65,3.74-8.39,8.39-8.39,.61,0,1.11,.1,1.62,.2v-3.74l7.68-7.89c.91,.61,2.22,.51,3.03-.3h0Z"/><path class="cls-1" d="M0,89.53c0,3.54,2.93,6.47,6.47,6.47H52.98c3.64,0,6.47-2.93,6.47-6.47V54.34c0-13.75-9.3-25.38-21.94-28.82,1.21,1.52,1.92,3.34,1.92,5.36,0,3.24-1.72,5.97-4.35,7.38,6.67,2.22,11.53,8.59,11.53,16.08v28.82h-12.94v-3.24c0-1.42-1.21-2.63-2.63-2.63H11.32c-1.42,0-2.63,1.21-2.63,2.63v3.24h-2.22c-3.54,0-6.47,2.83-6.47,6.37Z"/><path class="cls-1" d="M27.8,56.06v-5.16H14.56v5.16c0,1.31,1.11,2.43,2.43,2.43h8.39c1.31,0,2.43-1.11,2.43-2.43Z"/><path class="cls-1" d="M31.04,36.04c2.83,0,5.16-2.33,5.16-5.16s-2.33-5.16-5.16-5.16c-2.83,0-5.16,2.33-5.16,5.16,0,2.83,2.33,5.16,5.16,5.16Z"/></svg>