<?xml version="1.0" encoding="UTF-8"?><svg id="_이어_1" xmlns="http://www.w3.org/2000/svg" viewBox="0 0 118.52 96"><defs><style>.cls-1,.cls-2{fill:#57b4a9;}.cls-2{opacity:.5;}</style></defs><path class="cls-2" d="M16.65,20.94c0-5.83,4.73-10.56,10.56-10.56s10.56,4.73,10.56,10.56-4.73,10.56-10.56,10.56-10.56-4.73-10.56-10.56h0Z"/><path class="cls-2" d="M35.64,64.6c0,5.83-4.73,10.58-10.56,10.58s-10.56-4.75-10.56-10.58,4.73-10.56,10.56-10.56c3.48,0,6.57,1.7,8.51,4.31v.02c-.03,.17,0,.35,.1,.5,.1,.14,.25,.22,.41,.26,0,0,0,.01,.01,.02,.97,1.59,1.54,3.46,1.54,5.46h0Z"/><path class="cls-2" d="M80.04,64.12c5.83,0,10.58,4.73,10.58,10.56,0,2.54-.9,4.87-2.4,6.69h0c-.14,.03-.28,.06-.38,.17-.13,.13-.19,.3-.19,.47-1.91,1.99-4.61,3.23-7.59,3.23-5.83,0-10.56-4.73-10.56-10.56s4.73-10.56,10.56-10.56h0Z"/><path class="cls-2" d="M91.64,31.38c-3.57,0-6.69-1.85-8.49-4.64h0c0-.13-.03-.24-.09-.35-.06-.1-.15-.16-.24-.22v-.02c-.82-1.47-1.28-3.13-1.28-4.91,0-5.58,4.54-10.14,10.12-10.14s10.14,4.56,10.14,10.14-4.54,10.14-10.14,10.14h0Z"/><g><path class="cls-1" d="M111.81,25.52c3.69,0,6.71-3.02,6.71-6.71s-3.02-6.71-6.71-6.71-6.39,2.7-6.67,6.15h0l-2.31,.46h0c-1.17-5.11-5.72-8.92-11.18-8.92-6.3,0-11.44,5.14-11.44,11.46,0,1.92,.48,3.74,1.32,5.33l-12.36,7.86h0c-3-3.96-7.45-6.76-12.53-7.65l.52-3.39c.11,.02,.19,.02,.3,.02,3.21,0,5.85-2.61,5.85-5.83s-2.63-5.85-5.85-5.85-5.85,2.61-5.85,5.85c0,2.65,1.78,4.91,4.24,5.6h0l-.53,3.43h0c-.71-.09-1.41-.12-2.14-.12-5.62,0-10.7,2.31-14.34,6.04h0l-3.2-3.2c2.13-2.15,3.47-5.12,3.47-8.39,0-6.55-5.33-11.89-11.88-11.89-3.18,0-6.09,1.27-8.23,3.32h0l-1.99-1.99c-.06-.06-.15-.06-.22-.09l.02-.02c.88-1.08,1.43-2.47,1.43-3.99,0-3.46-2.83-6.29-6.29-6.29S5.67,2.82,5.67,6.29s2.81,6.27,6.27,6.27c1.5,0,2.9-.53,3.99-1.41,.01-.01,.02-.03,.04-.04,.03,.08,.03,.16,.09,.22l2.02,2.03c-1.71,2.07-2.75,4.71-2.75,7.59,0,6.55,5.33,11.88,11.89,11.88,2.79,0,5.39-.99,7.42-2.61h0l3.29,3.29c-3.03,3.51-4.85,8.1-4.85,13.08,0,3.67,.99,7.13,2.72,10.1h0s-.06,.02-.1,.04l-1.13,.75c-2.15-2.89-5.61-4.76-9.5-4.76-5.97,0-10.93,4.43-11.74,10.16l-1.51-.43s-.09,0-.13-.01h0c-.02-3.2-2.65-5.82-5.85-5.82s-5.85,2.63-5.85,5.85,2.61,5.85,5.85,5.85c2.77,0,5.12-1.96,5.7-4.57l1.66,.48h0c-.02,.13-.02,.26-.02,.38,0,5.42,3.64,10.01,8.6,11.43h0l-.85,2.54c-.35-.05-.71-.09-1.06-.09-3.46,0-6.27,2.82-6.27,6.29s2.81,6.27,6.27,6.27,6.27-2.81,6.27-6.27c0-2.63-1.62-4.91-3.94-5.83l.87-2.61c.65,.12,1.3,.18,1.99,.18,6.55,0,11.88-5.33,11.88-11.9,0-2.19-.6-4.26-1.64-6.02h0l1.12-.75s.03-.03,.05-.05c3.62,5.37,9.75,8.9,16.69,8.9,5.05,0,9.71-1.87,13.24-4.99l4.91,4.92h0c-1.98,2.13-3.18,4.95-3.18,8.08,0,6.55,5.33,11.88,11.89,11.88,3.28,0,6.23-1.32,8.39-3.48h0l2.6,2.6s.11,.04,.16,.06c0,0-.01,.01-.02,.02-.86,1.08-1.4,2.45-1.4,3.94,0,3.46,2.81,6.29,6.27,6.29s6.29-2.83,6.29-6.29-2.82-6.27-6.29-6.27c-1.52,0-2.91,.55-3.99,1.43,0,0-.01,.02-.02,.02-.03-.05-.02-.1-.06-.14l-2.65-2.66c1.64-2.03,2.63-4.61,2.63-7.42,0-6.55-5.33-11.89-11.9-11.89-2.97,0-5.67,1.08-7.75,2.9h0s0-.02-.01-.03l-4.88-4.88h0c3.62-3.64,5.88-8.66,5.88-14.2,0-4.08-1.23-7.89-3.35-11.06l12.27-7.81c2.07,3.02,5.53,4.99,9.44,4.99,3.48,0,6.59-1.55,8.69-3.99h0s.02,.04,.04,.05l2.44,2.14s.03,0,.04,.01h0c-.44,.85-.69,1.82-.69,2.85,0,3.46,2.83,6.27,6.29,6.27s6.27-2.81,6.27-6.27-2.81-6.27-6.27-6.27c-1.97,0-3.73,.92-4.86,2.32l-2.34-2.05s-.08-.05-.13-.07h0c1.24-1.84,1.98-4.07,1.98-6.45,0-.42-.02-.83-.07-1.23l2.12-.41h0c.39,3.32,3.21,5.92,6.66,5.92ZM11.94,11.23c-2.72,0-4.95-2.22-4.95-4.94S9.22,1.32,11.94,1.32s4.96,2.22,4.96,4.96-2.22,4.94-4.96,4.94Zm15.28,20.27c-5.83,0-10.56-4.73-10.56-10.56s4.73-10.56,10.56-10.56,10.56,4.73,10.56,10.56-4.73,10.56-10.56,10.56ZM5.85,66.98c-2.51,0-4.52-2.01-4.52-4.52s2.01-4.52,4.52-4.52,4.52,2.03,4.52,4.52-2.03,4.52-4.52,4.52Zm18.99,17.78c0,2.72-2.21,4.95-4.95,4.95s-4.95-2.23-4.95-4.95,2.21-4.96,4.95-4.96,4.95,2.23,4.95,4.96Zm10.81-20.17c0,5.83-4.73,10.58-10.56,10.58s-10.56-4.75-10.56-10.58,4.73-10.56,10.56-10.56c3.48,0,6.57,1.7,8.51,4.31v.02c-.03,.17,0,.35,.1,.5,.1,.14,.25,.22,.41,.26,0,0,0,.01,.01,.02,.97,1.59,1.54,3.46,1.54,5.46Zm60.4,20.17c2.74,0,4.96,2.22,4.96,4.95s-2.23,4.96-4.96,4.96-4.94-2.22-4.94-4.96,2.22-4.95,4.94-4.95Zm-16-20.65c5.83,0,10.58,4.73,10.58,10.56,0,2.54-.9,4.87-2.4,6.69h0c-.14,.03-.28,.06-.38,.17-.13,.13-.19,.3-.19,.47-1.91,1.99-4.61,3.23-7.59,3.23-5.83,0-10.56-4.73-10.56-10.56s4.73-10.56,10.56-10.56ZM52.93,17.59c0-2.51,2.03-4.52,4.52-4.52s4.52,2.01,4.52,4.52-2.03,4.5-4.52,4.5-4.52-2.01-4.52-4.5Zm13.71,31.39l-2.55,.46c-.27,1.08-.69,2.11-1.27,3.07l1.48,2.13-3.13,3.13-2.13-1.48c-.95,.58-1.99,1-3.07,1.27l-.46,2.55h-4.42l-.46-2.55c-1.08-.27-2.11-.7-3.07-1.27l-2.13,1.48-3.13-3.13,1.48-2.13c-.58-.95-1-1.99-1.27-3.07l-2.55-.46v-4.42l2.55-.46c.27-1.08,.7-2.11,1.27-3.07l-1.48-2.13,3.13-3.13,2.13,1.48c.95-.58,1.99-1,3.07-1.27l.46-2.55h4.42l.46,2.55c1.08,.27,2.11,.7,3.07,1.27l2.13-1.48,3.13,3.13-1.48,2.13c.58,.95,1.01,1.99,1.27,3.07l2.55,.46v4.42Zm41.81-20.15c2.72,0,4.95,2.21,4.95,4.94s-2.22,4.95-4.95,4.95-4.96-2.21-4.96-4.95,2.22-4.94,4.96-4.94Zm-16.81,2.56c-3.57,0-6.69-1.85-8.49-4.64h0c0-.13-.03-.24-.09-.35-.06-.1-.15-.16-.24-.22,0,0,0-.01-.01-.02-.81-1.47-1.27-3.13-1.27-4.91,0-5.58,4.54-10.14,10.12-10.14s10.14,4.56,10.14,10.14-4.54,10.14-10.14,10.14Zm20.17-17.96c2.97,0,5.39,2.42,5.39,5.39s-2.42,5.39-5.39,5.39-5.39-2.42-5.39-5.39,2.42-5.39,5.39-5.39Z"/><path class="cls-1" d="M53.3,39.51c-4.01,0-7.26,3.25-7.26,7.26,0,4.01,3.25,7.26,7.26,7.26,4.01,0,7.26-3.25,7.26-7.26h0c0-4.01-3.25-7.26-7.26-7.26Z"/></g></svg>