<?xml version="1.0" encoding="UTF-8"?><svg id="_이어_1" xmlns="http://www.w3.org/2000/svg" viewBox="0 0 138.69 60"><defs><style>.cls-1{fill:#4b8cca;}</style></defs><path class="cls-1" d="M134.86,0c-1.52,0-2.82,.89-3.44,2.17h-36.18c-.32,0-.61,.12-.86,.29-.26-.18-.56-.29-.88-.29h-10.31c-.51,0-.99,.25-1.27,.68,0,0-8.41,12.49-10.43,15.49-2.02-3-10.43-15.49-10.43-15.49-.29-.42-.76-.68-1.27-.68h-10.66c-.56,0-1.07,.3-1.34,.79-.13,.23-.19,.49-.19,.74,0,.29,.08,.57,.24,.82,0,0,9.65,15.23,15.78,24.9,0,0-.1-.07-.1-.07l-15.75,24.1-3.05-9.58c.72-.7,1.18-1.67,1.18-2.75,0-2.11-1.71-3.82-3.82-3.82s-3.82,1.71-3.82,3.82,1.59,3.68,3.58,3.8c1.08,3.38,2.73,8.56,3.36,10.54h-6.43c-.62-1.79-4.74-13.79-4.74-13.79-.21-.62-.8-1.03-1.45-1.03H16.13c-.65,0-1.23,.41-1.45,1.03,0,0-4.2,12.02-4.82,13.8H3.7C5.01,51.75,20.83,7.12,21.49,5.24h6.51c.61,1.8,7.98,23.31,9.14,26.71h-6.13c-.61-1.84-4.98-15.05-4.98-15.05-.21-.63-.79-1.05-1.45-1.05s-1.25,.43-1.45,1.05l-5.33,16.1c-.15,.47-.08,.98,.21,1.38,.29,.4,.75,.64,1.24,.64h20.04c.49,0,.96-.24,1.25-.64,.29-.4,.36-.92,.2-1.39L30.55,3.21c-.21-.62-.8-1.04-1.45-1.04h-8.69c-.65,0-1.23,.41-1.44,1.02L.09,56.48c-.17,.47-.09,.99,.19,1.4,.29,.41,.75,.65,1.25,.65H10.95c.65,0,1.23-.41,1.45-1.03,0,0,4.2-12.02,4.82-13.8h14.27c.62,1.79,4.74,13.8,4.74,13.8,.21,.62,.79,1.03,1.45,1.03h20.48c.53,.01,1.03-.26,1.31-.7l12.4-19.47c.16-.25,.24-.54,.24-.82s-.08-.57-.24-.82c0,0-17.36-27.4-19.94-31.47h7.06c.84,1.25,11.25,16.7,11.25,16.7,.28,.42,.76,.68,1.27,.68s.99-.25,1.27-.68c0,0,10.4-15.45,11.24-16.7h6.71c-2.47,3.9-15.08,23.83-15.08,23.83-.16,.25-.24,.53-.24,.82s.08,.57,.24,.82l14.9,23.36c-.4,.6-.64,1.33-.64,2.11,0,2.11,1.71,3.82,3.82,3.82s3.82-1.71,3.82-3.82-1.71-3.82-3.82-3.82c-.21,0-.4,.03-.6,.06-4.36-6.83-13.63-21.36-14.38-22.54,.82-1.29,11.48-18.15,14.96-23.64v6.03c0,.85,.69,1.53,1.53,1.53h13.64V56.99c0,.85,.69,1.53,1.53,1.53h8.92c.85,0,1.53-.68,1.53-1.53V12.27c0-.85-.69-1.53-1.53-1.53h-22.56V5.24h34.54c.56,1.41,1.94,2.41,3.55,2.41,2.11,0,3.82-1.71,3.82-3.82s-1.71-3.82-3.82-3.82ZM21.38,31.94c.7-2.12,1.93-5.84,3.21-9.69,1.27,3.85,2.5,7.57,3.21,9.69h-6.41Zm47.38,5.58c-.92,1.45-10.61,16.65-11.42,17.93-1.05-.01-4.47,.04-7.24,0,2.43-3.72,14.03-21.45,15.25-23.31,1.02,1.61,3.25,5.12,3.41,5.38ZM111.95,13.81h5.86V55.46h-5.86V13.81Z"/></svg>