<?xml version="1.0" encoding="UTF-8"?>
<svg id="Layer_1" xmlns="http://www.w3.org/2000/svg" viewBox="0 0 567.04 65">
  <path d="M0,32.5C0,13.74,14.2,0,33.41,0s33.41,13.74,33.41,32.5-14.2,32.5-33.41,32.5S0,51.26,0,32.5ZM53,32.5c0-11.69-8.35-20.05-19.59-20.05s-19.59,8.35-19.59,20.05,8.35,20.05,19.59,20.05,19.59-8.43,19.59-20.05Z"/>
  <path d="M155.81,1.59l-17.84,61.89h-13.97l-11.09-38.8-11.09,38.8h-13.97L70.01,1.59h14.81l10.63,40.47L106.08,1.59h14.35l10.55,40.32L141.69,1.59h14.12Z"/>
  <path d="M177.29,1.59v49.66h30.91v12.23h-44.73V1.59h13.82Z"/>
  <path d="M263.78,18.91h-8.2c-.84-6.45-6.68-11.39-16.17-11.39s-14.96,3.95-14.96,9.42c0,6.3,5.62,9.04,18.6,11.77,14.96,3.19,20.96,8.96,20.96,18,0,10.93-10.71,17.62-24.22,17.62-14.2,0-24.45-7.75-25.29-19.52h8.2c.84,7.37,7.44,12.61,17.62,12.61,9.11,0,15.57-4.18,15.57-10.25,0-6.76-5.54-9.49-18.76-12.3-13.74-2.89-20.73-7.82-20.73-17.92S226.34.68,239.79.68s23.24,7.59,24,18.22Z"/>
  <path d="M296.81,2.13c15.79,0,25.06,8.43,25.06,21.11s-9.26,21.11-25.06,21.11h-13.59v18.6h-7.97V2.13h21.57ZM313.89,23.24c0-9.04-6.68-13.9-17.69-13.9h-12.98v27.79h12.98c11.01,0,17.69-4.86,17.69-13.9Z"/>
  <path d="M329.15,32.5c0-18.38,13.59-31.82,32.04-31.82s32.12,13.44,32.12,31.82-13.59,31.82-32.04,31.82-32.12-13.44-32.12-31.82ZM385.34,32.5c0-14.35-10.25-24.53-24.15-24.53s-24.07,10.18-24.07,24.53,10.25,24.53,24.15,24.53,24.07-10.25,24.07-24.53Z"/>
  <path d="M444.95,62.95l-13.82-21.64c-1.14.08-2.28.15-3.42.15h-14.81v21.49h-7.97V2.13h22.78c15.34,0,24.37,7.67,24.37,19.67,0,8.58-4.63,14.96-12.98,17.92l15.26,23.24h-9.42ZM444.11,21.79c0-8.2-6.45-12.53-17.01-12.53h-14.2v25.06h14.2c10.56,0,17.01-4.33,17.01-12.53Z"/>
  <path d="M488.91,9.26v53.69h-7.97V9.26h-21.87V2.13h51.64v7.14h-21.79Z"/>
  <path d="M566.81,18.91h-8.2c-.84-6.45-6.68-11.39-16.17-11.39s-14.96,3.95-14.96,9.42c0,6.3,5.62,9.04,18.6,11.77,14.96,3.19,20.96,8.96,20.96,18,0,10.93-10.71,17.62-24.22,17.62-14.2,0-24.45-7.75-25.29-19.52h8.2c.84,7.37,7.44,12.61,17.62,12.61,9.11,0,15.57-4.18,15.57-10.25,0-6.76-5.54-9.49-18.76-12.3-13.74-2.89-20.73-7.82-20.73-17.92s9.95-16.25,23.39-16.25,23.24,7.59,24,18.22Z"/>
</svg>