<?xml version="1.0" encoding="UTF-8"?>
<svg id="Layer_1" xmlns="http://www.w3.org/2000/svg" viewBox="0 0 245 140">
  <g>
    <path d="M0,38.37C0,16.23,16.77,0,39.45,0s39.45,16.23,39.45,38.37-16.77,38.38-39.45,38.38S0,60.52,0,38.37ZM62.59,38.37c0-13.81-9.86-23.67-23.13-23.67s-23.13,9.86-23.13,23.67,9.86,23.67,23.13,23.67,23.13-9.95,23.13-23.67Z"/>
    <path d="M183.56,1.88l-21.07,73.08h-16.5l-13.09-45.82-13.09,45.82h-16.5L82.24,1.88h17.48l12.55,47.79L124.83,1.88h16.95l12.46,47.61L166.88,1.88h16.68Z"/>
    <path d="M208.51,1.88v58.64h36.49v14.44h-52.81V1.88h16.32Z"/>
  </g>
  <g>
    <path d="M34.44,108.27h-5.73c-.58-4.51-4.67-7.96-11.3-7.96s-10.45,2.76-10.45,6.58c0,4.41,3.93,6.31,13,8.23,10.45,2.23,14.65,6.26,14.65,12.58,0,7.64-7.48,12.31-16.93,12.31-9.92,0-17.09-5.41-17.67-13.64h5.73c.58,5.15,5.2,8.81,12.31,8.81,6.37,0,10.88-2.92,10.88-7.16,0-4.72-3.87-6.63-13.11-8.6-9.61-2.02-14.49-5.47-14.49-12.52s6.95-11.36,16.34-11.36,16.24,5.31,16.77,12.74Z"/>
    <path d="M57.25,96.54c11.04,0,17.51,5.89,17.51,14.75s-6.47,14.75-17.51,14.75h-9.5v13h-5.57v-42.51h15.07ZM69.19,111.29c0-6.31-4.67-9.71-12.36-9.71h-9.08v19.42h9.08c7.69,0,12.36-3.4,12.36-9.71Z"/>
    <path d="M79.58,117.77c0-12.84,9.5-22.24,22.39-22.24s22.45,9.39,22.45,22.24-9.5,22.23-22.39,22.23-22.45-9.39-22.45-22.23ZM118.84,117.77c0-10.03-7.16-17.14-16.87-17.14s-16.82,7.11-16.82,17.14,7.17,17.14,16.88,17.14,16.82-7.16,16.82-17.14Z"/>
    <path d="M160.22,139.05l-9.66-15.13c-.8.05-1.59.11-2.39.11h-10.35v15.02h-5.57v-42.51h15.92c10.72,0,17.03,5.36,17.03,13.74,0,6-3.24,10.46-9.08,12.52l10.67,16.24h-6.58ZM159.64,110.28c0-5.73-4.51-8.76-11.89-8.76h-9.92v17.51h9.92c7.37,0,11.89-3.03,11.89-8.76Z"/>
    <path d="M190.67,101.53v37.52h-5.57v-37.52h-15.28v-4.99h36.09v4.99h-15.23Z"/>
    <path d="M244.84,108.27h-5.73c-.58-4.51-4.67-7.96-11.3-7.96s-10.45,2.76-10.45,6.58c0,4.41,3.93,6.31,13,8.23,10.45,2.23,14.65,6.26,14.65,12.58,0,7.64-7.48,12.31-16.93,12.31-9.92,0-17.09-5.41-17.67-13.64h5.73c.58,5.15,5.2,8.81,12.31,8.81,6.37,0,10.88-2.92,10.88-7.16,0-4.72-3.87-6.63-13.11-8.6-9.61-2.02-14.49-5.47-14.49-12.52s6.95-11.36,16.34-11.36,16.24,5.31,16.77,12.74Z"/>
  </g>
</svg>